%TF.GenerationSoftware,KiCad,Pcbnew,9.0.2*%
%TF.CreationDate,2025-06-03T14:55:13+02:00*%
%TF.ProjectId,aquarium-lid,61717561-7269-4756-9d2d-6c69642e6b69,2*%
%TF.SameCoordinates,Original*%
%TF.FileFunction,Soldermask,Top*%
%TF.FilePolarity,Negative*%
%FSLAX46Y46*%
G04 Gerber Fmt 4.6, Leading zero omitted, Abs format (unit mm)*
G04 Created by KiCad (PCBNEW 9.0.2) date 2025-06-03 14:55:13*
%MOMM*%
%LPD*%
G01*
G04 APERTURE LIST*
G04 Aperture macros list*
%AMRoundRect*
0 Rectangle with rounded corners*
0 $1 Rounding radius*
0 $2 $3 $4 $5 $6 $7 $8 $9 X,Y pos of 4 corners*
0 Add a 4 corners polygon primitive as box body*
4,1,4,$2,$3,$4,$5,$6,$7,$8,$9,$2,$3,0*
0 Add four circle primitives for the rounded corners*
1,1,$1+$1,$2,$3*
1,1,$1+$1,$4,$5*
1,1,$1+$1,$6,$7*
1,1,$1+$1,$8,$9*
0 Add four rect primitives between the rounded corners*
20,1,$1+$1,$2,$3,$4,$5,0*
20,1,$1+$1,$4,$5,$6,$7,0*
20,1,$1+$1,$6,$7,$8,$9,0*
20,1,$1+$1,$8,$9,$2,$3,0*%
G04 Aperture macros list end*
%ADD10RoundRect,0.250000X-0.475000X0.250000X-0.475000X-0.250000X0.475000X-0.250000X0.475000X0.250000X0*%
%ADD11RoundRect,0.150000X0.150000X-0.587500X0.150000X0.587500X-0.150000X0.587500X-0.150000X-0.587500X0*%
%ADD12RoundRect,0.250000X0.600000X0.750000X-0.600000X0.750000X-0.600000X-0.750000X0.600000X-0.750000X0*%
%ADD13O,1.700000X2.000000*%
%ADD14RoundRect,0.250000X0.450000X-0.262500X0.450000X0.262500X-0.450000X0.262500X-0.450000X-0.262500X0*%
%ADD15R,1.700000X1.700000*%
%ADD16C,1.700000*%
%ADD17RoundRect,0.102000X-0.802500X0.802500X-0.802500X-0.802500X0.802500X-0.802500X0.802500X0.802500X0*%
%ADD18C,1.809000*%
%ADD19R,1.500000X1.100000*%
%ADD20RoundRect,0.250000X-0.250000X-0.475000X0.250000X-0.475000X0.250000X0.475000X-0.250000X0.475000X0*%
%ADD21RoundRect,0.250000X0.262500X0.450000X-0.262500X0.450000X-0.262500X-0.450000X0.262500X-0.450000X0*%
%ADD22RoundRect,0.250000X-0.650000X1.000000X-0.650000X-1.000000X0.650000X-1.000000X0.650000X1.000000X0*%
%ADD23O,4.000000X1.300000*%
%ADD24O,1.300000X4.000000*%
%ADD25RoundRect,0.250000X0.250000X0.475000X-0.250000X0.475000X-0.250000X-0.475000X0.250000X-0.475000X0*%
%ADD26R,7.000000X3.500000*%
%ADD27RoundRect,0.102000X-1.050000X-0.700000X1.050000X-0.700000X1.050000X0.700000X-1.050000X0.700000X0*%
%ADD28C,1.512000*%
%ADD29RoundRect,0.250000X1.500000X-0.250000X1.500000X0.250000X-1.500000X0.250000X-1.500000X-0.250000X0*%
%ADD30RoundRect,0.250001X1.449999X-0.499999X1.449999X0.499999X-1.449999X0.499999X-1.449999X-0.499999X0*%
%ADD31RoundRect,0.250000X-0.262500X-0.450000X0.262500X-0.450000X0.262500X0.450000X-0.262500X0.450000X0*%
%ADD32R,0.900000X1.500000*%
%ADD33R,0.700000X0.700000*%
%ADD34RoundRect,0.250000X-0.375000X-0.625000X0.375000X-0.625000X0.375000X0.625000X-0.375000X0.625000X0*%
%ADD35C,0.650000*%
%ADD36RoundRect,0.150000X0.150000X0.425000X-0.150000X0.425000X-0.150000X-0.425000X0.150000X-0.425000X0*%
%ADD37RoundRect,0.075000X0.075000X0.500000X-0.075000X0.500000X-0.075000X-0.500000X0.075000X-0.500000X0*%
%ADD38O,1.000000X2.100000*%
%ADD39O,1.000000X1.800000*%
%ADD40O,1.600000X1.600000*%
%ADD41O,2.000000X3.000000*%
G04 APERTURE END LIST*
D10*
%TO.C,C2*%
X55050000Y-34100000D03*
X55050000Y-36000000D03*
%TD*%
D11*
%TO.C,Q3*%
X37050000Y-52937500D03*
X38950000Y-52937500D03*
X38000000Y-51062500D03*
%TD*%
D12*
%TO.C,J2*%
X45120000Y-28100000D03*
D13*
X42620000Y-28100000D03*
%TD*%
D14*
%TO.C,R2*%
X36000000Y-48912500D03*
X36000000Y-47087500D03*
%TD*%
D15*
%TO.C,J1*%
X22694589Y-28270286D03*
D16*
X22694589Y-25730286D03*
X22694589Y-23190286D03*
%TD*%
D17*
%TO.C,PS1*%
X59225000Y-36460000D03*
D18*
X59225000Y-39000000D03*
X59225000Y-41540000D03*
%TD*%
D19*
%TO.C,LED3*%
X69037500Y-58600000D03*
X69037500Y-57000000D03*
X69037500Y-55400000D03*
X64137500Y-55400000D03*
X64137500Y-57000000D03*
X64137500Y-58600000D03*
%TD*%
D20*
%TO.C,C3*%
X57050000Y-47000000D03*
X58950000Y-47000000D03*
%TD*%
D15*
%TO.C,J7*%
X67920000Y-50275000D03*
D16*
X67920000Y-47735000D03*
X70460000Y-50275000D03*
X70460000Y-47735000D03*
X73000000Y-50275000D03*
X73000000Y-47735000D03*
X75540000Y-50275000D03*
X75540000Y-47735000D03*
X78080000Y-50275000D03*
X78080000Y-47735000D03*
%TD*%
D21*
%TO.C,R1*%
X22912500Y-55000000D03*
X21087500Y-55000000D03*
%TD*%
D22*
%TO.C,D4*%
X37000000Y-23000000D03*
X37000000Y-27000000D03*
%TD*%
D23*
%TO.C,DC1*%
X70925000Y-27600000D03*
X70925000Y-33600000D03*
D24*
X66125000Y-31100000D03*
%TD*%
D22*
%TO.C,D3*%
X50000000Y-23000000D03*
X50000000Y-27000000D03*
%TD*%
D19*
%TO.C,LED1*%
X35862500Y-58600000D03*
X35862500Y-57000000D03*
X35862500Y-55400000D03*
X30962500Y-55400000D03*
X30962500Y-57000000D03*
X30962500Y-58600000D03*
%TD*%
D25*
%TO.C,C5*%
X22950000Y-51000000D03*
X21050000Y-51000000D03*
%TD*%
D22*
%TO.C,D2*%
X42000000Y-49000000D03*
X42000000Y-53000000D03*
%TD*%
D11*
%TO.C,Q1*%
X36050000Y-31937500D03*
X37950000Y-31937500D03*
X37000000Y-30062500D03*
%TD*%
D26*
%TO.C,L1*%
X52000000Y-39300000D03*
X52000000Y-44700000D03*
%TD*%
D11*
%TO.C,Q2*%
X49000000Y-32000000D03*
X50900000Y-32000000D03*
X49950000Y-30125000D03*
%TD*%
D27*
%TO.C,SW1*%
X45737500Y-48750000D03*
X45737500Y-53250000D03*
X54837500Y-48750000D03*
X54837500Y-53250000D03*
%TD*%
D10*
%TO.C,C1*%
X66000000Y-38050000D03*
X66000000Y-39950000D03*
%TD*%
D28*
%TO.C,LS1*%
X41000000Y-44250000D03*
X41000000Y-37750000D03*
%TD*%
D29*
%TO.C,J4*%
X72050000Y-42000000D03*
X72050000Y-40000000D03*
X72050000Y-38000000D03*
D30*
X77800000Y-44350000D03*
X77800000Y-35650000D03*
%TD*%
D21*
%TO.C,R3*%
X41497347Y-33598526D03*
X39672347Y-33598526D03*
%TD*%
D25*
%TO.C,C4*%
X22950000Y-53000000D03*
X21050000Y-53000000D03*
%TD*%
D31*
%TO.C,R4*%
X43290700Y-33589765D03*
X45115700Y-33589765D03*
%TD*%
D19*
%TO.C,LED2*%
X52450000Y-58600000D03*
X52450000Y-57000000D03*
X52450000Y-55400000D03*
X47550000Y-55400000D03*
X47550000Y-57000000D03*
X47550000Y-58600000D03*
%TD*%
D32*
%TO.C,U1*%
X21100000Y-48750000D03*
X22600000Y-48750000D03*
X24100000Y-48750000D03*
X25600000Y-48750000D03*
X27100000Y-48750000D03*
X28600000Y-48750000D03*
X30100000Y-48750000D03*
X31600000Y-48750000D03*
X33100000Y-48750000D03*
X33100000Y-31250000D03*
X31600000Y-31250000D03*
X30100000Y-31250000D03*
X28600000Y-31250000D03*
X27100000Y-31250000D03*
X25600000Y-31250000D03*
X24100000Y-31250000D03*
X22600000Y-31250000D03*
X21100000Y-31250000D03*
D33*
X26200000Y-40140000D03*
X27300000Y-40140000D03*
X28400000Y-40140000D03*
X26200000Y-39090000D03*
X27300000Y-39090000D03*
X28400000Y-39090000D03*
X26200000Y-37940000D03*
X27300000Y-37940000D03*
X28400000Y-37940000D03*
%TD*%
D34*
%TO.C,F1*%
X61600000Y-47000000D03*
X64400000Y-47000000D03*
%TD*%
D35*
%TO.C,J5*%
X32725000Y-26305000D03*
X26945000Y-26305000D03*
D36*
X33035000Y-27380000D03*
X32235000Y-27380000D03*
D37*
X31085000Y-27380000D03*
X30085000Y-27380000D03*
X29585000Y-27380000D03*
X28585000Y-27380000D03*
D36*
X27435000Y-27380000D03*
X26635000Y-27380000D03*
X26635000Y-27380000D03*
X27435000Y-27380000D03*
D37*
X28085000Y-27380000D03*
X29085000Y-27380000D03*
X30585000Y-27380000D03*
X31585000Y-27380000D03*
D36*
X32235000Y-27380000D03*
X33035000Y-27380000D03*
D38*
X34155000Y-26805000D03*
D39*
X34155000Y-22625000D03*
D38*
X25515000Y-26805000D03*
D39*
X25515000Y-22625000D03*
%TD*%
D12*
%TO.C,J3*%
X58035000Y-28100000D03*
D13*
X55535000Y-28100000D03*
%TD*%
D40*
%TO.C,SW2*%
X63150000Y-51000000D03*
X61150000Y-51000000D03*
X59150000Y-51000000D03*
D41*
X57000000Y-51000000D03*
X65300000Y-51000000D03*
%TD*%
M02*
