%TF.GenerationSoftware,KiCad,Pcbnew,9.0.2*%
%TF.CreationDate,2025-06-03T14:55:12+02:00*%
%TF.ProjectId,aquarium-lid,61717561-7269-4756-9d2d-6c69642e6b69,2*%
%TF.SameCoordinates,Original*%
%TF.FileFunction,Legend,Top*%
%TF.FilePolarity,Positive*%
%FSLAX46Y46*%
G04 Gerber Fmt 4.6, Leading zero omitted, Abs format (unit mm)*
G04 Created by KiCad (PCBNEW 9.0.2) date 2025-06-03 14:55:12*
%MOMM*%
%LPD*%
G01*
G04 APERTURE LIST*
%ADD10C,0.150000*%
%ADD11C,0.120000*%
%ADD12C,0.127000*%
%ADD13C,0.200000*%
%ADD14C,0.250000*%
G04 APERTURE END LIST*
D10*
X53409580Y-35216666D02*
X53457200Y-35264285D01*
X53457200Y-35264285D02*
X53504819Y-35407142D01*
X53504819Y-35407142D02*
X53504819Y-35502380D01*
X53504819Y-35502380D02*
X53457200Y-35645237D01*
X53457200Y-35645237D02*
X53361961Y-35740475D01*
X53361961Y-35740475D02*
X53266723Y-35788094D01*
X53266723Y-35788094D02*
X53076247Y-35835713D01*
X53076247Y-35835713D02*
X52933390Y-35835713D01*
X52933390Y-35835713D02*
X52742914Y-35788094D01*
X52742914Y-35788094D02*
X52647676Y-35740475D01*
X52647676Y-35740475D02*
X52552438Y-35645237D01*
X52552438Y-35645237D02*
X52504819Y-35502380D01*
X52504819Y-35502380D02*
X52504819Y-35407142D01*
X52504819Y-35407142D02*
X52552438Y-35264285D01*
X52552438Y-35264285D02*
X52600057Y-35216666D01*
X52600057Y-34835713D02*
X52552438Y-34788094D01*
X52552438Y-34788094D02*
X52504819Y-34692856D01*
X52504819Y-34692856D02*
X52504819Y-34454761D01*
X52504819Y-34454761D02*
X52552438Y-34359523D01*
X52552438Y-34359523D02*
X52600057Y-34311904D01*
X52600057Y-34311904D02*
X52695295Y-34264285D01*
X52695295Y-34264285D02*
X52790533Y-34264285D01*
X52790533Y-34264285D02*
X52933390Y-34311904D01*
X52933390Y-34311904D02*
X53504819Y-34883332D01*
X53504819Y-34883332D02*
X53504819Y-34264285D01*
X36150057Y-52095238D02*
X36102438Y-52190476D01*
X36102438Y-52190476D02*
X36007200Y-52285714D01*
X36007200Y-52285714D02*
X35864342Y-52428571D01*
X35864342Y-52428571D02*
X35816723Y-52523809D01*
X35816723Y-52523809D02*
X35816723Y-52619047D01*
X36054819Y-52571428D02*
X36007200Y-52666666D01*
X36007200Y-52666666D02*
X35911961Y-52761904D01*
X35911961Y-52761904D02*
X35721485Y-52809523D01*
X35721485Y-52809523D02*
X35388152Y-52809523D01*
X35388152Y-52809523D02*
X35197676Y-52761904D01*
X35197676Y-52761904D02*
X35102438Y-52666666D01*
X35102438Y-52666666D02*
X35054819Y-52571428D01*
X35054819Y-52571428D02*
X35054819Y-52380952D01*
X35054819Y-52380952D02*
X35102438Y-52285714D01*
X35102438Y-52285714D02*
X35197676Y-52190476D01*
X35197676Y-52190476D02*
X35388152Y-52142857D01*
X35388152Y-52142857D02*
X35721485Y-52142857D01*
X35721485Y-52142857D02*
X35911961Y-52190476D01*
X35911961Y-52190476D02*
X36007200Y-52285714D01*
X36007200Y-52285714D02*
X36054819Y-52380952D01*
X36054819Y-52380952D02*
X36054819Y-52571428D01*
X35054819Y-51809523D02*
X35054819Y-51190476D01*
X35054819Y-51190476D02*
X35435771Y-51523809D01*
X35435771Y-51523809D02*
X35435771Y-51380952D01*
X35435771Y-51380952D02*
X35483390Y-51285714D01*
X35483390Y-51285714D02*
X35531009Y-51238095D01*
X35531009Y-51238095D02*
X35626247Y-51190476D01*
X35626247Y-51190476D02*
X35864342Y-51190476D01*
X35864342Y-51190476D02*
X35959580Y-51238095D01*
X35959580Y-51238095D02*
X36007200Y-51285714D01*
X36007200Y-51285714D02*
X36054819Y-51380952D01*
X36054819Y-51380952D02*
X36054819Y-51666666D01*
X36054819Y-51666666D02*
X36007200Y-51761904D01*
X36007200Y-51761904D02*
X35959580Y-51809523D01*
X43666666Y-30454819D02*
X43666666Y-31169104D01*
X43666666Y-31169104D02*
X43619047Y-31311961D01*
X43619047Y-31311961D02*
X43523809Y-31407200D01*
X43523809Y-31407200D02*
X43380952Y-31454819D01*
X43380952Y-31454819D02*
X43285714Y-31454819D01*
X44095238Y-30550057D02*
X44142857Y-30502438D01*
X44142857Y-30502438D02*
X44238095Y-30454819D01*
X44238095Y-30454819D02*
X44476190Y-30454819D01*
X44476190Y-30454819D02*
X44571428Y-30502438D01*
X44571428Y-30502438D02*
X44619047Y-30550057D01*
X44619047Y-30550057D02*
X44666666Y-30645295D01*
X44666666Y-30645295D02*
X44666666Y-30740533D01*
X44666666Y-30740533D02*
X44619047Y-30883390D01*
X44619047Y-30883390D02*
X44047619Y-31454819D01*
X44047619Y-31454819D02*
X44666666Y-31454819D01*
X25188781Y-28910984D02*
X25188781Y-29625269D01*
X25188781Y-29625269D02*
X25141162Y-29768126D01*
X25141162Y-29768126D02*
X25045924Y-29863365D01*
X25045924Y-29863365D02*
X24903067Y-29910984D01*
X24903067Y-29910984D02*
X24807829Y-29910984D01*
X26188781Y-29910984D02*
X25617353Y-29910984D01*
X25903067Y-29910984D02*
X25903067Y-28910984D01*
X25903067Y-28910984D02*
X25807829Y-29053841D01*
X25807829Y-29053841D02*
X25712591Y-29149079D01*
X25712591Y-29149079D02*
X25617353Y-29196698D01*
X55454819Y-39214285D02*
X54454819Y-39214285D01*
X54454819Y-39214285D02*
X54454819Y-38833333D01*
X54454819Y-38833333D02*
X54502438Y-38738095D01*
X54502438Y-38738095D02*
X54550057Y-38690476D01*
X54550057Y-38690476D02*
X54645295Y-38642857D01*
X54645295Y-38642857D02*
X54788152Y-38642857D01*
X54788152Y-38642857D02*
X54883390Y-38690476D01*
X54883390Y-38690476D02*
X54931009Y-38738095D01*
X54931009Y-38738095D02*
X54978628Y-38833333D01*
X54978628Y-38833333D02*
X54978628Y-39214285D01*
X55407200Y-38261904D02*
X55454819Y-38119047D01*
X55454819Y-38119047D02*
X55454819Y-37880952D01*
X55454819Y-37880952D02*
X55407200Y-37785714D01*
X55407200Y-37785714D02*
X55359580Y-37738095D01*
X55359580Y-37738095D02*
X55264342Y-37690476D01*
X55264342Y-37690476D02*
X55169104Y-37690476D01*
X55169104Y-37690476D02*
X55073866Y-37738095D01*
X55073866Y-37738095D02*
X55026247Y-37785714D01*
X55026247Y-37785714D02*
X54978628Y-37880952D01*
X54978628Y-37880952D02*
X54931009Y-38071428D01*
X54931009Y-38071428D02*
X54883390Y-38166666D01*
X54883390Y-38166666D02*
X54835771Y-38214285D01*
X54835771Y-38214285D02*
X54740533Y-38261904D01*
X54740533Y-38261904D02*
X54645295Y-38261904D01*
X54645295Y-38261904D02*
X54550057Y-38214285D01*
X54550057Y-38214285D02*
X54502438Y-38166666D01*
X54502438Y-38166666D02*
X54454819Y-38071428D01*
X54454819Y-38071428D02*
X54454819Y-37833333D01*
X54454819Y-37833333D02*
X54502438Y-37690476D01*
X55454819Y-36738095D02*
X55454819Y-37309523D01*
X55454819Y-37023809D02*
X54454819Y-37023809D01*
X54454819Y-37023809D02*
X54597676Y-37119047D01*
X54597676Y-37119047D02*
X54692914Y-37214285D01*
X54692914Y-37214285D02*
X54740533Y-37309523D01*
X59880952Y-57454819D02*
X59404762Y-57454819D01*
X59404762Y-57454819D02*
X59404762Y-56454819D01*
X60214286Y-56931009D02*
X60547619Y-56931009D01*
X60690476Y-57454819D02*
X60214286Y-57454819D01*
X60214286Y-57454819D02*
X60214286Y-56454819D01*
X60214286Y-56454819D02*
X60690476Y-56454819D01*
X61119048Y-57454819D02*
X61119048Y-56454819D01*
X61119048Y-56454819D02*
X61357143Y-56454819D01*
X61357143Y-56454819D02*
X61500000Y-56502438D01*
X61500000Y-56502438D02*
X61595238Y-56597676D01*
X61595238Y-56597676D02*
X61642857Y-56692914D01*
X61642857Y-56692914D02*
X61690476Y-56883390D01*
X61690476Y-56883390D02*
X61690476Y-57026247D01*
X61690476Y-57026247D02*
X61642857Y-57216723D01*
X61642857Y-57216723D02*
X61595238Y-57311961D01*
X61595238Y-57311961D02*
X61500000Y-57407200D01*
X61500000Y-57407200D02*
X61357143Y-57454819D01*
X61357143Y-57454819D02*
X61119048Y-57454819D01*
X62023810Y-56454819D02*
X62642857Y-56454819D01*
X62642857Y-56454819D02*
X62309524Y-56835771D01*
X62309524Y-56835771D02*
X62452381Y-56835771D01*
X62452381Y-56835771D02*
X62547619Y-56883390D01*
X62547619Y-56883390D02*
X62595238Y-56931009D01*
X62595238Y-56931009D02*
X62642857Y-57026247D01*
X62642857Y-57026247D02*
X62642857Y-57264342D01*
X62642857Y-57264342D02*
X62595238Y-57359580D01*
X62595238Y-57359580D02*
X62547619Y-57407200D01*
X62547619Y-57407200D02*
X62452381Y-57454819D01*
X62452381Y-57454819D02*
X62166667Y-57454819D01*
X62166667Y-57454819D02*
X62071429Y-57407200D01*
X62071429Y-57407200D02*
X62023810Y-57359580D01*
X54833333Y-51359580D02*
X54785714Y-51407200D01*
X54785714Y-51407200D02*
X54642857Y-51454819D01*
X54642857Y-51454819D02*
X54547619Y-51454819D01*
X54547619Y-51454819D02*
X54404762Y-51407200D01*
X54404762Y-51407200D02*
X54309524Y-51311961D01*
X54309524Y-51311961D02*
X54261905Y-51216723D01*
X54261905Y-51216723D02*
X54214286Y-51026247D01*
X54214286Y-51026247D02*
X54214286Y-50883390D01*
X54214286Y-50883390D02*
X54261905Y-50692914D01*
X54261905Y-50692914D02*
X54309524Y-50597676D01*
X54309524Y-50597676D02*
X54404762Y-50502438D01*
X54404762Y-50502438D02*
X54547619Y-50454819D01*
X54547619Y-50454819D02*
X54642857Y-50454819D01*
X54642857Y-50454819D02*
X54785714Y-50502438D01*
X54785714Y-50502438D02*
X54833333Y-50550057D01*
X55166667Y-50454819D02*
X55785714Y-50454819D01*
X55785714Y-50454819D02*
X55452381Y-50835771D01*
X55452381Y-50835771D02*
X55595238Y-50835771D01*
X55595238Y-50835771D02*
X55690476Y-50883390D01*
X55690476Y-50883390D02*
X55738095Y-50931009D01*
X55738095Y-50931009D02*
X55785714Y-51026247D01*
X55785714Y-51026247D02*
X55785714Y-51264342D01*
X55785714Y-51264342D02*
X55738095Y-51359580D01*
X55738095Y-51359580D02*
X55690476Y-51407200D01*
X55690476Y-51407200D02*
X55595238Y-51454819D01*
X55595238Y-51454819D02*
X55309524Y-51454819D01*
X55309524Y-51454819D02*
X55214286Y-51407200D01*
X55214286Y-51407200D02*
X55166667Y-51359580D01*
X67454819Y-45333333D02*
X68169104Y-45333333D01*
X68169104Y-45333333D02*
X68311961Y-45380952D01*
X68311961Y-45380952D02*
X68407200Y-45476190D01*
X68407200Y-45476190D02*
X68454819Y-45619047D01*
X68454819Y-45619047D02*
X68454819Y-45714285D01*
X67454819Y-44952380D02*
X67454819Y-44285714D01*
X67454819Y-44285714D02*
X68454819Y-44714285D01*
X33516572Y-29997133D02*
X33516572Y-28997133D01*
X33516572Y-28997133D02*
X33754667Y-28997133D01*
X33754667Y-28997133D02*
X33897524Y-29044752D01*
X33897524Y-29044752D02*
X33992762Y-29139990D01*
X33992762Y-29139990D02*
X34040381Y-29235228D01*
X34040381Y-29235228D02*
X34088000Y-29425704D01*
X34088000Y-29425704D02*
X34088000Y-29568561D01*
X34088000Y-29568561D02*
X34040381Y-29759037D01*
X34040381Y-29759037D02*
X33992762Y-29854275D01*
X33992762Y-29854275D02*
X33897524Y-29949514D01*
X33897524Y-29949514D02*
X33754667Y-29997133D01*
X33754667Y-29997133D02*
X33516572Y-29997133D01*
X34945143Y-29330466D02*
X34945143Y-29997133D01*
X34707048Y-28949514D02*
X34468953Y-29663799D01*
X34468953Y-29663799D02*
X35088000Y-29663799D01*
X77454819Y-31838094D02*
X76454819Y-31838094D01*
X76454819Y-31838094D02*
X76454819Y-31599999D01*
X76454819Y-31599999D02*
X76502438Y-31457142D01*
X76502438Y-31457142D02*
X76597676Y-31361904D01*
X76597676Y-31361904D02*
X76692914Y-31314285D01*
X76692914Y-31314285D02*
X76883390Y-31266666D01*
X76883390Y-31266666D02*
X77026247Y-31266666D01*
X77026247Y-31266666D02*
X77216723Y-31314285D01*
X77216723Y-31314285D02*
X77311961Y-31361904D01*
X77311961Y-31361904D02*
X77407200Y-31457142D01*
X77407200Y-31457142D02*
X77454819Y-31599999D01*
X77454819Y-31599999D02*
X77454819Y-31838094D01*
X77359580Y-30266666D02*
X77407200Y-30314285D01*
X77407200Y-30314285D02*
X77454819Y-30457142D01*
X77454819Y-30457142D02*
X77454819Y-30552380D01*
X77454819Y-30552380D02*
X77407200Y-30695237D01*
X77407200Y-30695237D02*
X77311961Y-30790475D01*
X77311961Y-30790475D02*
X77216723Y-30838094D01*
X77216723Y-30838094D02*
X77026247Y-30885713D01*
X77026247Y-30885713D02*
X76883390Y-30885713D01*
X76883390Y-30885713D02*
X76692914Y-30838094D01*
X76692914Y-30838094D02*
X76597676Y-30790475D01*
X76597676Y-30790475D02*
X76502438Y-30695237D01*
X76502438Y-30695237D02*
X76454819Y-30552380D01*
X76454819Y-30552380D02*
X76454819Y-30457142D01*
X76454819Y-30457142D02*
X76502438Y-30314285D01*
X76502438Y-30314285D02*
X76550057Y-30266666D01*
X77454819Y-29314285D02*
X77454819Y-29885713D01*
X77454819Y-29599999D02*
X76454819Y-29599999D01*
X76454819Y-29599999D02*
X76597676Y-29695237D01*
X76597676Y-29695237D02*
X76692914Y-29790475D01*
X76692914Y-29790475D02*
X76740533Y-29885713D01*
X47261905Y-34454819D02*
X47261905Y-33454819D01*
X47261905Y-33454819D02*
X47500000Y-33454819D01*
X47500000Y-33454819D02*
X47642857Y-33502438D01*
X47642857Y-33502438D02*
X47738095Y-33597676D01*
X47738095Y-33597676D02*
X47785714Y-33692914D01*
X47785714Y-33692914D02*
X47833333Y-33883390D01*
X47833333Y-33883390D02*
X47833333Y-34026247D01*
X47833333Y-34026247D02*
X47785714Y-34216723D01*
X47785714Y-34216723D02*
X47738095Y-34311961D01*
X47738095Y-34311961D02*
X47642857Y-34407200D01*
X47642857Y-34407200D02*
X47500000Y-34454819D01*
X47500000Y-34454819D02*
X47261905Y-34454819D01*
X48166667Y-33454819D02*
X48785714Y-33454819D01*
X48785714Y-33454819D02*
X48452381Y-33835771D01*
X48452381Y-33835771D02*
X48595238Y-33835771D01*
X48595238Y-33835771D02*
X48690476Y-33883390D01*
X48690476Y-33883390D02*
X48738095Y-33931009D01*
X48738095Y-33931009D02*
X48785714Y-34026247D01*
X48785714Y-34026247D02*
X48785714Y-34264342D01*
X48785714Y-34264342D02*
X48738095Y-34359580D01*
X48738095Y-34359580D02*
X48690476Y-34407200D01*
X48690476Y-34407200D02*
X48595238Y-34454819D01*
X48595238Y-34454819D02*
X48309524Y-34454819D01*
X48309524Y-34454819D02*
X48214286Y-34407200D01*
X48214286Y-34407200D02*
X48166667Y-34359580D01*
X30880952Y-53454819D02*
X30404762Y-53454819D01*
X30404762Y-53454819D02*
X30404762Y-52454819D01*
X31214286Y-52931009D02*
X31547619Y-52931009D01*
X31690476Y-53454819D02*
X31214286Y-53454819D01*
X31214286Y-53454819D02*
X31214286Y-52454819D01*
X31214286Y-52454819D02*
X31690476Y-52454819D01*
X32119048Y-53454819D02*
X32119048Y-52454819D01*
X32119048Y-52454819D02*
X32357143Y-52454819D01*
X32357143Y-52454819D02*
X32500000Y-52502438D01*
X32500000Y-52502438D02*
X32595238Y-52597676D01*
X32595238Y-52597676D02*
X32642857Y-52692914D01*
X32642857Y-52692914D02*
X32690476Y-52883390D01*
X32690476Y-52883390D02*
X32690476Y-53026247D01*
X32690476Y-53026247D02*
X32642857Y-53216723D01*
X32642857Y-53216723D02*
X32595238Y-53311961D01*
X32595238Y-53311961D02*
X32500000Y-53407200D01*
X32500000Y-53407200D02*
X32357143Y-53454819D01*
X32357143Y-53454819D02*
X32119048Y-53454819D01*
X33642857Y-53454819D02*
X33071429Y-53454819D01*
X33357143Y-53454819D02*
X33357143Y-52454819D01*
X33357143Y-52454819D02*
X33261905Y-52597676D01*
X33261905Y-52597676D02*
X33166667Y-52692914D01*
X33166667Y-52692914D02*
X33071429Y-52740533D01*
X24833333Y-51359580D02*
X24785714Y-51407200D01*
X24785714Y-51407200D02*
X24642857Y-51454819D01*
X24642857Y-51454819D02*
X24547619Y-51454819D01*
X24547619Y-51454819D02*
X24404762Y-51407200D01*
X24404762Y-51407200D02*
X24309524Y-51311961D01*
X24309524Y-51311961D02*
X24261905Y-51216723D01*
X24261905Y-51216723D02*
X24214286Y-51026247D01*
X24214286Y-51026247D02*
X24214286Y-50883390D01*
X24214286Y-50883390D02*
X24261905Y-50692914D01*
X24261905Y-50692914D02*
X24309524Y-50597676D01*
X24309524Y-50597676D02*
X24404762Y-50502438D01*
X24404762Y-50502438D02*
X24547619Y-50454819D01*
X24547619Y-50454819D02*
X24642857Y-50454819D01*
X24642857Y-50454819D02*
X24785714Y-50502438D01*
X24785714Y-50502438D02*
X24833333Y-50550057D01*
X25738095Y-50454819D02*
X25261905Y-50454819D01*
X25261905Y-50454819D02*
X25214286Y-50931009D01*
X25214286Y-50931009D02*
X25261905Y-50883390D01*
X25261905Y-50883390D02*
X25357143Y-50835771D01*
X25357143Y-50835771D02*
X25595238Y-50835771D01*
X25595238Y-50835771D02*
X25690476Y-50883390D01*
X25690476Y-50883390D02*
X25738095Y-50931009D01*
X25738095Y-50931009D02*
X25785714Y-51026247D01*
X25785714Y-51026247D02*
X25785714Y-51264342D01*
X25785714Y-51264342D02*
X25738095Y-51359580D01*
X25738095Y-51359580D02*
X25690476Y-51407200D01*
X25690476Y-51407200D02*
X25595238Y-51454819D01*
X25595238Y-51454819D02*
X25357143Y-51454819D01*
X25357143Y-51454819D02*
X25261905Y-51407200D01*
X25261905Y-51407200D02*
X25214286Y-51359580D01*
X41261905Y-56454819D02*
X41261905Y-55454819D01*
X41261905Y-55454819D02*
X41500000Y-55454819D01*
X41500000Y-55454819D02*
X41642857Y-55502438D01*
X41642857Y-55502438D02*
X41738095Y-55597676D01*
X41738095Y-55597676D02*
X41785714Y-55692914D01*
X41785714Y-55692914D02*
X41833333Y-55883390D01*
X41833333Y-55883390D02*
X41833333Y-56026247D01*
X41833333Y-56026247D02*
X41785714Y-56216723D01*
X41785714Y-56216723D02*
X41738095Y-56311961D01*
X41738095Y-56311961D02*
X41642857Y-56407200D01*
X41642857Y-56407200D02*
X41500000Y-56454819D01*
X41500000Y-56454819D02*
X41261905Y-56454819D01*
X42214286Y-55550057D02*
X42261905Y-55502438D01*
X42261905Y-55502438D02*
X42357143Y-55454819D01*
X42357143Y-55454819D02*
X42595238Y-55454819D01*
X42595238Y-55454819D02*
X42690476Y-55502438D01*
X42690476Y-55502438D02*
X42738095Y-55550057D01*
X42738095Y-55550057D02*
X42785714Y-55645295D01*
X42785714Y-55645295D02*
X42785714Y-55740533D01*
X42785714Y-55740533D02*
X42738095Y-55883390D01*
X42738095Y-55883390D02*
X42166667Y-56454819D01*
X42166667Y-56454819D02*
X42785714Y-56454819D01*
X36904761Y-34550057D02*
X36809523Y-34502438D01*
X36809523Y-34502438D02*
X36714285Y-34407200D01*
X36714285Y-34407200D02*
X36571428Y-34264342D01*
X36571428Y-34264342D02*
X36476190Y-34216723D01*
X36476190Y-34216723D02*
X36380952Y-34216723D01*
X36428571Y-34454819D02*
X36333333Y-34407200D01*
X36333333Y-34407200D02*
X36238095Y-34311961D01*
X36238095Y-34311961D02*
X36190476Y-34121485D01*
X36190476Y-34121485D02*
X36190476Y-33788152D01*
X36190476Y-33788152D02*
X36238095Y-33597676D01*
X36238095Y-33597676D02*
X36333333Y-33502438D01*
X36333333Y-33502438D02*
X36428571Y-33454819D01*
X36428571Y-33454819D02*
X36619047Y-33454819D01*
X36619047Y-33454819D02*
X36714285Y-33502438D01*
X36714285Y-33502438D02*
X36809523Y-33597676D01*
X36809523Y-33597676D02*
X36857142Y-33788152D01*
X36857142Y-33788152D02*
X36857142Y-34121485D01*
X36857142Y-34121485D02*
X36809523Y-34311961D01*
X36809523Y-34311961D02*
X36714285Y-34407200D01*
X36714285Y-34407200D02*
X36619047Y-34454819D01*
X36619047Y-34454819D02*
X36428571Y-34454819D01*
X37809523Y-34454819D02*
X37238095Y-34454819D01*
X37523809Y-34454819D02*
X37523809Y-33454819D01*
X37523809Y-33454819D02*
X37428571Y-33597676D01*
X37428571Y-33597676D02*
X37333333Y-33692914D01*
X37333333Y-33692914D02*
X37238095Y-33740533D01*
X47454819Y-45166666D02*
X47454819Y-45642856D01*
X47454819Y-45642856D02*
X46454819Y-45642856D01*
X47454819Y-44309523D02*
X47454819Y-44880951D01*
X47454819Y-44595237D02*
X46454819Y-44595237D01*
X46454819Y-44595237D02*
X46597676Y-44690475D01*
X46597676Y-44690475D02*
X46692914Y-44785713D01*
X46692914Y-44785713D02*
X46740533Y-44880951D01*
X49904761Y-34550057D02*
X49809523Y-34502438D01*
X49809523Y-34502438D02*
X49714285Y-34407200D01*
X49714285Y-34407200D02*
X49571428Y-34264342D01*
X49571428Y-34264342D02*
X49476190Y-34216723D01*
X49476190Y-34216723D02*
X49380952Y-34216723D01*
X49428571Y-34454819D02*
X49333333Y-34407200D01*
X49333333Y-34407200D02*
X49238095Y-34311961D01*
X49238095Y-34311961D02*
X49190476Y-34121485D01*
X49190476Y-34121485D02*
X49190476Y-33788152D01*
X49190476Y-33788152D02*
X49238095Y-33597676D01*
X49238095Y-33597676D02*
X49333333Y-33502438D01*
X49333333Y-33502438D02*
X49428571Y-33454819D01*
X49428571Y-33454819D02*
X49619047Y-33454819D01*
X49619047Y-33454819D02*
X49714285Y-33502438D01*
X49714285Y-33502438D02*
X49809523Y-33597676D01*
X49809523Y-33597676D02*
X49857142Y-33788152D01*
X49857142Y-33788152D02*
X49857142Y-34121485D01*
X49857142Y-34121485D02*
X49809523Y-34311961D01*
X49809523Y-34311961D02*
X49714285Y-34407200D01*
X49714285Y-34407200D02*
X49619047Y-34454819D01*
X49619047Y-34454819D02*
X49428571Y-34454819D01*
X50238095Y-33550057D02*
X50285714Y-33502438D01*
X50285714Y-33502438D02*
X50380952Y-33454819D01*
X50380952Y-33454819D02*
X50619047Y-33454819D01*
X50619047Y-33454819D02*
X50714285Y-33502438D01*
X50714285Y-33502438D02*
X50761904Y-33550057D01*
X50761904Y-33550057D02*
X50809523Y-33645295D01*
X50809523Y-33645295D02*
X50809523Y-33740533D01*
X50809523Y-33740533D02*
X50761904Y-33883390D01*
X50761904Y-33883390D02*
X50190476Y-34454819D01*
X50190476Y-34454819D02*
X50809523Y-34454819D01*
X44666667Y-47407200D02*
X44809524Y-47454819D01*
X44809524Y-47454819D02*
X45047619Y-47454819D01*
X45047619Y-47454819D02*
X45142857Y-47407200D01*
X45142857Y-47407200D02*
X45190476Y-47359580D01*
X45190476Y-47359580D02*
X45238095Y-47264342D01*
X45238095Y-47264342D02*
X45238095Y-47169104D01*
X45238095Y-47169104D02*
X45190476Y-47073866D01*
X45190476Y-47073866D02*
X45142857Y-47026247D01*
X45142857Y-47026247D02*
X45047619Y-46978628D01*
X45047619Y-46978628D02*
X44857143Y-46931009D01*
X44857143Y-46931009D02*
X44761905Y-46883390D01*
X44761905Y-46883390D02*
X44714286Y-46835771D01*
X44714286Y-46835771D02*
X44666667Y-46740533D01*
X44666667Y-46740533D02*
X44666667Y-46645295D01*
X44666667Y-46645295D02*
X44714286Y-46550057D01*
X44714286Y-46550057D02*
X44761905Y-46502438D01*
X44761905Y-46502438D02*
X44857143Y-46454819D01*
X44857143Y-46454819D02*
X45095238Y-46454819D01*
X45095238Y-46454819D02*
X45238095Y-46502438D01*
X45571429Y-46454819D02*
X45809524Y-47454819D01*
X45809524Y-47454819D02*
X46000000Y-46740533D01*
X46000000Y-46740533D02*
X46190476Y-47454819D01*
X46190476Y-47454819D02*
X46428572Y-46454819D01*
X47333333Y-47454819D02*
X46761905Y-47454819D01*
X47047619Y-47454819D02*
X47047619Y-46454819D01*
X47047619Y-46454819D02*
X46952381Y-46597676D01*
X46952381Y-46597676D02*
X46857143Y-46692914D01*
X46857143Y-46692914D02*
X46761905Y-46740533D01*
X68039580Y-39166666D02*
X68087200Y-39214285D01*
X68087200Y-39214285D02*
X68134819Y-39357142D01*
X68134819Y-39357142D02*
X68134819Y-39452380D01*
X68134819Y-39452380D02*
X68087200Y-39595237D01*
X68087200Y-39595237D02*
X67991961Y-39690475D01*
X67991961Y-39690475D02*
X67896723Y-39738094D01*
X67896723Y-39738094D02*
X67706247Y-39785713D01*
X67706247Y-39785713D02*
X67563390Y-39785713D01*
X67563390Y-39785713D02*
X67372914Y-39738094D01*
X67372914Y-39738094D02*
X67277676Y-39690475D01*
X67277676Y-39690475D02*
X67182438Y-39595237D01*
X67182438Y-39595237D02*
X67134819Y-39452380D01*
X67134819Y-39452380D02*
X67134819Y-39357142D01*
X67134819Y-39357142D02*
X67182438Y-39214285D01*
X67182438Y-39214285D02*
X67230057Y-39166666D01*
X68134819Y-38214285D02*
X68134819Y-38785713D01*
X68134819Y-38499999D02*
X67134819Y-38499999D01*
X67134819Y-38499999D02*
X67277676Y-38595237D01*
X67277676Y-38595237D02*
X67372914Y-38690475D01*
X67372914Y-38690475D02*
X67420533Y-38785713D01*
X47356278Y-36455442D02*
X46879446Y-36455442D01*
X46879446Y-36455442D02*
X46879446Y-35454096D01*
X47642376Y-36407759D02*
X47785426Y-36455442D01*
X47785426Y-36455442D02*
X48023841Y-36455442D01*
X48023841Y-36455442D02*
X48119208Y-36407759D01*
X48119208Y-36407759D02*
X48166891Y-36360075D01*
X48166891Y-36360075D02*
X48214574Y-36264709D01*
X48214574Y-36264709D02*
X48214574Y-36169343D01*
X48214574Y-36169343D02*
X48166891Y-36073977D01*
X48166891Y-36073977D02*
X48119208Y-36026293D01*
X48119208Y-36026293D02*
X48023841Y-35978610D01*
X48023841Y-35978610D02*
X47833109Y-35930927D01*
X47833109Y-35930927D02*
X47737742Y-35883244D01*
X47737742Y-35883244D02*
X47690059Y-35835561D01*
X47690059Y-35835561D02*
X47642376Y-35740195D01*
X47642376Y-35740195D02*
X47642376Y-35644828D01*
X47642376Y-35644828D02*
X47690059Y-35549462D01*
X47690059Y-35549462D02*
X47737742Y-35501779D01*
X47737742Y-35501779D02*
X47833109Y-35454096D01*
X47833109Y-35454096D02*
X48071524Y-35454096D01*
X48071524Y-35454096D02*
X48214574Y-35501779D01*
X49168237Y-36455442D02*
X48596039Y-36455442D01*
X48882138Y-36455442D02*
X48882138Y-35454096D01*
X48882138Y-35454096D02*
X48786772Y-35597145D01*
X48786772Y-35597145D02*
X48691405Y-35692511D01*
X48691405Y-35692511D02*
X48596039Y-35740195D01*
X40502888Y-33726443D02*
X40502888Y-32963015D01*
X40884602Y-33344729D02*
X40121173Y-33344729D01*
X40503098Y-47989228D02*
X40503098Y-47226130D01*
X68554819Y-40333333D02*
X69269104Y-40333333D01*
X69269104Y-40333333D02*
X69411961Y-40380952D01*
X69411961Y-40380952D02*
X69507200Y-40476190D01*
X69507200Y-40476190D02*
X69554819Y-40619047D01*
X69554819Y-40619047D02*
X69554819Y-40714285D01*
X68888152Y-39428571D02*
X69554819Y-39428571D01*
X68507200Y-39666666D02*
X69221485Y-39904761D01*
X69221485Y-39904761D02*
X69221485Y-39285714D01*
X24833333Y-53359580D02*
X24785714Y-53407200D01*
X24785714Y-53407200D02*
X24642857Y-53454819D01*
X24642857Y-53454819D02*
X24547619Y-53454819D01*
X24547619Y-53454819D02*
X24404762Y-53407200D01*
X24404762Y-53407200D02*
X24309524Y-53311961D01*
X24309524Y-53311961D02*
X24261905Y-53216723D01*
X24261905Y-53216723D02*
X24214286Y-53026247D01*
X24214286Y-53026247D02*
X24214286Y-52883390D01*
X24214286Y-52883390D02*
X24261905Y-52692914D01*
X24261905Y-52692914D02*
X24309524Y-52597676D01*
X24309524Y-52597676D02*
X24404762Y-52502438D01*
X24404762Y-52502438D02*
X24547619Y-52454819D01*
X24547619Y-52454819D02*
X24642857Y-52454819D01*
X24642857Y-52454819D02*
X24785714Y-52502438D01*
X24785714Y-52502438D02*
X24833333Y-52550057D01*
X25690476Y-52788152D02*
X25690476Y-53454819D01*
X25452381Y-52407200D02*
X25214286Y-53121485D01*
X25214286Y-53121485D02*
X25833333Y-53121485D01*
X42880952Y-58454819D02*
X42404762Y-58454819D01*
X42404762Y-58454819D02*
X42404762Y-57454819D01*
X43214286Y-57931009D02*
X43547619Y-57931009D01*
X43690476Y-58454819D02*
X43214286Y-58454819D01*
X43214286Y-58454819D02*
X43214286Y-57454819D01*
X43214286Y-57454819D02*
X43690476Y-57454819D01*
X44119048Y-58454819D02*
X44119048Y-57454819D01*
X44119048Y-57454819D02*
X44357143Y-57454819D01*
X44357143Y-57454819D02*
X44500000Y-57502438D01*
X44500000Y-57502438D02*
X44595238Y-57597676D01*
X44595238Y-57597676D02*
X44642857Y-57692914D01*
X44642857Y-57692914D02*
X44690476Y-57883390D01*
X44690476Y-57883390D02*
X44690476Y-58026247D01*
X44690476Y-58026247D02*
X44642857Y-58216723D01*
X44642857Y-58216723D02*
X44595238Y-58311961D01*
X44595238Y-58311961D02*
X44500000Y-58407200D01*
X44500000Y-58407200D02*
X44357143Y-58454819D01*
X44357143Y-58454819D02*
X44119048Y-58454819D01*
X45071429Y-57550057D02*
X45119048Y-57502438D01*
X45119048Y-57502438D02*
X45214286Y-57454819D01*
X45214286Y-57454819D02*
X45452381Y-57454819D01*
X45452381Y-57454819D02*
X45547619Y-57502438D01*
X45547619Y-57502438D02*
X45595238Y-57550057D01*
X45595238Y-57550057D02*
X45642857Y-57645295D01*
X45642857Y-57645295D02*
X45642857Y-57740533D01*
X45642857Y-57740533D02*
X45595238Y-57883390D01*
X45595238Y-57883390D02*
X45023810Y-58454819D01*
X45023810Y-58454819D02*
X45642857Y-58454819D01*
X11704819Y-40761904D02*
X12514342Y-40761904D01*
X12514342Y-40761904D02*
X12609580Y-40714285D01*
X12609580Y-40714285D02*
X12657200Y-40666666D01*
X12657200Y-40666666D02*
X12704819Y-40571428D01*
X12704819Y-40571428D02*
X12704819Y-40380952D01*
X12704819Y-40380952D02*
X12657200Y-40285714D01*
X12657200Y-40285714D02*
X12609580Y-40238095D01*
X12609580Y-40238095D02*
X12514342Y-40190476D01*
X12514342Y-40190476D02*
X11704819Y-40190476D01*
X12704819Y-39190476D02*
X12704819Y-39761904D01*
X12704819Y-39476190D02*
X11704819Y-39476190D01*
X11704819Y-39476190D02*
X11847676Y-39571428D01*
X11847676Y-39571428D02*
X11942914Y-39666666D01*
X11942914Y-39666666D02*
X11990533Y-39761904D01*
X16769104Y-44761905D02*
X16769104Y-44285715D01*
X17054819Y-44857143D02*
X16054819Y-44523810D01*
X16054819Y-44523810D02*
X17054819Y-44190477D01*
X16388152Y-43857143D02*
X17054819Y-43857143D01*
X16483390Y-43857143D02*
X16435771Y-43809524D01*
X16435771Y-43809524D02*
X16388152Y-43714286D01*
X16388152Y-43714286D02*
X16388152Y-43571429D01*
X16388152Y-43571429D02*
X16435771Y-43476191D01*
X16435771Y-43476191D02*
X16531009Y-43428572D01*
X16531009Y-43428572D02*
X17054819Y-43428572D01*
X16388152Y-43095238D02*
X16388152Y-42714286D01*
X16054819Y-42952381D02*
X16911961Y-42952381D01*
X16911961Y-42952381D02*
X17007200Y-42904762D01*
X17007200Y-42904762D02*
X17054819Y-42809524D01*
X17054819Y-42809524D02*
X17054819Y-42714286D01*
X17007200Y-42000000D02*
X17054819Y-42095238D01*
X17054819Y-42095238D02*
X17054819Y-42285714D01*
X17054819Y-42285714D02*
X17007200Y-42380952D01*
X17007200Y-42380952D02*
X16911961Y-42428571D01*
X16911961Y-42428571D02*
X16531009Y-42428571D01*
X16531009Y-42428571D02*
X16435771Y-42380952D01*
X16435771Y-42380952D02*
X16388152Y-42285714D01*
X16388152Y-42285714D02*
X16388152Y-42095238D01*
X16388152Y-42095238D02*
X16435771Y-42000000D01*
X16435771Y-42000000D02*
X16531009Y-41952381D01*
X16531009Y-41952381D02*
X16626247Y-41952381D01*
X16626247Y-41952381D02*
X16721485Y-42428571D01*
X16388152Y-41523809D02*
X17054819Y-41523809D01*
X16483390Y-41523809D02*
X16435771Y-41476190D01*
X16435771Y-41476190D02*
X16388152Y-41380952D01*
X16388152Y-41380952D02*
X16388152Y-41238095D01*
X16388152Y-41238095D02*
X16435771Y-41142857D01*
X16435771Y-41142857D02*
X16531009Y-41095238D01*
X16531009Y-41095238D02*
X17054819Y-41095238D01*
X16388152Y-40619047D02*
X17054819Y-40619047D01*
X16483390Y-40619047D02*
X16435771Y-40571428D01*
X16435771Y-40571428D02*
X16388152Y-40476190D01*
X16388152Y-40476190D02*
X16388152Y-40333333D01*
X16388152Y-40333333D02*
X16435771Y-40238095D01*
X16435771Y-40238095D02*
X16531009Y-40190476D01*
X16531009Y-40190476D02*
X17054819Y-40190476D01*
X17054819Y-39285714D02*
X16531009Y-39285714D01*
X16531009Y-39285714D02*
X16435771Y-39333333D01*
X16435771Y-39333333D02*
X16388152Y-39428571D01*
X16388152Y-39428571D02*
X16388152Y-39619047D01*
X16388152Y-39619047D02*
X16435771Y-39714285D01*
X17007200Y-39285714D02*
X17054819Y-39380952D01*
X17054819Y-39380952D02*
X17054819Y-39619047D01*
X17054819Y-39619047D02*
X17007200Y-39714285D01*
X17007200Y-39714285D02*
X16911961Y-39761904D01*
X16911961Y-39761904D02*
X16816723Y-39761904D01*
X16816723Y-39761904D02*
X16721485Y-39714285D01*
X16721485Y-39714285D02*
X16673866Y-39619047D01*
X16673866Y-39619047D02*
X16673866Y-39380952D01*
X16673866Y-39380952D02*
X16626247Y-39285714D01*
X16769104Y-38095237D02*
X16769104Y-37619047D01*
X17054819Y-38190475D02*
X16054819Y-37857142D01*
X16054819Y-37857142D02*
X17054819Y-37523809D01*
X17054819Y-37190475D02*
X16388152Y-37190475D01*
X16578628Y-37190475D02*
X16483390Y-37142856D01*
X16483390Y-37142856D02*
X16435771Y-37095237D01*
X16435771Y-37095237D02*
X16388152Y-36999999D01*
X16388152Y-36999999D02*
X16388152Y-36904761D01*
X17007200Y-36190475D02*
X17054819Y-36285713D01*
X17054819Y-36285713D02*
X17054819Y-36476189D01*
X17054819Y-36476189D02*
X17007200Y-36571427D01*
X17007200Y-36571427D02*
X16911961Y-36619046D01*
X16911961Y-36619046D02*
X16531009Y-36619046D01*
X16531009Y-36619046D02*
X16435771Y-36571427D01*
X16435771Y-36571427D02*
X16388152Y-36476189D01*
X16388152Y-36476189D02*
X16388152Y-36285713D01*
X16388152Y-36285713D02*
X16435771Y-36190475D01*
X16435771Y-36190475D02*
X16531009Y-36142856D01*
X16531009Y-36142856D02*
X16626247Y-36142856D01*
X16626247Y-36142856D02*
X16721485Y-36619046D01*
X17054819Y-35285713D02*
X16531009Y-35285713D01*
X16531009Y-35285713D02*
X16435771Y-35333332D01*
X16435771Y-35333332D02*
X16388152Y-35428570D01*
X16388152Y-35428570D02*
X16388152Y-35619046D01*
X16388152Y-35619046D02*
X16435771Y-35714284D01*
X17007200Y-35285713D02*
X17054819Y-35380951D01*
X17054819Y-35380951D02*
X17054819Y-35619046D01*
X17054819Y-35619046D02*
X17007200Y-35714284D01*
X17007200Y-35714284D02*
X16911961Y-35761903D01*
X16911961Y-35761903D02*
X16816723Y-35761903D01*
X16816723Y-35761903D02*
X16721485Y-35714284D01*
X16721485Y-35714284D02*
X16673866Y-35619046D01*
X16673866Y-35619046D02*
X16673866Y-35380951D01*
X16673866Y-35380951D02*
X16626247Y-35285713D01*
X65666666Y-44931009D02*
X65333333Y-44931009D01*
X65333333Y-45454819D02*
X65333333Y-44454819D01*
X65333333Y-44454819D02*
X65809523Y-44454819D01*
X66714285Y-45454819D02*
X66142857Y-45454819D01*
X66428571Y-45454819D02*
X66428571Y-44454819D01*
X66428571Y-44454819D02*
X66333333Y-44597676D01*
X66333333Y-44597676D02*
X66238095Y-44692914D01*
X66238095Y-44692914D02*
X66142857Y-44740533D01*
X29501666Y-28654819D02*
X29501666Y-29369104D01*
X29501666Y-29369104D02*
X29454047Y-29511961D01*
X29454047Y-29511961D02*
X29358809Y-29607200D01*
X29358809Y-29607200D02*
X29215952Y-29654819D01*
X29215952Y-29654819D02*
X29120714Y-29654819D01*
X30454047Y-28654819D02*
X29977857Y-28654819D01*
X29977857Y-28654819D02*
X29930238Y-29131009D01*
X29930238Y-29131009D02*
X29977857Y-29083390D01*
X29977857Y-29083390D02*
X30073095Y-29035771D01*
X30073095Y-29035771D02*
X30311190Y-29035771D01*
X30311190Y-29035771D02*
X30406428Y-29083390D01*
X30406428Y-29083390D02*
X30454047Y-29131009D01*
X30454047Y-29131009D02*
X30501666Y-29226247D01*
X30501666Y-29226247D02*
X30501666Y-29464342D01*
X30501666Y-29464342D02*
X30454047Y-29559580D01*
X30454047Y-29559580D02*
X30406428Y-29607200D01*
X30406428Y-29607200D02*
X30311190Y-29654819D01*
X30311190Y-29654819D02*
X30073095Y-29654819D01*
X30073095Y-29654819D02*
X29977857Y-29607200D01*
X29977857Y-29607200D02*
X29930238Y-29559580D01*
X61666666Y-27454819D02*
X61666666Y-28169104D01*
X61666666Y-28169104D02*
X61619047Y-28311961D01*
X61619047Y-28311961D02*
X61523809Y-28407200D01*
X61523809Y-28407200D02*
X61380952Y-28454819D01*
X61380952Y-28454819D02*
X61285714Y-28454819D01*
X62047619Y-27454819D02*
X62666666Y-27454819D01*
X62666666Y-27454819D02*
X62333333Y-27835771D01*
X62333333Y-27835771D02*
X62476190Y-27835771D01*
X62476190Y-27835771D02*
X62571428Y-27883390D01*
X62571428Y-27883390D02*
X62619047Y-27931009D01*
X62619047Y-27931009D02*
X62666666Y-28026247D01*
X62666666Y-28026247D02*
X62666666Y-28264342D01*
X62666666Y-28264342D02*
X62619047Y-28359580D01*
X62619047Y-28359580D02*
X62571428Y-28407200D01*
X62571428Y-28407200D02*
X62476190Y-28454819D01*
X62476190Y-28454819D02*
X62190476Y-28454819D01*
X62190476Y-28454819D02*
X62095238Y-28407200D01*
X62095238Y-28407200D02*
X62047619Y-28359580D01*
X59816667Y-55407200D02*
X59959524Y-55454819D01*
X59959524Y-55454819D02*
X60197619Y-55454819D01*
X60197619Y-55454819D02*
X60292857Y-55407200D01*
X60292857Y-55407200D02*
X60340476Y-55359580D01*
X60340476Y-55359580D02*
X60388095Y-55264342D01*
X60388095Y-55264342D02*
X60388095Y-55169104D01*
X60388095Y-55169104D02*
X60340476Y-55073866D01*
X60340476Y-55073866D02*
X60292857Y-55026247D01*
X60292857Y-55026247D02*
X60197619Y-54978628D01*
X60197619Y-54978628D02*
X60007143Y-54931009D01*
X60007143Y-54931009D02*
X59911905Y-54883390D01*
X59911905Y-54883390D02*
X59864286Y-54835771D01*
X59864286Y-54835771D02*
X59816667Y-54740533D01*
X59816667Y-54740533D02*
X59816667Y-54645295D01*
X59816667Y-54645295D02*
X59864286Y-54550057D01*
X59864286Y-54550057D02*
X59911905Y-54502438D01*
X59911905Y-54502438D02*
X60007143Y-54454819D01*
X60007143Y-54454819D02*
X60245238Y-54454819D01*
X60245238Y-54454819D02*
X60388095Y-54502438D01*
X60721429Y-54454819D02*
X60959524Y-55454819D01*
X60959524Y-55454819D02*
X61150000Y-54740533D01*
X61150000Y-54740533D02*
X61340476Y-55454819D01*
X61340476Y-55454819D02*
X61578572Y-54454819D01*
X61911905Y-54550057D02*
X61959524Y-54502438D01*
X61959524Y-54502438D02*
X62054762Y-54454819D01*
X62054762Y-54454819D02*
X62292857Y-54454819D01*
X62292857Y-54454819D02*
X62388095Y-54502438D01*
X62388095Y-54502438D02*
X62435714Y-54550057D01*
X62435714Y-54550057D02*
X62483333Y-54645295D01*
X62483333Y-54645295D02*
X62483333Y-54740533D01*
X62483333Y-54740533D02*
X62435714Y-54883390D01*
X62435714Y-54883390D02*
X61864286Y-55454819D01*
X61864286Y-55454819D02*
X62483333Y-55454819D01*
D11*
%TO.C,C2*%
X54315000Y-34788748D02*
X54315000Y-35311252D01*
X55785000Y-34788748D02*
X55785000Y-35311252D01*
%TO.C,Q3*%
X36440000Y-52000000D02*
X36440000Y-51350000D01*
X36440000Y-52000000D02*
X36440000Y-52650000D01*
X39560000Y-52000000D02*
X39560000Y-51350000D01*
X39560000Y-52000000D02*
X39560000Y-52650000D01*
X36490000Y-53162500D02*
X36160000Y-53402500D01*
X36160000Y-52922500D01*
X36490000Y-53162500D01*
G36*
X36490000Y-53162500D02*
G01*
X36160000Y-53402500D01*
X36160000Y-52922500D01*
X36490000Y-53162500D01*
G37*
%TO.C,J2*%
X40060000Y-20390000D02*
X40060000Y-32110000D01*
X40060000Y-32110000D02*
X41480000Y-32110000D01*
X41480000Y-32110000D02*
X41480000Y-27610000D01*
X42370000Y-21000000D02*
X42370000Y-26500000D01*
X42370000Y-26500000D02*
X42870000Y-26500000D01*
X42870000Y-21000000D02*
X42370000Y-21000000D01*
X42870000Y-26500000D02*
X42870000Y-21000000D01*
X43870000Y-20390000D02*
X40060000Y-20390000D01*
X43870000Y-20390000D02*
X47680000Y-20390000D01*
X44820000Y-30200000D02*
X45120000Y-29600000D01*
X44870000Y-21000000D02*
X44870000Y-26500000D01*
X44870000Y-26500000D02*
X45370000Y-26500000D01*
X45120000Y-29600000D02*
X45420000Y-30200000D01*
X45370000Y-21000000D02*
X44870000Y-21000000D01*
X45370000Y-26500000D02*
X45370000Y-21000000D01*
X45420000Y-30200000D02*
X44820000Y-30200000D01*
X46260000Y-32110000D02*
X46260000Y-27610000D01*
X47680000Y-20390000D02*
X47680000Y-32110000D01*
X47680000Y-32110000D02*
X46260000Y-32110000D01*
%TO.C,R2*%
X35265000Y-48227064D02*
X35265000Y-47772936D01*
X36735000Y-48227064D02*
X36735000Y-47772936D01*
%TO.C,J1*%
X21314589Y-27000286D02*
X21314589Y-21810286D01*
X24074589Y-21810286D02*
X21314589Y-21810286D01*
X24074589Y-27000286D02*
X21314589Y-27000286D01*
X24074589Y-27000286D02*
X24074589Y-21810286D01*
X24074589Y-28270286D02*
X24074589Y-29650286D01*
X24074589Y-29650286D02*
X22694589Y-29650286D01*
D12*
%TO.C,PS1*%
X57225000Y-33250000D02*
X64775000Y-33250000D01*
X57225000Y-44750000D02*
X57225000Y-33250000D01*
X64775000Y-33250000D02*
X64775000Y-44750000D01*
X64775000Y-44750000D02*
X57225000Y-44750000D01*
D13*
X59325000Y-32750000D02*
G75*
G02*
X59125000Y-32750000I-100000J0D01*
G01*
X59125000Y-32750000D02*
G75*
G02*
X59325000Y-32750000I100000J0D01*
G01*
D14*
%TO.C,LED3*%
X64087500Y-54500000D02*
X69087500Y-54500000D01*
X64087500Y-54620000D02*
X64087500Y-54490000D01*
X64087500Y-56220000D02*
X64087500Y-56180000D01*
X64087500Y-57820000D02*
X64087500Y-57780000D01*
X64087500Y-59500000D02*
X64087500Y-59380000D01*
X69087500Y-54500000D02*
X69087500Y-54620000D01*
X69087500Y-56180000D02*
X69087500Y-56220000D01*
X69087500Y-57780000D02*
X69087500Y-57820000D01*
X69087500Y-59380000D02*
X69087500Y-59500000D01*
X69087500Y-59500000D02*
X64087500Y-59500000D01*
D10*
X69397500Y-59240000D02*
X69397500Y-59730000D01*
X69397500Y-59730000D02*
X69397500Y-59800000D01*
X69397500Y-59800000D02*
X68897500Y-59800000D01*
D11*
%TO.C,C3*%
X57738748Y-46265000D02*
X58261252Y-46265000D01*
X57738748Y-47735000D02*
X58261252Y-47735000D01*
%TO.C,J7*%
X66540000Y-46355000D02*
X79460000Y-46355000D01*
X66540000Y-49005000D02*
X66540000Y-46355000D01*
X66540000Y-51655000D02*
X66540000Y-50275000D01*
X67920000Y-51655000D02*
X66540000Y-51655000D01*
X69190000Y-49005000D02*
X66540000Y-49005000D01*
X69190000Y-51655000D02*
X69190000Y-49005000D01*
X69190000Y-51655000D02*
X79460000Y-51655000D01*
X79460000Y-51655000D02*
X79460000Y-46355000D01*
%TO.C,R1*%
X22227064Y-54265000D02*
X21772936Y-54265000D01*
X22227064Y-55735000D02*
X21772936Y-55735000D01*
%TO.C,D4*%
X35350000Y-21490000D02*
X35350000Y-27000000D01*
X38650000Y-21490000D02*
X35350000Y-21490000D01*
X38650000Y-21490000D02*
X38650000Y-27000000D01*
D14*
%TO.C,DC1*%
X66385000Y-20100000D02*
X66385000Y-28270000D01*
X66385000Y-28900000D02*
X66385000Y-28270000D01*
X66385000Y-34300000D02*
X66385000Y-33300000D01*
X68935000Y-34300000D02*
X66385000Y-34300000D01*
X75375000Y-20100000D02*
X66385000Y-20100000D01*
X75375000Y-22860000D02*
X66375000Y-22860000D01*
X75385000Y-20100000D02*
X75385000Y-34300000D01*
X75385000Y-34300000D02*
X72915000Y-34300000D01*
D11*
%TO.C,D3*%
X48350000Y-21490000D02*
X48350000Y-27000000D01*
X51650000Y-21490000D02*
X48350000Y-21490000D01*
X51650000Y-21490000D02*
X51650000Y-27000000D01*
D14*
%TO.C,LED1*%
X30912500Y-54500000D02*
X35912500Y-54500000D01*
X30912500Y-54620000D02*
X30912500Y-54490000D01*
X30912500Y-56220000D02*
X30912500Y-56180000D01*
X30912500Y-57820000D02*
X30912500Y-57780000D01*
X30912500Y-59500000D02*
X30912500Y-59380000D01*
X35912500Y-54500000D02*
X35912500Y-54620000D01*
X35912500Y-56180000D02*
X35912500Y-56220000D01*
X35912500Y-57780000D02*
X35912500Y-57820000D01*
X35912500Y-59380000D02*
X35912500Y-59500000D01*
X35912500Y-59500000D02*
X30912500Y-59500000D01*
D10*
X36222500Y-59240000D02*
X36222500Y-59730000D01*
X36222500Y-59730000D02*
X36222500Y-59800000D01*
X36222500Y-59800000D02*
X35722500Y-59800000D01*
D11*
%TO.C,C5*%
X22261252Y-50265000D02*
X21738748Y-50265000D01*
X22261252Y-51735000D02*
X21738748Y-51735000D01*
%TO.C,D2*%
X40350000Y-47490000D02*
X40350000Y-53000000D01*
X43650000Y-47490000D02*
X40350000Y-47490000D01*
X43650000Y-47490000D02*
X43650000Y-53000000D01*
%TO.C,Q1*%
X35440000Y-31000000D02*
X35440000Y-30350000D01*
X35440000Y-31000000D02*
X35440000Y-31650000D01*
X38560000Y-31000000D02*
X38560000Y-30350000D01*
X38560000Y-31000000D02*
X38560000Y-31650000D01*
X35490000Y-32162500D02*
X35160000Y-32402500D01*
X35160000Y-31922500D01*
X35490000Y-32162500D01*
G36*
X35490000Y-32162500D02*
G01*
X35160000Y-32402500D01*
X35160000Y-31922500D01*
X35490000Y-32162500D01*
G37*
D14*
%TO.C,L1*%
X48300000Y-38100000D02*
X48300000Y-45900000D01*
X55700000Y-38100000D02*
X55700000Y-45900000D01*
D11*
%TO.C,Q2*%
X48390000Y-31062500D02*
X48390000Y-30412500D01*
X48390000Y-31062500D02*
X48390000Y-31712500D01*
X51510000Y-31062500D02*
X51510000Y-30412500D01*
X51510000Y-31062500D02*
X51510000Y-31712500D01*
X48440000Y-32225000D02*
X48110000Y-32465000D01*
X48110000Y-31985000D01*
X48440000Y-32225000D01*
G36*
X48440000Y-32225000D02*
G01*
X48110000Y-32465000D01*
X48110000Y-31985000D01*
X48440000Y-32225000D01*
G37*
D12*
%TO.C,SW1*%
X47287500Y-48000000D02*
X47287500Y-54000000D01*
X47287500Y-54000000D02*
X53287500Y-54000000D01*
X53287500Y-48000000D02*
X47287500Y-48000000D01*
X53287500Y-54000000D02*
X53287500Y-48000000D01*
D13*
X44137500Y-48750000D02*
G75*
G02*
X43937500Y-48750000I-100000J0D01*
G01*
X43937500Y-48750000D02*
G75*
G02*
X44137500Y-48750000I100000J0D01*
G01*
D11*
%TO.C,C1*%
X65265000Y-38738748D02*
X65265000Y-39261252D01*
X66735000Y-38738748D02*
X66735000Y-39261252D01*
D12*
%TO.C,LS1*%
X47000000Y-41000000D02*
G75*
G02*
X35000000Y-41000000I-6000000J0D01*
G01*
X35000000Y-41000000D02*
G75*
G02*
X47000000Y-41000000I6000000J0D01*
G01*
D11*
%TO.C,J4*%
X71590000Y-34940000D02*
X71590000Y-35960000D01*
X71590000Y-35960000D02*
X73190000Y-35960000D01*
X71590000Y-44040000D02*
X73190000Y-44040000D01*
X71590000Y-45060000D02*
X71590000Y-44040000D01*
X73190000Y-35960000D02*
X73190000Y-37240000D01*
X73190000Y-42760000D02*
X70300000Y-42760000D01*
X73190000Y-44040000D02*
X73190000Y-42760000D01*
X75840000Y-34940000D02*
X71590000Y-34940000D01*
X75840000Y-45060000D02*
X71590000Y-45060000D01*
X79410000Y-43340000D02*
X79410000Y-36660000D01*
%TO.C,R3*%
X40811911Y-32863526D02*
X40357783Y-32863526D01*
X40811911Y-34333526D02*
X40357783Y-34333526D01*
%TO.C,C4*%
X22261252Y-52265000D02*
X21738748Y-52265000D01*
X22261252Y-53735000D02*
X21738748Y-53735000D01*
%TO.C,R4*%
X43976136Y-32854765D02*
X44430264Y-32854765D01*
X43976136Y-34324765D02*
X44430264Y-34324765D01*
D14*
%TO.C,LED2*%
X47500000Y-54500000D02*
X52500000Y-54500000D01*
X47500000Y-54620000D02*
X47500000Y-54490000D01*
X47500000Y-56220000D02*
X47500000Y-56180000D01*
X47500000Y-57820000D02*
X47500000Y-57780000D01*
X47500000Y-59500000D02*
X47500000Y-59380000D01*
X52500000Y-54500000D02*
X52500000Y-54620000D01*
X52500000Y-56180000D02*
X52500000Y-56220000D01*
X52500000Y-57780000D02*
X52500000Y-57820000D01*
X52500000Y-59380000D02*
X52500000Y-59500000D01*
X52500000Y-59500000D02*
X47500000Y-59500000D01*
D10*
X52810000Y-59240000D02*
X52810000Y-59730000D01*
X52810000Y-59730000D02*
X52810000Y-59800000D01*
X52810000Y-59800000D02*
X52310000Y-59800000D01*
D11*
%TO.C,U1*%
X14000000Y-31000000D02*
X20500000Y-31000000D01*
X14000000Y-49000000D02*
X14000000Y-31000000D01*
X14000000Y-49000000D02*
X20500000Y-49000000D01*
X20000000Y-31000000D02*
X20000000Y-48950000D01*
X33750000Y-31000000D02*
X34000000Y-31000000D01*
X34000000Y-31000000D02*
X34000000Y-49000000D01*
X34000000Y-49000000D02*
X33750000Y-49000000D01*
%TO.C,F1*%
X62397936Y-46090000D02*
X63602064Y-46090000D01*
X62397936Y-47910000D02*
X63602064Y-47910000D01*
%TO.C,J5*%
X25165000Y-23800000D02*
X25165000Y-25500000D01*
X34505000Y-23800000D02*
X34505000Y-25500000D01*
%TO.C,J3*%
X52975000Y-20390000D02*
X52975000Y-32110000D01*
X52975000Y-32110000D02*
X54395000Y-32110000D01*
X54395000Y-32110000D02*
X54395000Y-27610000D01*
X55285000Y-21000000D02*
X55285000Y-26500000D01*
X55285000Y-26500000D02*
X55785000Y-26500000D01*
X55785000Y-21000000D02*
X55285000Y-21000000D01*
X55785000Y-26500000D02*
X55785000Y-21000000D01*
X56785000Y-20390000D02*
X52975000Y-20390000D01*
X56785000Y-20390000D02*
X60595000Y-20390000D01*
X57735000Y-30200000D02*
X58035000Y-29600000D01*
X57785000Y-21000000D02*
X57785000Y-26500000D01*
X57785000Y-26500000D02*
X58285000Y-26500000D01*
X58035000Y-29600000D02*
X58335000Y-30200000D01*
X58285000Y-21000000D02*
X57785000Y-21000000D01*
X58285000Y-26500000D02*
X58285000Y-21000000D01*
X58335000Y-30200000D02*
X57735000Y-30200000D01*
X59175000Y-32110000D02*
X59175000Y-27610000D01*
X60595000Y-20390000D02*
X60595000Y-32110000D01*
X60595000Y-32110000D02*
X59175000Y-32110000D01*
D14*
%TO.C,SW2*%
X56750000Y-48700000D02*
X65550000Y-48700000D01*
X56750000Y-49290000D02*
X56750000Y-48700000D01*
X56750000Y-53300000D02*
X56750000Y-52710000D01*
X56750000Y-53300000D02*
X65550000Y-53300000D01*
X58610000Y-49730000D02*
X63690000Y-49730000D01*
X58610000Y-50120000D02*
X58610000Y-49730000D01*
X58610000Y-52270000D02*
X58610000Y-51880000D01*
X61170000Y-49970000D02*
X61170000Y-49730000D01*
X61170000Y-52270000D02*
X61170000Y-52030000D01*
X61820000Y-50220000D02*
X61820000Y-49730000D01*
X61820000Y-52270000D02*
X61820000Y-51780000D01*
X62290000Y-50430000D02*
X62290000Y-49730000D01*
X62290000Y-52270000D02*
X62290000Y-51570000D01*
X62870000Y-50010000D02*
X62870000Y-49730000D01*
X62870000Y-52270000D02*
X62870000Y-51990000D01*
X63270000Y-49980000D02*
X63270000Y-49730000D01*
X63270000Y-52270000D02*
X63270000Y-52020000D01*
X63690000Y-49730000D02*
X63690000Y-50120000D01*
X63690000Y-51880000D02*
X63690000Y-52270000D01*
X63690000Y-52270000D02*
X58610000Y-52270000D01*
X65550000Y-49290000D02*
X65550000Y-48700000D01*
X65550000Y-53300000D02*
X65550000Y-52710000D01*
%TD*%
M02*
