M48
; DRILL file {KiCad 9.0.2} date 2025-06-03T14:55:09+0200
; FORMAT={-:-/ absolute / inch / decimal}
; #@! TF.CreationDate,2025-06-03T14:55:09+02:00
; #@! TF.GenerationSoftware,Kicad,Pcbnew,9.0.2
; #@! TF.FileFunction,Plated,1,2,PTH
FMAT,2
INCH
; #@! TA.AperFunction,Plated,PTH,ViaDrill
T1C0.0118
; #@! TA.AperFunction,Plated,PTH,ViaDrill
T2C0.0157
; #@! TA.AperFunction,Plated,PTH,ComponentDrill
T3C0.0236
; #@! TA.AperFunction,Plated,PTH,ComponentDrill
T4C0.0315
; #@! TA.AperFunction,Plated,PTH,ComponentDrill
T5C0.0315
; #@! TA.AperFunction,Plated,PTH,ComponentDrill
T6C0.0394
; #@! TA.AperFunction,Plated,PTH,ComponentDrill
T7C0.0394
; #@! TA.AperFunction,Plated,PTH,ComponentDrill
T8C0.0421
%
G90
G05
T1
X0.9035Y-2.0079
X0.9035Y-2.0866
X0.9434Y-2.0851
X0.9449Y-2.2047
X1.0079Y-1.9193
X1.0221Y-2.0063
X1.0315Y-1.4937
X1.0315Y-1.539
X1.0315Y-1.5803
X1.063Y-2.0472
X1.0748Y-1.4937
X1.0748Y-1.539
X1.0748Y-1.5803
X1.1024Y-1.1417
X1.1181Y-1.4937
X1.1181Y-1.539
X1.1181Y-1.5803
X1.126Y-1.9193
X1.1417Y-2.0079
X1.185Y-1.2303
X1.219Y-2.2441
X1.2598Y-1.8775
X1.2992Y-1.811
X1.3031Y-1.9193
X1.3386Y-1.4173
X1.378Y-1.3386
X1.378Y-1.4567
X1.4173Y-1.1811
X1.4173Y-1.9257
X1.4567Y-1.378
X1.4941Y-1.2574
X1.4961Y-1.3386
X1.4961Y-1.811
X1.4961Y-1.8504
X1.5335Y-2.0842
X1.5354Y-1.9291
X1.5354Y-2.0103
X1.5619Y-1.3228
X1.6142Y-1.0236
X1.6338Y-1.3228
X1.6535Y-2.0079
X1.6929Y-1.811
X1.7044Y-1.3224
X1.7762Y-1.3224
X1.8007Y-2.0965
X1.8612Y-1.8872
X1.872Y-2.2441
X1.9685Y-1.9291
X2.0039Y-1.2598
X2.0079Y-1.4173
X2.1063Y-1.122
X2.1654Y-1.2992
X2.1673Y-1.4173
X2.2441Y-1.6929
X2.2835Y-1.7323
X2.3209Y-1.8504
X2.3976Y-1.7717
X2.413Y-2.0588
X2.4409Y-1.6535
X2.4528Y-1.7347
X2.5251Y-2.2441
X2.5984Y-1.498
X2.7165Y-1.7323
X2.8366Y-1.4961
T2
X1.4119Y-2.2441
X1.9685Y-2.2441
X2.0079Y-1.9685
X2.3622Y-1.8898
T5
X1.6142Y-1.4862
X1.6142Y-1.7421
T6
X2.3287Y-2.0079
X2.4075Y-2.0079
X2.4862Y-2.0079
T7
X0.8935Y-0.913
X0.8935Y-1.013
X0.8935Y-1.113
X1.678Y-1.1063
X1.7764Y-1.1063
X2.1864Y-1.1063
X2.2848Y-1.1063
X2.674Y-1.8793
X2.674Y-1.9793
X2.774Y-1.8793
X2.774Y-1.9793
X2.874Y-1.8793
X2.874Y-1.9793
X2.974Y-1.8793
X2.974Y-1.9793
X3.074Y-1.8793
X3.074Y-1.9793
T8
X2.3317Y-1.4354
X2.3317Y-1.5354
X2.3317Y-1.6354
T3
G00X1.0045Y-0.9065
M15
G01X1.0045Y-0.875
M16
G05
G00X1.0045Y-1.077
M15
G01X1.0045Y-1.0337
M16
G05
G00X1.3447Y-0.9065
M15
G01X1.3447Y-0.875
M16
G05
G00X1.3447Y-1.077
M15
G01X1.3447Y-1.0337
M16
G05
T4
G00X2.6033Y-1.1713
M15
G01X2.6033Y-1.2776
M16
G05
G00X2.8455Y-1.0866
M15
G01X2.7392Y-1.0866
M16
G05
G00X2.7392Y-1.3228
M15
G01X2.8455Y-1.3228
M16
G05
T6
G00X2.2441Y-2.0236
M15
G01X2.2441Y-1.9921
M16
G05
G00X2.5709Y-2.0236
M15
G01X2.5709Y-1.9921
M16
G05
M30
