<?xml version="1.0" encoding="UTF-8" standalone="no"?>
<svg
   version="1.1"
   width="70mm"
   height="50mm"
   viewBox="0 0 70.000001 49.999999"
   id="svg111"
   sodipodi:docname="aquarium-lid-F_Paste.svg"
   inkscape:version="1.4 (e7c3feb100, 2024-10-09)"
   xmlns:inkscape="http://www.inkscape.org/namespaces/inkscape"
   xmlns:sodipodi="http://sodipodi.sourceforge.net/DTD/sodipodi-0.dtd"
   xmlns="http://www.w3.org/2000/svg"
   xmlns:svg="http://www.w3.org/2000/svg"
   xmlns:rdf="http://www.w3.org/1999/02/22-rdf-syntax-ns#"
   xmlns:cc="http://creativecommons.org/ns#"
   xmlns:dc="http://purl.org/dc/elements/1.1/">
  <defs
     id="defs111" />
  <sodipodi:namedview
     id="namedview111"
     pagecolor="#505050"
     bordercolor="#eeeeee"
     borderopacity="1"
     inkscape:showpageshadow="0"
     inkscape:pageopacity="0"
     inkscape:pagecheckerboard="0"
     inkscape:deskcolor="#505050"
     inkscape:document-units="mm"
     inkscape:zoom="3.4192249"
     inkscape:cx="184.69098"
     inkscape:cy="133.80226"
     inkscape:window-width="2194"
     inkscape:window-height="1162"
     inkscape:window-x="0"
     inkscape:window-y="0"
     inkscape:window-maximized="1"
     inkscape:current-layer="g112" />
  <title
     id="title1">SVG Image created as aquarium-lid-F_Paste.svg date 2025/05/22 10:41:36 </title>
  <desc
     id="desc1">Image generated by PCBNEW </desc>
  <g
     style="fill:none;stroke:#000000;stroke-width:1;stroke-linecap:round;stroke-linejoin:round;stroke-opacity:1"
     id="g111">
    <g
       id="g112">
      <g
         id="g113"
         transform="translate(-15.025,-15.4375)">
        <g
           style="fill:#000000;fill-opacity:1;stroke:#000000;stroke-linecap:round;stroke-linejoin:round;stroke-opacity:1"
           id="g107">
          <path
             style="fill:#000000;fill-opacity:1;fill-rule:evenodd;stroke:none"
             d="m 55.525,33.6 0.0957,0.019 0.0811,0.0542 0.0542,0.0811 0.019,0.0957 v 0.5 l -0.019,0.0957 -0.0542,0.0811 -0.0811,0.0542 -0.0957,0.019 h -0.95 L 54.4793,34.581 54.3982,34.5268 54.344,34.4457 54.325,34.35 v -0.5 l 0.019,-0.0957 0.0542,-0.0811 0.0811,-0.0542 0.0957,-0.019 z"
             id="path1" />
          <path
             style="fill:#000000;fill-opacity:1;fill-rule:evenodd;stroke:none"
             d="m 55.525,35.5 0.0957,0.019 0.0811,0.0542 0.0542,0.0811 0.019,0.0957 v 0.5 l -0.019,0.0957 -0.0542,0.0811 -0.0811,0.0542 -0.0957,0.019 h -0.95 L 54.4793,36.481 54.3982,36.4268 54.344,36.3457 54.325,36.25 v -0.5 l 0.019,-0.0957 0.0542,-0.0811 0.0811,-0.0542 0.0957,-0.019 z"
             id="path2" />
          <path
             style="fill:#000000;fill-opacity:1;fill-rule:evenodd;stroke:none"
             d="M 36.9,53.675 36.8426,53.6636 36.7939,53.6311 36.7614,53.5824 36.75,53.525 V 52.35 l 0.0114,-0.0574 0.0325,-0.0487 0.0487,-0.0325 L 36.9,52.2 h 0.3 l 0.0574,0.0114 0.0487,0.0325 0.0325,0.0487 0.0114,0.0574 v 1.175 l -0.0114,0.0574 -0.0325,0.0487 -0.0487,0.0325 L 37.2,53.675 Z"
             id="path3" />
          <path
             style="fill:#000000;fill-opacity:1;fill-rule:evenodd;stroke:none"
             d="M 38.8,53.675 38.7426,53.6636 38.6939,53.6311 38.6614,53.5824 38.65,53.525 V 52.35 l 0.0114,-0.0574 0.0325,-0.0487 0.0487,-0.0325 L 38.8,52.2 h 0.3 l 0.0574,0.0114 0.0487,0.0325 0.0325,0.0487 0.0114,0.0574 v 1.175 l -0.0114,0.0574 -0.0325,0.0487 -0.0487,0.0325 L 39.1,53.675 Z"
             id="path4" />
          <path
             style="fill:#000000;fill-opacity:1;fill-rule:evenodd;stroke:none"
             d="M 37.85,51.8 37.7926,51.7886 37.7439,51.7561 37.7114,51.7074 37.7,51.65 v -1.175 l 0.0114,-0.0574 0.0325,-0.0487 0.0487,-0.0325 0.0574,-0.0114 h 0.3 l 0.0574,0.0114 0.0487,0.0325 0.0325,0.0487 0.0114,0.0574 v 1.175 l -0.0114,0.0574 -0.0325,0.0487 -0.0487,0.0325 L 38.15,51.8 Z"
             id="path5" />
          <path
             style="fill:#000000;fill-opacity:1;fill-rule:evenodd;stroke:none"
             d="M 35.55,49.425 35.4543,49.406 35.3732,49.3518 35.319,49.2707 35.3,49.175 V 48.65 L 35.319,48.5543 35.3732,48.4732 35.4543,48.419 35.55,48.4 h 0.9 l 0.0957,0.019 0.0811,0.0542 0.0542,0.0811 0.019,0.0957 v 0.525 l -0.019,0.0957 -0.0542,0.0811 -0.0811,0.0542 -0.0957,0.019 z"
             id="path6" />
          <path
             style="fill:#000000;fill-opacity:1;fill-rule:evenodd;stroke:none"
             d="M 35.55,47.6 35.4543,47.581 35.3732,47.5268 35.319,47.4457 35.3,47.35 v -0.525 l 0.019,-0.0957 0.0542,-0.0811 0.0811,-0.0542 0.0957,-0.019 h 0.9 l 0.0957,0.019 0.0811,0.0542 0.0542,0.0811 0.019,0.0957 V 47.35 L 36.681,47.4457 36.6268,47.5268 36.5457,47.581 36.45,47.6 Z"
             id="path7" />
          <path
             style="fill:#000000;fill-opacity:1;fill-rule:evenodd;stroke:none"
             d="m 69.7875,59.15 h -1.5 v -1.1 h 1.5 z"
             id="path8" />
          <path
             style="fill:#000000;fill-opacity:1;fill-rule:evenodd;stroke:none"
             d="m 69.7875,57.55 h -1.5 v -1.1 h 1.5 z"
             id="path9" />
          <path
             style="fill:#000000;fill-opacity:1;fill-rule:evenodd;stroke:none"
             d="m 69.7875,55.95 h -1.5 v -1.1 h 1.5 z"
             id="path10" />
          <path
             style="fill:#000000;fill-opacity:1;fill-rule:evenodd;stroke:none"
             d="m 64.8875,55.95 h -1.5 v -1.1 h 1.5 z"
             id="path11" />
          <path
             style="fill:#000000;fill-opacity:1;fill-rule:evenodd;stroke:none"
             d="m 64.8875,57.55 h -1.5 v -1.1 h 1.5 z"
             id="path12" />
          <path
             style="fill:#000000;fill-opacity:1;fill-rule:evenodd;stroke:none"
             d="m 64.8875,59.15 h -1.5 v -1.1 h 1.5 z"
             id="path13" />
          <path
             style="fill:#000000;fill-opacity:1;fill-rule:evenodd;stroke:none"
             d="m 56.55,46.525 0.019,-0.0957 0.0542,-0.0811 0.0811,-0.0542 0.0957,-0.019 h 0.5 l 0.0957,0.019 0.0811,0.0542 0.0542,0.0811 0.019,0.0957 v 0.95 L 57.531,47.5707 57.4768,47.6518 57.3957,47.706 57.3,47.725 H 56.8 L 56.7043,47.706 56.6232,47.6518 56.569,47.5707 56.55,47.475 Z"
             id="path14" />
          <path
             style="fill:#000000;fill-opacity:1;fill-rule:evenodd;stroke:none"
             d="m 58.45,46.525 0.019,-0.0957 0.0542,-0.0811 0.0811,-0.0542 0.0957,-0.019 h 0.5 l 0.0957,0.019 0.0811,0.0542 0.0542,0.0811 0.019,0.0957 v 0.95 L 59.431,47.5707 59.3768,47.6518 59.2957,47.706 59.2,47.725 H 58.7 L 58.6043,47.706 58.5232,47.6518 58.469,47.5707 58.45,47.475 Z"
             id="path15" />
          <path
             style="fill:#000000;fill-opacity:1;fill-rule:evenodd;stroke:none"
             d="M 23.425,55.45 23.406,55.5457 23.3518,55.6268 23.2707,55.681 23.175,55.7 H 22.65 L 22.5543,55.681 22.4732,55.6268 22.419,55.5457 22.4,55.45 v -0.9 L 22.419,54.4543 22.4732,54.3732 22.5543,54.319 22.65,54.3 h 0.525 l 0.0957,0.019 0.0811,0.0542 0.0542,0.0811 0.019,0.0957 z"
             id="path16" />
          <path
             style="fill:#000000;fill-opacity:1;fill-rule:evenodd;stroke:none"
             d="M 21.6,55.45 21.581,55.5457 21.5268,55.6268 21.4457,55.681 21.35,55.7 H 20.825 L 20.7293,55.681 20.6482,55.6268 20.594,55.5457 20.575,55.45 v -0.9 l 0.019,-0.0957 0.0542,-0.0811 0.0811,-0.0542 0.0957,-0.019 h 0.525 l 0.0957,0.019 0.0811,0.0542 0.0542,0.0811 0.019,0.0957 z"
             id="path17" />
          <path
             style="fill:#000000;fill-opacity:1;fill-rule:evenodd;stroke:none"
             d="m 37.65,21.75 0.0957,0.019 0.0811,0.0542 0.0542,0.0811 L 37.9,22 v 2 l -0.019,0.0957 -0.0542,0.0811 -0.0811,0.0542 -0.0957,0.019 h -1.3 L 36.2543,24.231 36.1732,24.1768 36.119,24.0957 36.1,24 v -2 l 0.019,-0.0957 0.0542,-0.0811 0.0811,-0.0542 0.0957,-0.019 z"
             id="path18" />
          <path
             style="fill:#000000;fill-opacity:1;fill-rule:evenodd;stroke:none"
             d="m 37.65,25.75 0.0957,0.019 0.0811,0.0542 0.0542,0.0811 L 37.9,26 v 2 l -0.019,0.0957 -0.0542,0.0811 -0.0811,0.0542 -0.0957,0.019 h -1.3 L 36.2543,28.231 36.1732,28.1768 36.119,28.0957 36.1,28 v -2 l 0.019,-0.0957 0.0542,-0.0811 0.0811,-0.0542 0.0957,-0.019 z"
             id="path19" />
          <path
             style="fill:#000000;fill-opacity:1;fill-rule:evenodd;stroke:none"
             d="m 50.65,21.75 0.0957,0.019 0.0811,0.0542 0.0542,0.0811 L 50.9,22 v 2 l -0.019,0.0957 -0.0542,0.0811 -0.0811,0.0542 -0.0957,0.019 h -1.3 L 49.2543,24.231 49.1732,24.1768 49.119,24.0957 49.1,24 v -2 l 0.019,-0.0957 0.0542,-0.0811 0.0811,-0.0542 0.0957,-0.019 z"
             id="path20" />
          <path
             style="fill:#000000;fill-opacity:1;fill-rule:evenodd;stroke:none"
             d="m 50.65,25.75 0.0957,0.019 0.0811,0.0542 0.0542,0.0811 L 50.9,26 v 2 l -0.019,0.0957 -0.0542,0.0811 -0.0811,0.0542 -0.0957,0.019 h -1.3 L 49.2543,28.231 49.1732,28.1768 49.119,28.0957 49.1,28 v -2 l 0.019,-0.0957 0.0542,-0.0811 0.0811,-0.0542 0.0957,-0.019 z"
             id="path21" />
          <path
             style="fill:#000000;fill-opacity:1;fill-rule:evenodd;stroke:none"
             d="m 36.6125,59.15 h -1.5 v -1.1 h 1.5 z"
             id="path22" />
          <path
             style="fill:#000000;fill-opacity:1;fill-rule:evenodd;stroke:none"
             d="m 36.6125,57.55 h -1.5 v -1.1 h 1.5 z"
             id="path23" />
          <path
             style="fill:#000000;fill-opacity:1;fill-rule:evenodd;stroke:none"
             d="m 36.6125,55.95 h -1.5 v -1.1 h 1.5 z"
             id="path24" />
          <path
             style="fill:#000000;fill-opacity:1;fill-rule:evenodd;stroke:none"
             d="m 31.7125,55.95 h -1.5 v -1.1 h 1.5 z"
             id="path25" />
          <path
             style="fill:#000000;fill-opacity:1;fill-rule:evenodd;stroke:none"
             d="m 31.7125,57.55 h -1.5 v -1.1 h 1.5 z"
             id="path26" />
          <path
             style="fill:#000000;fill-opacity:1;fill-rule:evenodd;stroke:none"
             d="m 31.7125,59.15 h -1.5 v -1.1 h 1.5 z"
             id="path27" />
          <path
             style="fill:#000000;fill-opacity:1;fill-rule:evenodd;stroke:none"
             d="M 23.45,51.475 23.431,51.5707 23.3768,51.6518 23.2957,51.706 23.2,51.725 H 22.7 L 22.6043,51.706 22.5232,51.6518 22.469,51.5707 22.45,51.475 v -0.95 l 0.019,-0.0957 0.0542,-0.0811 0.0811,-0.0542 0.0957,-0.019 h 0.5 l 0.0957,0.019 0.0811,0.0542 0.0542,0.0811 0.019,0.0957 z"
             id="path28" />
          <path
             style="fill:#000000;fill-opacity:1;fill-rule:evenodd;stroke:none"
             d="M 21.55,51.475 21.531,51.5707 21.4768,51.6518 21.3957,51.706 21.3,51.725 H 20.8 L 20.7043,51.706 20.6232,51.6518 20.569,51.5707 20.55,51.475 v -0.95 l 0.019,-0.0957 0.0542,-0.0811 0.0811,-0.0542 0.0957,-0.019 h 0.5 l 0.0957,0.019 0.0811,0.0542 0.0542,0.0811 0.019,0.0957 z"
             id="path29" />
          <path
             style="fill:#000000;fill-opacity:1;fill-rule:evenodd;stroke:none"
             d="m 42.65,47.75 0.0957,0.019 0.0811,0.0542 0.0542,0.0811 L 42.9,48 v 2 l -0.019,0.0957 -0.0542,0.0811 -0.0811,0.0542 -0.0957,0.019 h -1.3 L 41.2543,50.231 41.1732,50.1768 41.119,50.0957 41.1,50 v -2 l 0.019,-0.0957 0.0542,-0.0811 0.0811,-0.0542 0.0957,-0.019 z"
             id="path30" />
          <path
             style="fill:#000000;fill-opacity:1;fill-rule:evenodd;stroke:none"
             d="m 42.65,51.75 0.0957,0.019 0.0811,0.0542 0.0542,0.0811 L 42.9,52 v 2 l -0.019,0.0957 -0.0542,0.0811 -0.0811,0.0542 -0.0957,0.019 h -1.3 L 41.2543,54.231 41.1732,54.1768 41.119,54.0957 41.1,54 v -2 l 0.019,-0.0957 0.0542,-0.0811 0.0811,-0.0542 0.0957,-0.019 z"
             id="path31" />
          <path
             style="fill:#000000;fill-opacity:1;fill-rule:evenodd;stroke:none"
             d="M 35.9,32.675 35.8426,32.6636 35.7939,32.6311 35.7614,32.5824 35.75,32.525 V 31.35 l 0.0114,-0.0574 0.0325,-0.0487 0.0487,-0.0325 L 35.9,31.2 h 0.3 l 0.0574,0.0114 0.0487,0.0325 0.0325,0.0487 0.0114,0.0574 v 1.175 l -0.0114,0.0574 -0.0325,0.0487 -0.0487,0.0325 L 36.2,32.675 Z"
             id="path32" />
          <path
             style="fill:#000000;fill-opacity:1;fill-rule:evenodd;stroke:none"
             d="M 37.8,32.675 37.7426,32.6636 37.6939,32.6311 37.6614,32.5824 37.65,32.525 V 31.35 l 0.0114,-0.0574 0.0325,-0.0487 0.0487,-0.0325 L 37.8,31.2 h 0.3 l 0.0574,0.0114 0.0487,0.0325 0.0325,0.0487 0.0114,0.0574 v 1.175 l -0.0114,0.0574 -0.0325,0.0487 -0.0487,0.0325 L 38.1,32.675 Z"
             id="path33" />
          <path
             style="fill:#000000;fill-opacity:1;fill-rule:evenodd;stroke:none"
             d="M 36.85,30.8 36.7926,30.7886 36.7439,30.7561 36.7114,30.7074 36.7,30.65 v -1.175 l 0.0114,-0.0574 0.0325,-0.0487 0.0487,-0.0325 0.0574,-0.0114 h 0.3 l 0.0574,0.0114 0.0487,0.0325 0.0325,0.0487 0.0114,0.0574 v 1.175 l -0.0114,0.0574 -0.0325,0.0487 -0.0487,0.0325 L 37.15,30.8 Z"
             id="path34" />
          <path
             style="fill:#000000;fill-opacity:1;fill-rule:evenodd;stroke:none"
             d="m 48.5,37.55 h 7 v 3.5 h -7 z"
             id="path35" />
          <path
             style="fill:#000000;fill-opacity:1;fill-rule:evenodd;stroke:none"
             d="m 48.5,42.95 h 7 v 3.5 h -7 z"
             id="path36" />
          <path
             style="fill:#000000;fill-opacity:1;fill-rule:evenodd;stroke:none"
             d="M 48.85,32.7375 48.7926,32.7261 48.7439,32.6936 48.7114,32.6449 48.7,32.5875 v -1.175 l 0.0114,-0.0574 0.0325,-0.0487 0.0487,-0.0325 0.0574,-0.0114 h 0.3 l 0.0574,0.0114 0.0487,0.0325 0.0325,0.0487 0.0114,0.0574 v 1.175 l -0.0114,0.0574 -0.0325,0.0487 -0.0487,0.0325 -0.0574,0.0114 z"
             id="path37" />
          <path
             style="fill:#000000;fill-opacity:1;fill-rule:evenodd;stroke:none"
             d="M 50.75,32.7375 50.6926,32.7261 50.6439,32.6936 50.6114,32.6449 50.6,32.5875 v -1.175 l 0.0114,-0.0574 0.0325,-0.0487 0.0487,-0.0325 0.0574,-0.0114 h 0.3 l 0.0574,0.0114 0.0487,0.0325 0.0325,0.0487 0.0114,0.0574 v 1.175 l -0.0114,0.0574 -0.0325,0.0487 -0.0487,0.0325 -0.0574,0.0114 z"
             id="path38" />
          <path
             style="fill:#000000;fill-opacity:1;fill-rule:evenodd;stroke:none"
             d="M 49.8,30.8625 49.7426,30.8511 49.6939,30.8186 49.6614,30.7699 49.65,30.7125 v -1.175 l 0.0114,-0.0574 0.0325,-0.0487 0.0487,-0.0325 0.0574,-0.0114 h 0.3 l 0.0574,0.0114 0.0487,0.0325 0.0325,0.0487 0.0114,0.0574 v 1.175 l -0.0114,0.0574 -0.0325,0.0487 -0.0487,0.0325 -0.0574,0.0114 z"
             id="path39" />
          <path
             style="fill:#000000;fill-opacity:1;fill-rule:evenodd;stroke:none"
             d="m 44.6875,49.45 v -1.4 h 2.1 v 1.4 z"
             id="path40" />
          <path
             style="fill:#000000;fill-opacity:1;fill-rule:evenodd;stroke:none"
             d="m 44.6875,53.95 v -1.4 h 2.1 v 1.4 z"
             id="path41" />
          <path
             style="fill:#000000;fill-opacity:1;fill-rule:evenodd;stroke:none"
             d="m 53.7875,49.45 v -1.4 h 2.1 v 1.4 z"
             id="path42" />
          <path
             style="fill:#000000;fill-opacity:1;fill-rule:evenodd;stroke:none"
             d="m 53.7875,53.95 v -1.4 h 2.1 v 1.4 z"
             id="path43" />
          <path
             style="fill:#000000;fill-opacity:1;fill-rule:evenodd;stroke:none"
             d="m 66.475,37.55 0.0957,0.019 0.0811,0.0542 0.0542,0.0811 0.019,0.0957 v 0.5 l -0.019,0.0957 -0.0542,0.0811 -0.0811,0.0542 -0.0957,0.019 h -0.95 L 65.4293,38.531 65.3482,38.4768 65.294,38.3957 65.275,38.3 v -0.5 l 0.019,-0.0957 0.0542,-0.0811 0.0811,-0.0542 0.0957,-0.019 z"
             id="path44" />
          <path
             style="fill:#000000;fill-opacity:1;fill-rule:evenodd;stroke:none"
             d="m 66.475,39.45 0.0957,0.019 0.0811,0.0542 0.0542,0.0811 0.019,0.0957 v 0.5 l -0.019,0.0957 -0.0542,0.0811 -0.0811,0.0542 -0.0957,0.019 h -0.95 L 65.4293,40.431 65.3482,40.3768 65.294,40.2957 65.275,40.2 v -0.5 l 0.019,-0.0957 0.0542,-0.0811 0.0811,-0.0542 0.0957,-0.019 z"
             id="path45" />
          <path
             style="fill:#000000;fill-opacity:1;fill-rule:evenodd;stroke:none"
             d="M 70.55,42.5 70.4543,42.481 70.3732,42.4268 70.319,42.3457 70.3,42.25 v -0.5 L 70.319,41.6543 70.3732,41.5732 70.4543,41.519 70.55,41.5 h 3 l 0.0957,0.019 0.0811,0.0542 0.0542,0.0811 0.019,0.0957 v 0.5 L 73.781,42.3457 73.7268,42.4268 73.6457,42.481 73.55,42.5 Z"
             id="path46" />
          <path
             style="fill:#000000;fill-opacity:1;fill-rule:evenodd;stroke:none"
             d="M 70.55,40.5 70.4543,40.481 70.3732,40.4268 70.319,40.3457 70.3,40.25 v -0.5 L 70.319,39.6543 70.3732,39.5732 70.4543,39.519 70.55,39.5 h 3 l 0.0957,0.019 0.0811,0.0542 0.0542,0.0811 0.019,0.0957 v 0.5 L 73.781,40.3457 73.7268,40.4268 73.6457,40.481 73.55,40.5 Z"
             id="path47" />
          <path
             style="fill:#000000;fill-opacity:1;fill-rule:evenodd;stroke:none"
             d="M 70.55,38.5 70.4543,38.481 70.3732,38.4268 70.319,38.3457 70.3,38.25 v -0.5 L 70.319,37.6543 70.3732,37.5732 70.4543,37.519 70.55,37.5 h 3 l 0.0957,0.019 0.0811,0.0542 0.0542,0.0811 0.019,0.0957 v 0.5 L 73.781,38.3457 73.7268,38.4268 73.6457,38.481 73.55,38.5 Z"
             id="path48" />
          <path
             style="fill:#000000;fill-opacity:1;fill-rule:evenodd;stroke:none"
             d="M 76.35,45.1 76.2543,45.081 76.1732,45.0268 76.119,44.9457 76.1,44.85 v -1 L 76.119,43.7543 76.1732,43.6732 76.2543,43.619 76.35,43.6 h 2.9 l 0.0957,0.019 0.0811,0.0542 0.0542,0.0811 0.019,0.0957 v 1 L 79.481,44.9457 79.4268,45.0268 79.3457,45.081 79.25,45.1 Z"
             id="path49" />
          <path
             style="fill:#000000;fill-opacity:1;fill-rule:evenodd;stroke:none"
             d="M 76.35,36.4 76.2543,36.381 76.1732,36.3268 76.119,36.2457 76.1,36.15 v -1 L 76.119,35.0543 76.1732,34.9732 76.2543,34.919 76.35,34.9 h 2.9 l 0.0957,0.019 0.0811,0.0542 0.0542,0.0811 0.019,0.0957 v 1 L 79.481,36.2457 79.4268,36.3268 79.3457,36.381 79.25,36.4 Z"
             id="path50" />
          <path
             style="fill:#000000;fill-opacity:1;fill-rule:evenodd;stroke:none"
             d="m 42.0098,34.0485 -0.019,0.0957 -0.0542,0.0811 -0.0811,0.0542 -0.0957,0.019 h -0.525 l -0.0956,-0.019 -0.0811,-0.0542 -0.0542,-0.0811 -0.0191,-0.0957 v -0.9 l 0.0191,-0.0956 0.0542,-0.0812 0.0811,-0.0541 0.0956,-0.0191 h 0.525 l 0.0957,0.0191 0.0811,0.0541 0.0542,0.0812 0.019,0.0956 z"
             id="path51" />
          <path
             style="fill:#000000;fill-opacity:1;fill-rule:evenodd;stroke:none"
             d="m 40.1848,34.0485 -0.019,0.0957 -0.0542,0.0811 -0.0811,0.0542 -0.0957,0.019 h -0.525 l -0.0956,-0.019 -0.0811,-0.0542 -0.0542,-0.0811 -0.0191,-0.0957 v -0.9 l 0.0191,-0.0956 0.0542,-0.0812 0.0811,-0.0541 0.0956,-0.0191 h 0.525 l 0.0957,0.0191 0.0811,0.0541 0.0542,0.0812 0.019,0.0956 z"
             id="path52" />
          <path
             style="fill:#000000;fill-opacity:1;fill-rule:evenodd;stroke:none"
             d="M 23.45,53.475 23.431,53.5707 23.3768,53.6518 23.2957,53.706 23.2,53.725 H 22.7 L 22.6043,53.706 22.5232,53.6518 22.469,53.5707 22.45,53.475 v -0.95 l 0.019,-0.0957 0.0542,-0.0811 0.0811,-0.0542 0.0957,-0.019 h 0.5 l 0.0957,0.019 0.0811,0.0542 0.0542,0.0811 0.019,0.0957 z"
             id="path53" />
          <path
             style="fill:#000000;fill-opacity:1;fill-rule:evenodd;stroke:none"
             d="M 21.55,53.475 21.531,53.5707 21.4768,53.6518 21.3957,53.706 21.3,53.725 H 20.8 L 20.7043,53.706 20.6232,53.6518 20.569,53.5707 20.55,53.475 v -0.95 l 0.019,-0.0957 0.0542,-0.0811 0.0811,-0.0542 0.0957,-0.019 h 0.5 l 0.0957,0.019 0.0811,0.0542 0.0542,0.0811 0.019,0.0957 z"
             id="path54" />
          <path
             style="fill:#000000;fill-opacity:1;fill-rule:evenodd;stroke:none"
             d="m 42.7782,33.1398 0.019,-0.0957 0.0542,-0.0811 0.0811,-0.0542 0.0957,-0.019 h 0.525 l 0.0957,0.019 0.0811,0.0542 0.0542,0.0811 0.019,0.0957 v 0.9 l -0.019,0.0956 -0.0542,0.0811 -0.0811,0.0542 -0.0957,0.0191 h -0.525 l -0.0957,-0.0191 -0.0811,-0.0542 -0.0542,-0.0811 -0.019,-0.0956 z"
             id="path55" />
          <path
             style="fill:#000000;fill-opacity:1;fill-rule:evenodd;stroke:none"
             d="m 44.6032,33.1398 0.019,-0.0957 0.0542,-0.0811 0.0811,-0.0542 0.0957,-0.019 h 0.525 l 0.0957,0.019 0.0811,0.0542 0.0542,0.0811 0.019,0.0957 v 0.9 l -0.019,0.0956 -0.0542,0.0811 -0.0811,0.0542 -0.0957,0.0191 h -0.525 l -0.0957,-0.0191 -0.0811,-0.0542 -0.0542,-0.0811 -0.019,-0.0956 z"
             id="path56" />
          <path
             style="fill:#000000;fill-opacity:1;fill-rule:evenodd;stroke:none"
             d="m 53.2,59.15 h -1.5 v -1.1 h 1.5 z"
             id="path57" />
          <path
             style="fill:#000000;fill-opacity:1;fill-rule:evenodd;stroke:none"
             d="m 53.2,57.55 h -1.5 v -1.1 h 1.5 z"
             id="path58" />
          <path
             style="fill:#000000;fill-opacity:1;fill-rule:evenodd;stroke:none"
             d="m 53.2,55.95 h -1.5 v -1.1 h 1.5 z"
             id="path59" />
          <path
             style="fill:#000000;fill-opacity:1;fill-rule:evenodd;stroke:none"
             d="m 48.3,55.95 h -1.5 v -1.1 h 1.5 z"
             id="path60" />
          <path
             style="fill:#000000;fill-opacity:1;fill-rule:evenodd;stroke:none"
             d="m 48.3,57.55 h -1.5 v -1.1 h 1.5 z"
             id="path61" />
          <path
             style="fill:#000000;fill-opacity:1;fill-rule:evenodd;stroke:none"
             d="m 48.3,59.15 h -1.5 v -1.1 h 1.5 z"
             id="path62" />
          <path
             style="fill:#000000;fill-opacity:1;fill-rule:evenodd;stroke:none"
             d="m 21.55,49.5 h -0.9 V 48 h 0.9 z"
             id="path63" />
          <path
             style="fill:#000000;fill-opacity:1;fill-rule:evenodd;stroke:none"
             d="m 23.05,49.5 h -0.9 V 48 h 0.9 z"
             id="path64" />
          <path
             style="fill:#000000;fill-opacity:1;fill-rule:evenodd;stroke:none"
             d="m 24.55,49.5 h -0.9 V 48 h 0.9 z"
             id="path65" />
          <path
             style="fill:#000000;fill-opacity:1;fill-rule:evenodd;stroke:none"
             d="m 26.05,49.5 h -0.9 V 48 h 0.9 z"
             id="path66" />
          <path
             style="fill:#000000;fill-opacity:1;fill-rule:evenodd;stroke:none"
             d="m 27.55,49.5 h -0.9 V 48 h 0.9 z"
             id="path67" />
          <path
             style="fill:#000000;fill-opacity:1;fill-rule:evenodd;stroke:none"
             d="m 29.05,49.5 h -0.9 V 48 h 0.9 z"
             id="path68" />
          <path
             style="fill:#000000;fill-opacity:1;fill-rule:evenodd;stroke:none"
             d="m 30.55,49.5 h -0.9 V 48 h 0.9 z"
             id="path69" />
          <path
             style="fill:#000000;fill-opacity:1;fill-rule:evenodd;stroke:none"
             d="m 32.05,49.5 h -0.9 V 48 h 0.9 z"
             id="path70" />
          <path
             style="fill:#000000;fill-opacity:1;fill-rule:evenodd;stroke:none"
             d="m 33.55,49.5 h -0.9 V 48 h 0.9 z"
             id="path71" />
          <path
             style="fill:#000000;fill-opacity:1;fill-rule:evenodd;stroke:none"
             d="m 32.65,30.5 h 0.9 V 32 h -0.9 z"
             id="path72" />
          <path
             style="fill:#000000;fill-opacity:1;fill-rule:evenodd;stroke:none"
             d="m 31.15,30.5 h 0.9 V 32 h -0.9 z"
             id="path73" />
          <path
             style="fill:#000000;fill-opacity:1;fill-rule:evenodd;stroke:none"
             d="m 29.65,30.5 h 0.9 V 32 h -0.9 z"
             id="path74" />
          <path
             style="fill:#000000;fill-opacity:1;fill-rule:evenodd;stroke:none"
             d="m 28.15,30.5 h 0.9 V 32 h -0.9 z"
             id="path75" />
          <path
             style="fill:#000000;fill-opacity:1;fill-rule:evenodd;stroke:none"
             d="m 26.65,30.5 h 0.9 V 32 h -0.9 z"
             id="path76" />
          <path
             style="fill:#000000;fill-opacity:1;fill-rule:evenodd;stroke:none"
             d="m 25.15,30.5 h 0.9 V 32 h -0.9 z"
             id="path77" />
          <path
             style="fill:#000000;fill-opacity:1;fill-rule:evenodd;stroke:none"
             d="m 23.65,30.5 h 0.9 V 32 h -0.9 z"
             id="path78" />
          <path
             style="fill:#000000;fill-opacity:1;fill-rule:evenodd;stroke:none"
             d="m 22.15,30.5 h 0.9 V 32 h -0.9 z"
             id="path79" />
          <path
             style="fill:#000000;fill-opacity:1;fill-rule:evenodd;stroke:none"
             d="m 20.65,30.5 h 0.9 V 32 h -0.9 z"
             id="path80" />
          <path
             style="fill:#000000;fill-opacity:1;fill-rule:evenodd;stroke:none"
             d="m 25.85,39.79 h 0.7 v 0.7 h -0.7 z"
             id="path81" />
          <path
             style="fill:#000000;fill-opacity:1;fill-rule:evenodd;stroke:none"
             d="m 26.95,39.79 h 0.7 v 0.7 h -0.7 z"
             id="path82" />
          <path
             style="fill:#000000;fill-opacity:1;fill-rule:evenodd;stroke:none"
             d="m 28.05,39.79 h 0.7 v 0.7 h -0.7 z"
             id="path83" />
          <path
             style="fill:#000000;fill-opacity:1;fill-rule:evenodd;stroke:none"
             d="m 25.85,38.74 h 0.7 v 0.7 h -0.7 z"
             id="path84" />
          <path
             style="fill:#000000;fill-opacity:1;fill-rule:evenodd;stroke:none"
             d="m 26.95,38.74 h 0.7 v 0.7 h -0.7 z"
             id="path85" />
          <path
             style="fill:#000000;fill-opacity:1;fill-rule:evenodd;stroke:none"
             d="m 28.05,38.74 h 0.7 v 0.7 h -0.7 z"
             id="path86" />
          <path
             style="fill:#000000;fill-opacity:1;fill-rule:evenodd;stroke:none"
             d="m 25.85,37.59 h 0.7 v 0.7 h -0.7 z"
             id="path87" />
          <path
             style="fill:#000000;fill-opacity:1;fill-rule:evenodd;stroke:none"
             d="m 26.95,37.59 h 0.7 v 0.7 h -0.7 z"
             id="path88" />
          <path
             style="fill:#000000;fill-opacity:1;fill-rule:evenodd;stroke:none"
             d="m 28.05,37.59 h 0.7 v 0.7 h -0.7 z"
             id="path89" />
          <path
             style="fill:#000000;fill-opacity:1;fill-rule:evenodd;stroke:none"
             d="m 60.975,46.375 0.019,-0.0957 0.0542,-0.0811 0.0811,-0.0542 0.0957,-0.019 h 0.75 l 0.0957,0.019 0.0811,0.0542 0.0542,0.0811 0.019,0.0957 v 1.25 l -0.019,0.0957 -0.0542,0.0811 -0.0811,0.0542 -0.0957,0.019 h -0.75 L 61.1293,47.856 61.0482,47.8018 60.994,47.7207 60.975,47.625 Z"
             id="path90" />
          <path
             style="fill:#000000;fill-opacity:1;fill-rule:evenodd;stroke:none"
             d="m 63.775,46.375 0.019,-0.0957 0.0542,-0.0811 0.0811,-0.0542 0.0957,-0.019 h 0.75 l 0.0957,0.019 0.0811,0.0542 0.0542,0.0811 0.019,0.0957 v 1.25 l -0.019,0.0957 -0.0542,0.0811 -0.0811,0.0542 -0.0957,0.019 h -0.75 L 63.9293,47.856 63.8482,47.8018 63.794,47.7207 63.775,47.625 Z"
             id="path91" />
          <path
             style="fill:#000000;fill-opacity:1;fill-rule:evenodd;stroke:none"
             d="m 33.335,27.805 -0.0114,0.0574 -0.0325,0.0487 -0.0487,0.0325 -0.0574,0.0114 h -0.3 L 32.8276,27.9436 32.7789,27.9111 32.7464,27.8624 32.735,27.805 v -0.85 l 0.0114,-0.0574 0.0325,-0.0487 0.0487,-0.0325 0.0574,-0.0114 h 0.3 l 0.0574,0.0114 0.0487,0.0325 0.0325,0.0487 0.0114,0.0574 z"
             id="path92" />
          <path
             style="fill:#000000;fill-opacity:1;fill-rule:evenodd;stroke:none"
             d="m 32.535,27.805 -0.0114,0.0574 -0.0325,0.0487 -0.0487,0.0325 -0.0574,0.0114 h -0.3 L 32.0276,27.9436 31.9789,27.9111 31.9464,27.8624 31.935,27.805 v -0.85 l 0.0114,-0.0574 0.0325,-0.0487 0.0487,-0.0325 0.0574,-0.0114 h 0.3 l 0.0574,0.0114 0.0487,0.0325 0.0325,0.0487 0.0114,0.0574 z"
             id="path93" />
          <path
             style="fill:#000000;fill-opacity:1;fill-rule:evenodd;stroke:none"
             d="M 31.235,27.88 31.2293,27.9087 31.213,27.933 31.1887,27.9493 31.16,27.955 H 31.01 L 30.9813,27.9493 30.957,27.933 30.9407,27.9087 30.935,27.88 v -1 L 30.9407,26.8513 30.957,26.827 30.9813,26.8107 31.01,26.805 h 0.15 l 0.0287,0.0057 0.0243,0.0163 0.0163,0.0243 0.0057,0.0287 z"
             id="path94" />
          <path
             style="fill:#000000;fill-opacity:1;fill-rule:evenodd;stroke:none"
             d="M 30.235,27.88 30.2293,27.9087 30.213,27.933 30.1887,27.9493 30.16,27.955 H 30.01 L 29.9813,27.9493 29.957,27.933 29.9407,27.9087 29.935,27.88 v -1 L 29.9407,26.8513 29.957,26.827 29.9813,26.8107 30.01,26.805 h 0.15 l 0.0287,0.0057 0.0243,0.0163 0.0163,0.0243 0.0057,0.0287 z"
             id="path95" />
          <path
             style="fill:#000000;fill-opacity:1;fill-rule:evenodd;stroke:none"
             d="M 29.735,27.88 29.7293,27.9087 29.713,27.933 29.6887,27.9493 29.66,27.955 H 29.51 L 29.4813,27.9493 29.457,27.933 29.4407,27.9087 29.435,27.88 v -1 L 29.4407,26.8513 29.457,26.827 29.4813,26.8107 29.51,26.805 h 0.15 l 0.0287,0.0057 0.0243,0.0163 0.0163,0.0243 0.0057,0.0287 z"
             id="path96" />
          <path
             style="fill:#000000;fill-opacity:1;fill-rule:evenodd;stroke:none"
             d="M 28.735,27.88 28.7293,27.9087 28.713,27.933 28.6887,27.9493 28.66,27.955 H 28.51 L 28.4813,27.9493 28.457,27.933 28.4407,27.9087 28.435,27.88 v -1 L 28.4407,26.8513 28.457,26.827 28.4813,26.8107 28.51,26.805 h 0.15 l 0.0287,0.0057 0.0243,0.0163 0.0163,0.0243 0.0057,0.0287 z"
             id="path97" />
          <path
             style="fill:#000000;fill-opacity:1;fill-rule:evenodd;stroke:none"
             d="m 27.735,27.805 -0.0114,0.0574 -0.0325,0.0487 -0.0487,0.0325 -0.0574,0.0114 h -0.3 L 27.2276,27.9436 27.1789,27.9111 27.1464,27.8624 27.135,27.805 v -0.85 l 0.0114,-0.0574 0.0325,-0.0487 0.0487,-0.0325 0.0574,-0.0114 h 0.3 l 0.0574,0.0114 0.0487,0.0325 0.0325,0.0487 0.0114,0.0574 z"
             id="path98" />
          <path
             style="fill:#000000;fill-opacity:1;fill-rule:evenodd;stroke:none"
             d="m 26.935,27.805 -0.0114,0.0574 -0.0325,0.0487 -0.0487,0.0325 -0.0574,0.0114 h -0.3 L 26.4276,27.9436 26.3789,27.9111 26.3464,27.8624 26.335,27.805 v -0.85 l 0.0114,-0.0574 0.0325,-0.0487 0.0487,-0.0325 0.0574,-0.0114 h 0.3 l 0.0574,0.0114 0.0487,0.0325 0.0325,0.0487 0.0114,0.0574 z"
             id="path99" />
          <path
             style="fill:#000000;fill-opacity:1;fill-rule:evenodd;stroke:none"
             d="m 26.935,27.805 -0.0114,0.0574 -0.0325,0.0487 -0.0487,0.0325 -0.0574,0.0114 h -0.3 L 26.4276,27.9436 26.3789,27.9111 26.3464,27.8624 26.335,27.805 v -0.85 l 0.0114,-0.0574 0.0325,-0.0487 0.0487,-0.0325 0.0574,-0.0114 h 0.3 l 0.0574,0.0114 0.0487,0.0325 0.0325,0.0487 0.0114,0.0574 z"
             id="path100" />
          <path
             style="fill:#000000;fill-opacity:1;fill-rule:evenodd;stroke:none"
             d="m 27.735,27.805 -0.0114,0.0574 -0.0325,0.0487 -0.0487,0.0325 -0.0574,0.0114 h -0.3 L 27.2276,27.9436 27.1789,27.9111 27.1464,27.8624 27.135,27.805 v -0.85 l 0.0114,-0.0574 0.0325,-0.0487 0.0487,-0.0325 0.0574,-0.0114 h 0.3 l 0.0574,0.0114 0.0487,0.0325 0.0325,0.0487 0.0114,0.0574 z"
             id="path101" />
          <path
             style="fill:#000000;fill-opacity:1;fill-rule:evenodd;stroke:none"
             d="M 28.235,27.88 28.2293,27.9087 28.213,27.933 28.1887,27.9493 28.16,27.955 H 28.01 L 27.9813,27.9493 27.957,27.933 27.9407,27.9087 27.935,27.88 v -1 L 27.9407,26.8513 27.957,26.827 27.9813,26.8107 28.01,26.805 h 0.15 l 0.0287,0.0057 0.0243,0.0163 0.0163,0.0243 0.0057,0.0287 z"
             id="path102" />
          <path
             style="fill:#000000;fill-opacity:1;fill-rule:evenodd;stroke:none"
             d="M 29.235,27.88 29.2293,27.9087 29.213,27.933 29.1887,27.9493 29.16,27.955 H 29.01 L 28.9813,27.9493 28.957,27.933 28.9407,27.9087 28.935,27.88 v -1 L 28.9407,26.8513 28.957,26.827 28.9813,26.8107 29.01,26.805 h 0.15 l 0.0287,0.0057 0.0243,0.0163 0.0163,0.0243 0.0057,0.0287 z"
             id="path103" />
          <path
             style="fill:#000000;fill-opacity:1;fill-rule:evenodd;stroke:none"
             d="M 30.735,27.88 30.7293,27.9087 30.713,27.933 30.6887,27.9493 30.66,27.955 H 30.51 L 30.4813,27.9493 30.457,27.933 30.4407,27.9087 30.435,27.88 v -1 L 30.4407,26.8513 30.457,26.827 30.4813,26.8107 30.51,26.805 h 0.15 l 0.0287,0.0057 0.0243,0.0163 0.0163,0.0243 0.0057,0.0287 z"
             id="path104" />
          <path
             style="fill:#000000;fill-opacity:1;fill-rule:evenodd;stroke:none"
             d="M 31.735,27.88 31.7293,27.9087 31.713,27.933 31.6887,27.9493 31.66,27.955 H 31.51 L 31.4813,27.9493 31.457,27.933 31.4407,27.9087 31.435,27.88 v -1 L 31.4407,26.8513 31.457,26.827 31.4813,26.8107 31.51,26.805 h 0.15 l 0.0287,0.0057 0.0243,0.0163 0.0163,0.0243 0.0057,0.0287 z"
             id="path105" />
          <path
             style="fill:#000000;fill-opacity:1;fill-rule:evenodd;stroke:none"
             d="m 32.535,27.805 -0.0114,0.0574 -0.0325,0.0487 -0.0487,0.0325 -0.0574,0.0114 h -0.3 L 32.0276,27.9436 31.9789,27.9111 31.9464,27.8624 31.935,27.805 v -0.85 l 0.0114,-0.0574 0.0325,-0.0487 0.0487,-0.0325 0.0574,-0.0114 h 0.3 l 0.0574,0.0114 0.0487,0.0325 0.0325,0.0487 0.0114,0.0574 z"
             id="path106" />
          <path
             style="fill:#000000;fill-opacity:1;fill-rule:evenodd;stroke:none"
             d="m 33.335,27.805 -0.0114,0.0574 -0.0325,0.0487 -0.0487,0.0325 -0.0574,0.0114 h -0.3 L 32.8276,27.9436 32.7789,27.9111 32.7464,27.8624 32.735,27.805 v -0.85 l 0.0114,-0.0574 0.0325,-0.0487 0.0487,-0.0325 0.0574,-0.0114 h 0.3 l 0.0574,0.0114 0.0487,0.0325 0.0325,0.0487 0.0114,0.0574 z"
             id="path107" />
        </g>
        <path
           d="m 34.155,27.355 v -1.1"
           id="path108" />
        <path
           d="m 34.155,23.025 v -0.8"
           id="path109" />
        <path
           d="m 25.515,27.355 v -1.1"
           id="path110" />
        <path
           d="m 25.515,23.025 v -0.8"
           id="path111" />
      </g>
    </g>
  </g>
  <metadata
     id="metadata113">
    <rdf:RDF>
      <cc:Work
         rdf:about="">
        <dc:title>SVG Image created as aquarium-lid-F_Paste.svg date 2025/05/22 10:41:36 </dc:title>
      </cc:Work>
    </rdf:RDF>
  </metadata>
</svg>
