%TF.GenerationSoftware,KiCad,Pcbnew,9.0.2*%
%TF.CreationDate,2025-06-03T14:55:11+02:00*%
%TF.ProjectId,aquarium-lid,61717561-7269-4756-9d2d-6c69642e6b69,2*%
%TF.SameCoordinates,Original*%
%TF.FileFunction,Copper,L2,Bot*%
%TF.FilePolarity,Positive*%
%FSLAX46Y46*%
G04 Gerber Fmt 4.6, Leading zero omitted, Abs format (unit mm)*
G04 Created by KiCad (PCBNEW 9.0.2) date 2025-06-03 14:55:11*
%MOMM*%
%LPD*%
G01*
G04 APERTURE LIST*
G04 Aperture macros list*
%AMRoundRect*
0 Rectangle with rounded corners*
0 $1 Rounding radius*
0 $2 $3 $4 $5 $6 $7 $8 $9 X,Y pos of 4 corners*
0 Add a 4 corners polygon primitive as box body*
4,1,4,$2,$3,$4,$5,$6,$7,$8,$9,$2,$3,0*
0 Add four circle primitives for the rounded corners*
1,1,$1+$1,$2,$3*
1,1,$1+$1,$4,$5*
1,1,$1+$1,$6,$7*
1,1,$1+$1,$8,$9*
0 Add four rect primitives between the rounded corners*
20,1,$1+$1,$2,$3,$4,$5,0*
20,1,$1+$1,$4,$5,$6,$7,0*
20,1,$1+$1,$6,$7,$8,$9,0*
20,1,$1+$1,$8,$9,$2,$3,0*%
G04 Aperture macros list end*
%TA.AperFunction,ComponentPad*%
%ADD10RoundRect,0.250000X0.600000X0.750000X-0.600000X0.750000X-0.600000X-0.750000X0.600000X-0.750000X0*%
%TD*%
%TA.AperFunction,ComponentPad*%
%ADD11O,1.700000X2.000000*%
%TD*%
%TA.AperFunction,ComponentPad*%
%ADD12R,1.700000X1.700000*%
%TD*%
%TA.AperFunction,ComponentPad*%
%ADD13C,1.700000*%
%TD*%
%TA.AperFunction,ComponentPad*%
%ADD14R,1.605000X1.605000*%
%TD*%
%TA.AperFunction,ComponentPad*%
%ADD15C,1.605000*%
%TD*%
%TA.AperFunction,ComponentPad*%
%ADD16O,4.000000X1.300000*%
%TD*%
%TA.AperFunction,ComponentPad*%
%ADD17O,1.300000X4.000000*%
%TD*%
%TA.AperFunction,ComponentPad*%
%ADD18C,1.308000*%
%TD*%
%TA.AperFunction,HeatsinkPad*%
%ADD19O,1.000000X2.100000*%
%TD*%
%TA.AperFunction,HeatsinkPad*%
%ADD20O,1.000000X1.800000*%
%TD*%
%TA.AperFunction,ComponentPad*%
%ADD21O,1.600000X1.600000*%
%TD*%
%TA.AperFunction,ComponentPad*%
%ADD22O,2.000000X3.000000*%
%TD*%
%TA.AperFunction,ViaPad*%
%ADD23C,0.700000*%
%TD*%
%TA.AperFunction,ViaPad*%
%ADD24C,0.600000*%
%TD*%
%TA.AperFunction,Conductor*%
%ADD25C,0.400000*%
%TD*%
%TA.AperFunction,Conductor*%
%ADD26C,0.200000*%
%TD*%
G04 APERTURE END LIST*
D10*
%TO.P,J2,1,Pin_1*%
%TO.N,Net-(D4-A)*%
X45120000Y-28100000D03*
D11*
%TO.P,J2,2,Pin_2*%
%TO.N,+12V*%
X42620000Y-28100000D03*
%TD*%
D12*
%TO.P,J1,1,Pin_1*%
%TO.N,/USB_D-*%
X22694589Y-28270286D03*
D13*
%TO.P,J1,2,Pin_2*%
%TO.N,/USB_D+*%
X22694589Y-25730286D03*
%TO.P,J1,3,Pin_3*%
%TO.N,GND*%
X22694589Y-23190286D03*
%TD*%
D14*
%TO.P,PS1,1,+VIN*%
%TO.N,Net-(PS1-+VIN)*%
X59225000Y-36460000D03*
D15*
%TO.P,PS1,2,GND*%
%TO.N,GND*%
X59225000Y-39000000D03*
%TO.P,PS1,3,+VOUT*%
%TO.N,Net-(PS1-+VOUT)*%
X59225000Y-41540000D03*
%TD*%
D12*
%TO.P,J7,1,Pin_1*%
%TO.N,+3V3*%
X67920000Y-50275000D03*
D13*
%TO.P,J7,2,Pin_2*%
X67920000Y-47735000D03*
%TO.P,J7,3,Pin_3*%
%TO.N,GND*%
X70460000Y-50275000D03*
%TO.P,J7,4,Pin_4*%
X70460000Y-47735000D03*
%TO.P,J7,5,Pin_5*%
X73000000Y-50275000D03*
%TO.P,J7,6,Pin_6*%
%TO.N,/GPIO5*%
X73000000Y-47735000D03*
%TO.P,J7,7,Pin_7*%
%TO.N,/GPIO3*%
X75540000Y-50275000D03*
%TO.P,J7,8,Pin_8*%
%TO.N,/GPIO2*%
X75540000Y-47735000D03*
%TO.P,J7,9,Pin_9*%
%TO.N,/GPIO21*%
X78080000Y-50275000D03*
%TO.P,J7,10,Pin_10*%
%TO.N,/GPIO20*%
X78080000Y-47735000D03*
%TD*%
D16*
%TO.P,DC1,1,3*%
%TO.N,GND*%
X70925000Y-27600000D03*
%TO.P,DC1,2,4*%
%TO.N,+12V*%
X70925000Y-33600000D03*
D17*
%TO.P,DC1,4,2*%
%TO.N,unconnected-(DC1-2-Pad4)*%
X66125000Y-31100000D03*
%TD*%
D18*
%TO.P,LS1,N*%
%TO.N,Net-(D2-A)*%
X41000000Y-44250000D03*
%TO.P,LS1,P*%
%TO.N,+3V3*%
X41000000Y-37750000D03*
%TD*%
D19*
%TO.P,J5,S1,SHIELD*%
%TO.N,GND*%
X34155000Y-26805000D03*
D20*
X34155000Y-22625000D03*
D19*
X25515000Y-26805000D03*
D20*
X25515000Y-22625000D03*
%TD*%
D10*
%TO.P,J3,1,Pin_1*%
%TO.N,Net-(D3-A)*%
X58035000Y-28100000D03*
D11*
%TO.P,J3,2,Pin_2*%
%TO.N,+12V*%
X55535000Y-28100000D03*
%TD*%
D21*
%TO.P,SW2,1,1*%
%TO.N,unconnected-(SW2-Pad1)*%
X63150000Y-51000000D03*
%TO.P,SW2,2,2*%
%TO.N,+12V*%
X61150000Y-51000000D03*
%TO.P,SW2,3,3*%
%TO.N,Net-(LED1-VDD)*%
X59150000Y-51000000D03*
D22*
%TO.P,SW2,4,4*%
%TO.N,unconnected-(SW2-Pad4)*%
X57000000Y-51000000D03*
%TO.P,SW2,5,5*%
%TO.N,unconnected-(SW2-Pad5)*%
X65300000Y-51000000D03*
%TD*%
D23*
%TO.N,+3V3*%
X51000000Y-50000000D03*
X60000000Y-48000000D03*
D24*
%TO.N,Net-(D3-A)*%
X53500000Y-28500000D03*
%TO.N,Net-(D4-A)*%
X41000000Y-26000000D03*
%TO.N,/RBG_DATA*%
X27000000Y-52000000D03*
X25961275Y-50961275D03*
%TO.N,GND*%
X22950000Y-51000000D03*
X38950000Y-52937500D03*
X50900000Y-32000000D03*
X28400000Y-37940000D03*
X55050000Y-36000000D03*
X37950000Y-31937500D03*
X26200000Y-39090000D03*
X27300000Y-40140000D03*
X28400000Y-39090000D03*
X27300000Y-37940000D03*
X64137500Y-57000000D03*
X26200000Y-37940000D03*
X28400000Y-40140000D03*
X33100000Y-48750000D03*
X45737500Y-53250000D03*
X57000000Y-43000000D03*
X26200000Y-40140000D03*
X22950000Y-53000000D03*
X30962500Y-57000000D03*
X43290700Y-33589765D03*
X36000000Y-48912500D03*
X39672347Y-33598526D03*
X72050000Y-38000000D03*
X47550000Y-57000000D03*
X66000000Y-38050000D03*
X58950000Y-47000000D03*
X27300000Y-39090000D03*
%TO.N,/FAN1_PWM*%
X33000000Y-46000000D03*
X32000000Y-47687500D03*
%TO.N,/BUZZER_OUT*%
X28600000Y-48750000D03*
X29000000Y-51000000D03*
%TO.N,Net-(U1-EN{slash}CHIP_PU)*%
X23961275Y-52961275D03*
X24000000Y-56000000D03*
%TO.N,Net-(U1-GPIO6)*%
X38000000Y-46000000D03*
X43000000Y-46000000D03*
%TO.N,/TEMP_DATA*%
X38000000Y-47000000D03*
X62000000Y-42000000D03*
%TO.N,Net-(J5-CC1)*%
X41497347Y-33598526D03*
X36000000Y-30000000D03*
%TO.N,Net-(J5-CC2)*%
X45115700Y-33589765D03*
X28000000Y-29000000D03*
%TO.N,Net-(D2-A)*%
X39000000Y-51062500D03*
X39000000Y-49000000D03*
D23*
%TO.N,Net-(LED1-VDD)*%
X50000000Y-57000000D03*
X35862500Y-57000000D03*
D24*
%TO.N,/GPIO3*%
X60900000Y-45000000D03*
X58000000Y-44000000D03*
X35000000Y-37000000D03*
%TO.N,/GPIO2*%
X34000000Y-36000000D03*
X55000000Y-33000000D03*
%TO.N,/GPIO20*%
X35000000Y-34000000D03*
X51000000Y-36000000D03*
X38000000Y-34000000D03*
%TO.N,/GPIO5*%
X25600000Y-48750000D03*
X42000000Y-51000000D03*
X50000000Y-49000000D03*
X62300000Y-44060501D03*
X69000000Y-44000000D03*
%TO.N,/GPIO21*%
X37000000Y-35000000D03*
X61290873Y-52292344D03*
X30100000Y-31250000D03*
X47274210Y-47935480D03*
%TD*%
D25*
%TO.N,+3V3*%
X55518687Y-50000000D02*
X51000000Y-50000000D01*
X60000000Y-48000000D02*
X57518687Y-48000000D01*
X57518687Y-48000000D02*
X55518687Y-50000000D01*
%TO.N,Net-(D3-A)*%
X56135000Y-30000000D02*
X58035000Y-28100000D01*
X53500000Y-28500000D02*
X55000000Y-30000000D01*
X55000000Y-30000000D02*
X56135000Y-30000000D01*
%TO.N,Net-(D4-A)*%
X41000000Y-26000000D02*
X43020000Y-26000000D01*
X43020000Y-26000000D02*
X45120000Y-28100000D01*
D26*
%TO.N,/RBG_DATA*%
X27000000Y-52000000D02*
X25961275Y-50961275D01*
%TO.N,GND*%
X76691000Y-47258240D02*
X75432760Y-46000000D01*
X75000000Y-55000000D02*
X76691000Y-53309000D01*
X75432760Y-46000000D02*
X74000000Y-46000000D01*
X76691000Y-53309000D02*
X76691000Y-47258240D01*
%TO.N,/FAN1_PWM*%
X33000000Y-46687500D02*
X33000000Y-46000000D01*
X32000000Y-47687500D02*
X33000000Y-46687500D01*
%TO.N,/BUZZER_OUT*%
X29000000Y-49150000D02*
X28600000Y-48750000D01*
X29000000Y-51000000D02*
X29000000Y-49150000D01*
%TO.N,Net-(U1-EN{slash}CHIP_PU)*%
X23961275Y-52961275D02*
X23961275Y-55961275D01*
X23961275Y-55961275D02*
X24000000Y-56000000D01*
%TO.N,Net-(U1-GPIO6)*%
X43000000Y-46000000D02*
X38000000Y-46000000D01*
%TO.N,/TEMP_DATA*%
X62000000Y-42000000D02*
X57000000Y-47000000D01*
X57000000Y-47000000D02*
X38000000Y-47000000D01*
%TO.N,Net-(J5-CC1)*%
X37898821Y-30000000D02*
X41497347Y-33598526D01*
X36000000Y-30000000D02*
X37898821Y-30000000D01*
%TO.N,Net-(J5-CC2)*%
X40525935Y-29000000D02*
X45115700Y-33589765D01*
X28000000Y-29000000D02*
X40525935Y-29000000D01*
D25*
%TO.N,Net-(D2-A)*%
X39000000Y-49000000D02*
X39000000Y-51062500D01*
%TO.N,Net-(LED1-VDD)*%
X50000000Y-57000000D02*
X49299000Y-57701000D01*
X36563500Y-57701000D02*
X35862500Y-57000000D01*
X49299000Y-57701000D02*
X36563500Y-57701000D01*
D26*
%TO.N,/GPIO3*%
X60900000Y-45000000D02*
X65024000Y-49124000D01*
X45000000Y-46000000D02*
X56000000Y-46000000D01*
X74389000Y-49124000D02*
X75540000Y-50275000D01*
X35000000Y-37000000D02*
X36000000Y-37000000D01*
X36000000Y-37000000D02*
X45000000Y-46000000D01*
X65024000Y-49124000D02*
X74389000Y-49124000D01*
X56000000Y-46000000D02*
X58000000Y-44000000D01*
%TO.N,/GPIO2*%
X53809235Y-34190765D02*
X41755051Y-34190765D01*
X41755051Y-34190765D02*
X39945816Y-36000000D01*
X39945816Y-36000000D02*
X34000000Y-36000000D01*
X55000000Y-33000000D02*
X53809235Y-34190765D01*
%TO.N,/GPIO20*%
X65701500Y-35356500D02*
X78080000Y-47735000D01*
X51643500Y-35356500D02*
X65701500Y-35356500D01*
X51000000Y-36000000D02*
X51643500Y-35356500D01*
X35000000Y-34000000D02*
X38000000Y-34000000D01*
%TO.N,/GPIO5*%
X42000000Y-51000000D02*
X41336500Y-51663500D01*
X60401000Y-44399000D02*
X60739499Y-44060501D01*
X60401000Y-44399000D02*
X55800000Y-49000000D01*
X41336500Y-51663500D02*
X28513500Y-51663500D01*
X69000000Y-44000000D02*
X69265000Y-44000000D01*
X28513500Y-51663500D02*
X25600000Y-48750000D01*
X55800000Y-49000000D02*
X50000000Y-49000000D01*
X60739499Y-44060501D02*
X62300000Y-44060501D01*
X69265000Y-44000000D02*
X73000000Y-47735000D01*
%TO.N,/GPIO21*%
X37000000Y-35000000D02*
X33850000Y-35000000D01*
X60782217Y-52801000D02*
X52139730Y-52801000D01*
X33850000Y-35000000D02*
X30100000Y-31250000D01*
X52139730Y-52801000D02*
X47274210Y-47935480D01*
X61290873Y-52292344D02*
X60782217Y-52801000D01*
%TD*%
%TA.AperFunction,Conductor*%
%TO.N,GND*%
G36*
X75002702Y-20500617D02*
G01*
X75386771Y-20517386D01*
X75397506Y-20518326D01*
X75494913Y-20531150D01*
X75558808Y-20559415D01*
X75566407Y-20566407D01*
X79433591Y-24433591D01*
X79467076Y-24494914D01*
X79468849Y-24505086D01*
X79481671Y-24602473D01*
X79482614Y-24613250D01*
X79499382Y-24997297D01*
X79499500Y-25002706D01*
X79499500Y-47029696D01*
X79479815Y-47096735D01*
X79427011Y-47142490D01*
X79357853Y-47152434D01*
X79294297Y-47123409D01*
X79265016Y-47085991D01*
X79235052Y-47027185D01*
X79235051Y-47027184D01*
X79110109Y-46855213D01*
X78959786Y-46704890D01*
X78787820Y-46579951D01*
X78598414Y-46483444D01*
X78598413Y-46483443D01*
X78598412Y-46483443D01*
X78396243Y-46417754D01*
X78396241Y-46417753D01*
X78396240Y-46417753D01*
X78234957Y-46392208D01*
X78186287Y-46384500D01*
X77973713Y-46384500D01*
X77903890Y-46395559D01*
X77763755Y-46417754D01*
X77763748Y-46417755D01*
X77721475Y-46431491D01*
X77651634Y-46433486D01*
X77595477Y-46401241D01*
X66189090Y-34994855D01*
X66189088Y-34994852D01*
X66070217Y-34875981D01*
X66070216Y-34875980D01*
X65939480Y-34800500D01*
X65939479Y-34800499D01*
X65933287Y-34796924D01*
X65933282Y-34796922D01*
X65903326Y-34788895D01*
X65780557Y-34755999D01*
X65622443Y-34755999D01*
X65614847Y-34755999D01*
X65614831Y-34756000D01*
X54392596Y-34756000D01*
X54325557Y-34736315D01*
X54279802Y-34683511D01*
X54269858Y-34614353D01*
X54298883Y-34550797D01*
X54304915Y-34544319D01*
X54646240Y-34202994D01*
X55014662Y-33834572D01*
X55075983Y-33801089D01*
X55078150Y-33800638D01*
X55136085Y-33789113D01*
X55233497Y-33769737D01*
X55379179Y-33709394D01*
X55510289Y-33621789D01*
X55621789Y-33510289D01*
X55709394Y-33379179D01*
X55709641Y-33378584D01*
X55730778Y-33327553D01*
X55769737Y-33233497D01*
X55800500Y-33078842D01*
X55800500Y-32921158D01*
X55800500Y-32921155D01*
X55800499Y-32921153D01*
X55794129Y-32889128D01*
X55769737Y-32766503D01*
X55768680Y-32763951D01*
X55709397Y-32620827D01*
X55709390Y-32620814D01*
X55621789Y-32489711D01*
X55621786Y-32489707D01*
X55510292Y-32378213D01*
X55510288Y-32378210D01*
X55379185Y-32290609D01*
X55379172Y-32290602D01*
X55233501Y-32230264D01*
X55233489Y-32230261D01*
X55078845Y-32199500D01*
X55078842Y-32199500D01*
X54921158Y-32199500D01*
X54921155Y-32199500D01*
X54766510Y-32230261D01*
X54766498Y-32230264D01*
X54620827Y-32290602D01*
X54620814Y-32290609D01*
X54489711Y-32378210D01*
X54489707Y-32378213D01*
X54378213Y-32489707D01*
X54378210Y-32489711D01*
X54290609Y-32620814D01*
X54290602Y-32620827D01*
X54230264Y-32766498D01*
X54230261Y-32766508D01*
X54199361Y-32921850D01*
X54166976Y-32983761D01*
X54165425Y-32985339D01*
X53596819Y-33553946D01*
X53535496Y-33587431D01*
X53509138Y-33590265D01*
X46033746Y-33590265D01*
X45966707Y-33570580D01*
X45920952Y-33517776D01*
X45912129Y-33490456D01*
X45900898Y-33433996D01*
X45885437Y-33356268D01*
X45874801Y-33330591D01*
X45825097Y-33210592D01*
X45825090Y-33210579D01*
X45737489Y-33079476D01*
X45737486Y-33079472D01*
X45625992Y-32967978D01*
X45625988Y-32967975D01*
X45494885Y-32880374D01*
X45494872Y-32880367D01*
X45349201Y-32820029D01*
X45349191Y-32820026D01*
X45193849Y-32789126D01*
X45131938Y-32756741D01*
X45130360Y-32755190D01*
X42133718Y-29758548D01*
X42100233Y-29697225D01*
X42105217Y-29627533D01*
X42147089Y-29571600D01*
X42212553Y-29547183D01*
X42259714Y-29552935D01*
X42303757Y-29567246D01*
X42513713Y-29600500D01*
X42513714Y-29600500D01*
X42726286Y-29600500D01*
X42726287Y-29600500D01*
X42936243Y-29567246D01*
X43138412Y-29501557D01*
X43327816Y-29405051D01*
X43499792Y-29280104D01*
X43638604Y-29141291D01*
X43699923Y-29107809D01*
X43769615Y-29112793D01*
X43825549Y-29154664D01*
X43831821Y-29163878D01*
X43835185Y-29169333D01*
X43835186Y-29169334D01*
X43927288Y-29318656D01*
X44051344Y-29442712D01*
X44200666Y-29534814D01*
X44367203Y-29589999D01*
X44469991Y-29600500D01*
X45770008Y-29600499D01*
X45872797Y-29589999D01*
X46039334Y-29534814D01*
X46188656Y-29442712D01*
X46312712Y-29318656D01*
X46404814Y-29169334D01*
X46459999Y-29002797D01*
X46470500Y-28900009D01*
X46470499Y-28421153D01*
X52699500Y-28421153D01*
X52699500Y-28578846D01*
X52730261Y-28733489D01*
X52730264Y-28733501D01*
X52790602Y-28879172D01*
X52790609Y-28879185D01*
X52878210Y-29010288D01*
X52878213Y-29010292D01*
X52989707Y-29121786D01*
X52989711Y-29121789D01*
X53120814Y-29209390D01*
X53120827Y-29209397D01*
X53265187Y-29269192D01*
X53305416Y-29296072D01*
X54455886Y-30446542D01*
X54519632Y-30510288D01*
X54553459Y-30544115D01*
X54668182Y-30620771D01*
X54668195Y-30620778D01*
X54737534Y-30649499D01*
X54766603Y-30661539D01*
X54795671Y-30673580D01*
X54795674Y-30673580D01*
X54795679Y-30673582D01*
X54822545Y-30678925D01*
X54822551Y-30678926D01*
X54822591Y-30678934D01*
X54912937Y-30696905D01*
X54931006Y-30700500D01*
X54931007Y-30700500D01*
X56203996Y-30700500D01*
X56312457Y-30678925D01*
X56339328Y-30673580D01*
X56403069Y-30647177D01*
X56466807Y-30620777D01*
X56466808Y-30620776D01*
X56466811Y-30620775D01*
X56581543Y-30544114D01*
X57466207Y-29659448D01*
X64974500Y-29659448D01*
X64974500Y-32540551D01*
X65002829Y-32719410D01*
X65058787Y-32891636D01*
X65058788Y-32891639D01*
X65141006Y-33052997D01*
X65247441Y-33199494D01*
X65247445Y-33199499D01*
X65375500Y-33327554D01*
X65375505Y-33327558D01*
X65474526Y-33399500D01*
X65522006Y-33433996D01*
X65627484Y-33487740D01*
X65683360Y-33516211D01*
X65683363Y-33516212D01*
X65769476Y-33544191D01*
X65855591Y-33572171D01*
X65938429Y-33585291D01*
X66034449Y-33600500D01*
X66034454Y-33600500D01*
X66215551Y-33600500D01*
X66302259Y-33586765D01*
X66394409Y-33572171D01*
X66566639Y-33516211D01*
X66579912Y-33509448D01*
X68424500Y-33509448D01*
X68424500Y-33690551D01*
X68452829Y-33869410D01*
X68508787Y-34041636D01*
X68508788Y-34041639D01*
X68591006Y-34202997D01*
X68697441Y-34349494D01*
X68697445Y-34349499D01*
X68825500Y-34477554D01*
X68825505Y-34477558D01*
X68917395Y-34544319D01*
X68972006Y-34583996D01*
X69077484Y-34637740D01*
X69133360Y-34666211D01*
X69133363Y-34666212D01*
X69219476Y-34694191D01*
X69305591Y-34722171D01*
X69388429Y-34735291D01*
X69484449Y-34750500D01*
X69484454Y-34750500D01*
X72365551Y-34750500D01*
X72455107Y-34736315D01*
X72544409Y-34722171D01*
X72716639Y-34666211D01*
X72877994Y-34583996D01*
X73024501Y-34477553D01*
X73152553Y-34349501D01*
X73258996Y-34202994D01*
X73341211Y-34041639D01*
X73397171Y-33869409D01*
X73413470Y-33766503D01*
X73425500Y-33690551D01*
X73425500Y-33509448D01*
X73404967Y-33379815D01*
X73397171Y-33330591D01*
X73358180Y-33210586D01*
X73341212Y-33158363D01*
X73341211Y-33158360D01*
X73287523Y-33052994D01*
X73258996Y-32997006D01*
X73237904Y-32967975D01*
X73152558Y-32850505D01*
X73152554Y-32850500D01*
X73024499Y-32722445D01*
X73024494Y-32722441D01*
X72877997Y-32616006D01*
X72877996Y-32616005D01*
X72877994Y-32616004D01*
X72826300Y-32589664D01*
X72716639Y-32533788D01*
X72716636Y-32533787D01*
X72544410Y-32477829D01*
X72365551Y-32449500D01*
X72365546Y-32449500D01*
X69484454Y-32449500D01*
X69484449Y-32449500D01*
X69305589Y-32477829D01*
X69133363Y-32533787D01*
X69133360Y-32533788D01*
X68972002Y-32616006D01*
X68825505Y-32722441D01*
X68825500Y-32722445D01*
X68697445Y-32850500D01*
X68697441Y-32850505D01*
X68591006Y-32997002D01*
X68508788Y-33158360D01*
X68508787Y-33158363D01*
X68452829Y-33330589D01*
X68424500Y-33509448D01*
X66579912Y-33509448D01*
X66727994Y-33433996D01*
X66747877Y-33419550D01*
X66768918Y-33404264D01*
X66865002Y-33334454D01*
X66874501Y-33327553D01*
X67002553Y-33199501D01*
X67108996Y-33052994D01*
X67191211Y-32891639D01*
X67247171Y-32719409D01*
X67263549Y-32616004D01*
X67275500Y-32540551D01*
X67275500Y-29659448D01*
X67257718Y-29547183D01*
X67247171Y-29480591D01*
X67208839Y-29362614D01*
X67191212Y-29308363D01*
X67191211Y-29308360D01*
X67153068Y-29233501D01*
X67108996Y-29147006D01*
X67059472Y-29078842D01*
X67002558Y-29000505D01*
X67002554Y-29000500D01*
X66874499Y-28872445D01*
X66874494Y-28872441D01*
X66727997Y-28766006D01*
X66727996Y-28766005D01*
X66727994Y-28766004D01*
X66628159Y-28715135D01*
X66566639Y-28683788D01*
X66566636Y-28683787D01*
X66394410Y-28627829D01*
X66215551Y-28599500D01*
X66215546Y-28599500D01*
X66034454Y-28599500D01*
X66034449Y-28599500D01*
X65855589Y-28627829D01*
X65683363Y-28683787D01*
X65683360Y-28683788D01*
X65522002Y-28766006D01*
X65375505Y-28872441D01*
X65375500Y-28872445D01*
X65247445Y-29000500D01*
X65247441Y-29000505D01*
X65141006Y-29147002D01*
X65058788Y-29308360D01*
X65058787Y-29308363D01*
X65002829Y-29480589D01*
X64974500Y-29659448D01*
X57466207Y-29659448D01*
X57488838Y-29636817D01*
X57550161Y-29603333D01*
X57576519Y-29600499D01*
X58685002Y-29600499D01*
X58685008Y-29600499D01*
X58787797Y-29589999D01*
X58954334Y-29534814D01*
X59103656Y-29442712D01*
X59227712Y-29318656D01*
X59319814Y-29169334D01*
X59374999Y-29002797D01*
X59385500Y-28900009D01*
X59385499Y-27350000D01*
X68450261Y-27350000D01*
X69259318Y-27350000D01*
X69254923Y-27354395D01*
X69202262Y-27445606D01*
X69175003Y-27547339D01*
X69175003Y-27652661D01*
X69202262Y-27754394D01*
X69254923Y-27845605D01*
X69259318Y-27850000D01*
X68450261Y-27850000D01*
X68453315Y-27869285D01*
X68453318Y-27869295D01*
X68509250Y-28041441D01*
X68509252Y-28041447D01*
X68591434Y-28202734D01*
X68697823Y-28349169D01*
X68825830Y-28477176D01*
X68972265Y-28583565D01*
X69133552Y-28665747D01*
X69133555Y-28665748D01*
X69305706Y-28721682D01*
X69484494Y-28750000D01*
X70675000Y-28750000D01*
X70675000Y-27999999D01*
X71175000Y-27999999D01*
X71175000Y-28750000D01*
X72365506Y-28750000D01*
X72544293Y-28721682D01*
X72716444Y-28665748D01*
X72716447Y-28665747D01*
X72877734Y-28583565D01*
X73024169Y-28477176D01*
X73152176Y-28349169D01*
X73258565Y-28202734D01*
X73340747Y-28041447D01*
X73340749Y-28041441D01*
X73396681Y-27869295D01*
X73396684Y-27869285D01*
X73399739Y-27850000D01*
X72590682Y-27850000D01*
X72595077Y-27845605D01*
X72647738Y-27754394D01*
X72674997Y-27652661D01*
X72674997Y-27547339D01*
X72647738Y-27445606D01*
X72595077Y-27354395D01*
X72590682Y-27350000D01*
X73399739Y-27350000D01*
X73396684Y-27330714D01*
X73396681Y-27330704D01*
X73340749Y-27158558D01*
X73340747Y-27158552D01*
X73258565Y-26997265D01*
X73152176Y-26850830D01*
X73024169Y-26722823D01*
X72877734Y-26616434D01*
X72716447Y-26534252D01*
X72716444Y-26534251D01*
X72544293Y-26478317D01*
X72365506Y-26450000D01*
X71175000Y-26450000D01*
X71175000Y-27200001D01*
X70675000Y-27200001D01*
X70675000Y-26450000D01*
X69484494Y-26450000D01*
X69305706Y-26478317D01*
X69133555Y-26534251D01*
X69133552Y-26534252D01*
X68972265Y-26616434D01*
X68825830Y-26722823D01*
X68697823Y-26850830D01*
X68591434Y-26997265D01*
X68509252Y-27158552D01*
X68509250Y-27158558D01*
X68453318Y-27330704D01*
X68453315Y-27330714D01*
X68450261Y-27350000D01*
X59385499Y-27350000D01*
X59385499Y-27299992D01*
X59374999Y-27197203D01*
X59319814Y-27030666D01*
X59227712Y-26881344D01*
X59103656Y-26757288D01*
X58954334Y-26665186D01*
X58787797Y-26610001D01*
X58787795Y-26610000D01*
X58685010Y-26599500D01*
X57384998Y-26599500D01*
X57384981Y-26599501D01*
X57282203Y-26610000D01*
X57282200Y-26610001D01*
X57115668Y-26665185D01*
X57115663Y-26665187D01*
X56966342Y-26757289D01*
X56842289Y-26881342D01*
X56746821Y-27036121D01*
X56694873Y-27082845D01*
X56625910Y-27094068D01*
X56561828Y-27066224D01*
X56553601Y-27058705D01*
X56414786Y-26919890D01*
X56242820Y-26794951D01*
X56053414Y-26698444D01*
X56053413Y-26698443D01*
X56053412Y-26698443D01*
X55851243Y-26632754D01*
X55851241Y-26632753D01*
X55851240Y-26632753D01*
X55689957Y-26607208D01*
X55641287Y-26599500D01*
X55428713Y-26599500D01*
X55380042Y-26607208D01*
X55218760Y-26632753D01*
X55016585Y-26698444D01*
X54827179Y-26794951D01*
X54655213Y-26919890D01*
X54504890Y-27070213D01*
X54379951Y-27242179D01*
X54283444Y-27431585D01*
X54283443Y-27431587D01*
X54283443Y-27431588D01*
X54250598Y-27532672D01*
X54217753Y-27633760D01*
X54193189Y-27788851D01*
X54163260Y-27851986D01*
X54103948Y-27888917D01*
X54034086Y-27887919D01*
X54001825Y-27872555D01*
X53879185Y-27790609D01*
X53879172Y-27790602D01*
X53733501Y-27730264D01*
X53733489Y-27730261D01*
X53578845Y-27699500D01*
X53578842Y-27699500D01*
X53421158Y-27699500D01*
X53421155Y-27699500D01*
X53266510Y-27730261D01*
X53266498Y-27730264D01*
X53120827Y-27790602D01*
X53120814Y-27790609D01*
X52989711Y-27878210D01*
X52989707Y-27878213D01*
X52878213Y-27989707D01*
X52878210Y-27989711D01*
X52790609Y-28120814D01*
X52790602Y-28120827D01*
X52730264Y-28266498D01*
X52730261Y-28266510D01*
X52699500Y-28421153D01*
X46470499Y-28421153D01*
X46470499Y-28083564D01*
X46470499Y-27299998D01*
X46470498Y-27299981D01*
X46459999Y-27197203D01*
X46459998Y-27197200D01*
X46420482Y-27077950D01*
X46404814Y-27030666D01*
X46312712Y-26881344D01*
X46188656Y-26757288D01*
X46039334Y-26665186D01*
X45872797Y-26610001D01*
X45872795Y-26610000D01*
X45770016Y-26599500D01*
X45770009Y-26599500D01*
X44661519Y-26599500D01*
X44594480Y-26579815D01*
X44573838Y-26563181D01*
X43466546Y-25455888D01*
X43466545Y-25455887D01*
X43351807Y-25379222D01*
X43224332Y-25326421D01*
X43224322Y-25326418D01*
X43088996Y-25299500D01*
X43088994Y-25299500D01*
X43088993Y-25299500D01*
X41425316Y-25299500D01*
X41377864Y-25290061D01*
X41233501Y-25230264D01*
X41233489Y-25230261D01*
X41078845Y-25199500D01*
X41078842Y-25199500D01*
X40921158Y-25199500D01*
X40921155Y-25199500D01*
X40766510Y-25230261D01*
X40766498Y-25230264D01*
X40620827Y-25290602D01*
X40620814Y-25290609D01*
X40489711Y-25378210D01*
X40489707Y-25378213D01*
X40378213Y-25489707D01*
X40378210Y-25489711D01*
X40290609Y-25620814D01*
X40290602Y-25620827D01*
X40230264Y-25766498D01*
X40230261Y-25766510D01*
X40199500Y-25921153D01*
X40199500Y-26078846D01*
X40230261Y-26233489D01*
X40230264Y-26233501D01*
X40290602Y-26379172D01*
X40290609Y-26379185D01*
X40378210Y-26510288D01*
X40378213Y-26510292D01*
X40489707Y-26621786D01*
X40489711Y-26621789D01*
X40620814Y-26709390D01*
X40620827Y-26709397D01*
X40756310Y-26765515D01*
X40766503Y-26769737D01*
X40921153Y-26800499D01*
X40921156Y-26800500D01*
X40921158Y-26800500D01*
X41078844Y-26800500D01*
X41078845Y-26800499D01*
X41233497Y-26769737D01*
X41308963Y-26738478D01*
X41377864Y-26709939D01*
X41386040Y-26708312D01*
X41390381Y-26705523D01*
X41425316Y-26700500D01*
X41660971Y-26700500D01*
X41728010Y-26720185D01*
X41773765Y-26772989D01*
X41783709Y-26842147D01*
X41754684Y-26905703D01*
X41741507Y-26918786D01*
X41740210Y-26919893D01*
X41589890Y-27070213D01*
X41464951Y-27242179D01*
X41368444Y-27431585D01*
X41368443Y-27431587D01*
X41368443Y-27431588D01*
X41335598Y-27532672D01*
X41302753Y-27633760D01*
X41283647Y-27754394D01*
X41269500Y-27843713D01*
X41269500Y-28356287D01*
X41275645Y-28395082D01*
X41302753Y-28566240D01*
X41302754Y-28566244D01*
X41317063Y-28610283D01*
X41317244Y-28616650D01*
X41320298Y-28622242D01*
X41318230Y-28651152D01*
X41319058Y-28680124D01*
X41315768Y-28685579D01*
X41315314Y-28691934D01*
X41297944Y-28715135D01*
X41282977Y-28739957D01*
X41277258Y-28742768D01*
X41273442Y-28747867D01*
X41246289Y-28757994D01*
X41220276Y-28770784D01*
X41213946Y-28770057D01*
X41207978Y-28772284D01*
X41179657Y-28766123D01*
X41150861Y-28762819D01*
X41144367Y-28758446D01*
X41139705Y-28757432D01*
X41111451Y-28736281D01*
X41013525Y-28638355D01*
X41013523Y-28638352D01*
X40894652Y-28519481D01*
X40894651Y-28519480D01*
X40807839Y-28469360D01*
X40807839Y-28469359D01*
X40807835Y-28469358D01*
X40757720Y-28440423D01*
X40604992Y-28399499D01*
X40446878Y-28399499D01*
X40439282Y-28399499D01*
X40439266Y-28399500D01*
X34800522Y-28399500D01*
X34733483Y-28379815D01*
X34687728Y-28327011D01*
X34677784Y-28257853D01*
X34706809Y-28194297D01*
X34731631Y-28172398D01*
X34792462Y-28131751D01*
X34792466Y-28131748D01*
X34931748Y-27992466D01*
X34931751Y-27992462D01*
X35041185Y-27828684D01*
X35041192Y-27828671D01*
X35116569Y-27646693D01*
X35116572Y-27646681D01*
X35154999Y-27453495D01*
X35155000Y-27453492D01*
X35155000Y-27055000D01*
X34455000Y-27055000D01*
X34455000Y-26555000D01*
X35155000Y-26555000D01*
X35155000Y-26156508D01*
X35154999Y-26156504D01*
X35116572Y-25963318D01*
X35116569Y-25963306D01*
X35041192Y-25781328D01*
X35041185Y-25781315D01*
X34931751Y-25617537D01*
X34931748Y-25617533D01*
X34792466Y-25478251D01*
X34792462Y-25478248D01*
X34628684Y-25368814D01*
X34628671Y-25368807D01*
X34446691Y-25293429D01*
X34446683Y-25293427D01*
X34405000Y-25285135D01*
X34405000Y-26088011D01*
X34395060Y-26070795D01*
X34339205Y-26014940D01*
X34270796Y-25975444D01*
X34194496Y-25955000D01*
X34115504Y-25955000D01*
X34039204Y-25975444D01*
X33970795Y-26014940D01*
X33914940Y-26070795D01*
X33905000Y-26088011D01*
X33905000Y-25285136D01*
X33904999Y-25285135D01*
X33863316Y-25293427D01*
X33863308Y-25293429D01*
X33681328Y-25368807D01*
X33681315Y-25368814D01*
X33517537Y-25478248D01*
X33517533Y-25478251D01*
X33378251Y-25617533D01*
X33378248Y-25617537D01*
X33268814Y-25781315D01*
X33268809Y-25781324D01*
X33264866Y-25790845D01*
X33221023Y-25845247D01*
X33154728Y-25867310D01*
X33087030Y-25850029D01*
X33081597Y-25846351D01*
X32947136Y-25768719D01*
X32873950Y-25749109D01*
X32800766Y-25729500D01*
X32649234Y-25729500D01*
X32502863Y-25768719D01*
X32371635Y-25844485D01*
X32371632Y-25844487D01*
X32264487Y-25951632D01*
X32264485Y-25951635D01*
X32188719Y-26082863D01*
X32149500Y-26229234D01*
X32149500Y-26380765D01*
X32188719Y-26527136D01*
X32192827Y-26534251D01*
X32264485Y-26658365D01*
X32371635Y-26765515D01*
X32502865Y-26841281D01*
X32649234Y-26880500D01*
X32649236Y-26880500D01*
X32800764Y-26880500D01*
X32800766Y-26880500D01*
X32947135Y-26841281D01*
X33078365Y-26765515D01*
X33185515Y-26658365D01*
X33209397Y-26616999D01*
X33259964Y-26568784D01*
X33316784Y-26555000D01*
X33855000Y-26555000D01*
X33855000Y-27055000D01*
X33155000Y-27055000D01*
X33155000Y-27453495D01*
X33193427Y-27646681D01*
X33193430Y-27646693D01*
X33268807Y-27828671D01*
X33268814Y-27828684D01*
X33378248Y-27992462D01*
X33378251Y-27992466D01*
X33517533Y-28131748D01*
X33517537Y-28131751D01*
X33578369Y-28172398D01*
X33623174Y-28226010D01*
X33631881Y-28295335D01*
X33601727Y-28358363D01*
X33542284Y-28395082D01*
X33509478Y-28399500D01*
X28579766Y-28399500D01*
X28512727Y-28379815D01*
X28510875Y-28378602D01*
X28379185Y-28290609D01*
X28379172Y-28290602D01*
X28233501Y-28230264D01*
X28233489Y-28230261D01*
X28078845Y-28199500D01*
X28078842Y-28199500D01*
X27921158Y-28199500D01*
X27921155Y-28199500D01*
X27766510Y-28230261D01*
X27766498Y-28230264D01*
X27620827Y-28290602D01*
X27620814Y-28290609D01*
X27489711Y-28378210D01*
X27489707Y-28378213D01*
X27378213Y-28489707D01*
X27378210Y-28489711D01*
X27290609Y-28620814D01*
X27290602Y-28620827D01*
X27230264Y-28766498D01*
X27230261Y-28766510D01*
X27199500Y-28921153D01*
X27199500Y-29078846D01*
X27230261Y-29233489D01*
X27230264Y-29233501D01*
X27290602Y-29379172D01*
X27290609Y-29379185D01*
X27378210Y-29510288D01*
X27378213Y-29510292D01*
X27489707Y-29621786D01*
X27489711Y-29621789D01*
X27620814Y-29709390D01*
X27620827Y-29709397D01*
X27758695Y-29766503D01*
X27766503Y-29769737D01*
X27921153Y-29800499D01*
X27921156Y-29800500D01*
X27921158Y-29800500D01*
X28078844Y-29800500D01*
X28078845Y-29800499D01*
X28233497Y-29769737D01*
X28379179Y-29709394D01*
X28433663Y-29672989D01*
X28510875Y-29621398D01*
X28577553Y-29600520D01*
X28579766Y-29600500D01*
X35113445Y-29600500D01*
X35180484Y-29620185D01*
X35226239Y-29672989D01*
X35236183Y-29742147D01*
X35231159Y-29760411D01*
X35232031Y-29760676D01*
X35230261Y-29766510D01*
X35199500Y-29921153D01*
X35199500Y-30078846D01*
X35230261Y-30233489D01*
X35230264Y-30233501D01*
X35290602Y-30379172D01*
X35290609Y-30379185D01*
X35378210Y-30510288D01*
X35378213Y-30510292D01*
X35489707Y-30621786D01*
X35489711Y-30621789D01*
X35620814Y-30709390D01*
X35620827Y-30709397D01*
X35694013Y-30739711D01*
X35766503Y-30769737D01*
X35921153Y-30800499D01*
X35921156Y-30800500D01*
X35921158Y-30800500D01*
X36078844Y-30800500D01*
X36078845Y-30800499D01*
X36233497Y-30769737D01*
X36379179Y-30709394D01*
X36424779Y-30678925D01*
X36510875Y-30621398D01*
X36577553Y-30600520D01*
X36579766Y-30600500D01*
X37598724Y-30600500D01*
X37665763Y-30620185D01*
X37686405Y-30636819D01*
X40662772Y-33613186D01*
X40696257Y-33674509D01*
X40696708Y-33676675D01*
X40727608Y-33832017D01*
X40727611Y-33832027D01*
X40787949Y-33977698D01*
X40787956Y-33977711D01*
X40863964Y-34091464D01*
X40884842Y-34158141D01*
X40866358Y-34225522D01*
X40848543Y-34248036D01*
X39733400Y-35363181D01*
X39672077Y-35396666D01*
X39645719Y-35399500D01*
X37886555Y-35399500D01*
X37819516Y-35379815D01*
X37773761Y-35327011D01*
X37763817Y-35257853D01*
X37768840Y-35239588D01*
X37767969Y-35239324D01*
X37769731Y-35233509D01*
X37769737Y-35233497D01*
X37800500Y-35078842D01*
X37800500Y-34924500D01*
X37820185Y-34857461D01*
X37872989Y-34811706D01*
X37924500Y-34800500D01*
X38078844Y-34800500D01*
X38078845Y-34800499D01*
X38233497Y-34769737D01*
X38379179Y-34709394D01*
X38510289Y-34621789D01*
X38621789Y-34510289D01*
X38709394Y-34379179D01*
X38769737Y-34233497D01*
X38800500Y-34078842D01*
X38800500Y-33921158D01*
X38800500Y-33921155D01*
X38800499Y-33921153D01*
X38769737Y-33766503D01*
X38738275Y-33690546D01*
X38709397Y-33620827D01*
X38709390Y-33620814D01*
X38621789Y-33489711D01*
X38621786Y-33489707D01*
X38510292Y-33378213D01*
X38510288Y-33378210D01*
X38379185Y-33290609D01*
X38379172Y-33290602D01*
X38233501Y-33230264D01*
X38233489Y-33230261D01*
X38078845Y-33199500D01*
X38078842Y-33199500D01*
X37921158Y-33199500D01*
X37921155Y-33199500D01*
X37766510Y-33230261D01*
X37766498Y-33230264D01*
X37620827Y-33290602D01*
X37620814Y-33290609D01*
X37489125Y-33378602D01*
X37422447Y-33399480D01*
X37420234Y-33399500D01*
X35579766Y-33399500D01*
X35512727Y-33379815D01*
X35510875Y-33378602D01*
X35379185Y-33290609D01*
X35379172Y-33290602D01*
X35233501Y-33230264D01*
X35233489Y-33230261D01*
X35078845Y-33199500D01*
X35078842Y-33199500D01*
X34921158Y-33199500D01*
X34921155Y-33199500D01*
X34766510Y-33230261D01*
X34766498Y-33230264D01*
X34620827Y-33290602D01*
X34620814Y-33290609D01*
X34489711Y-33378210D01*
X34489707Y-33378213D01*
X34378213Y-33489707D01*
X34378210Y-33489711D01*
X34290609Y-33620814D01*
X34290602Y-33620827D01*
X34230264Y-33766498D01*
X34230261Y-33766510D01*
X34199500Y-33921153D01*
X34199500Y-34078846D01*
X34224392Y-34203987D01*
X34218165Y-34273579D01*
X34175302Y-34328756D01*
X34109412Y-34352000D01*
X34041415Y-34335932D01*
X34015094Y-34315859D01*
X30934574Y-31235339D01*
X30901089Y-31174016D01*
X30900638Y-31171849D01*
X30869738Y-31016510D01*
X30869737Y-31016503D01*
X30862901Y-31000000D01*
X30809397Y-30870827D01*
X30809390Y-30870814D01*
X30721789Y-30739711D01*
X30721786Y-30739707D01*
X30610292Y-30628213D01*
X30610288Y-30628210D01*
X30479185Y-30540609D01*
X30479172Y-30540602D01*
X30333501Y-30480264D01*
X30333489Y-30480261D01*
X30178845Y-30449500D01*
X30178842Y-30449500D01*
X30021158Y-30449500D01*
X30021155Y-30449500D01*
X29866510Y-30480261D01*
X29866498Y-30480264D01*
X29720827Y-30540602D01*
X29720814Y-30540609D01*
X29589711Y-30628210D01*
X29589707Y-30628213D01*
X29478213Y-30739707D01*
X29478210Y-30739711D01*
X29390609Y-30870814D01*
X29390602Y-30870827D01*
X29330264Y-31016498D01*
X29330261Y-31016510D01*
X29299500Y-31171153D01*
X29299500Y-31328846D01*
X29330261Y-31483489D01*
X29330264Y-31483501D01*
X29390602Y-31629172D01*
X29390609Y-31629185D01*
X29478210Y-31760288D01*
X29478213Y-31760292D01*
X29589707Y-31871786D01*
X29589711Y-31871789D01*
X29720814Y-31959390D01*
X29720827Y-31959397D01*
X29866498Y-32019735D01*
X29866503Y-32019737D01*
X29931147Y-32032595D01*
X30021849Y-32050638D01*
X30083760Y-32083023D01*
X30085339Y-32084574D01*
X33351219Y-35350454D01*
X33384704Y-35411777D01*
X33379720Y-35481469D01*
X33366641Y-35507025D01*
X33290608Y-35620816D01*
X33290602Y-35620827D01*
X33230264Y-35766498D01*
X33230261Y-35766510D01*
X33199500Y-35921153D01*
X33199500Y-36078846D01*
X33230261Y-36233489D01*
X33230264Y-36233501D01*
X33290602Y-36379172D01*
X33290609Y-36379185D01*
X33378210Y-36510288D01*
X33378213Y-36510292D01*
X33489707Y-36621786D01*
X33489711Y-36621789D01*
X33620814Y-36709390D01*
X33620827Y-36709397D01*
X33766498Y-36769735D01*
X33766503Y-36769737D01*
X33921153Y-36800499D01*
X33921156Y-36800500D01*
X34075500Y-36800500D01*
X34142539Y-36820185D01*
X34188294Y-36872989D01*
X34199500Y-36924500D01*
X34199500Y-37078846D01*
X34230261Y-37233489D01*
X34230264Y-37233501D01*
X34290602Y-37379172D01*
X34290609Y-37379185D01*
X34378210Y-37510288D01*
X34378213Y-37510292D01*
X34489707Y-37621786D01*
X34489711Y-37621789D01*
X34620814Y-37709390D01*
X34620827Y-37709397D01*
X34766498Y-37769735D01*
X34766503Y-37769737D01*
X34921153Y-37800499D01*
X34921156Y-37800500D01*
X34921158Y-37800500D01*
X35078844Y-37800500D01*
X35078845Y-37800499D01*
X35233497Y-37769737D01*
X35379179Y-37709394D01*
X35383814Y-37706297D01*
X35510875Y-37621398D01*
X35528921Y-37615747D01*
X35544831Y-37605523D01*
X35575792Y-37601071D01*
X35577553Y-37600520D01*
X35579766Y-37600500D01*
X35699903Y-37600500D01*
X35766942Y-37620185D01*
X35787584Y-37636819D01*
X41034584Y-42883819D01*
X41068069Y-42945142D01*
X41063085Y-43014834D01*
X41021213Y-43070767D01*
X40955749Y-43095184D01*
X40946903Y-43095500D01*
X40909139Y-43095500D01*
X40849310Y-43104976D01*
X40729652Y-43123928D01*
X40729649Y-43123928D01*
X40556828Y-43180081D01*
X40556825Y-43180083D01*
X40394909Y-43262583D01*
X40318148Y-43318354D01*
X40247894Y-43369397D01*
X40247892Y-43369399D01*
X40247891Y-43369399D01*
X40119399Y-43497891D01*
X40119399Y-43497892D01*
X40119397Y-43497894D01*
X40081386Y-43550212D01*
X40012583Y-43644909D01*
X39930083Y-43806825D01*
X39930081Y-43806828D01*
X39873928Y-43979649D01*
X39873928Y-43979652D01*
X39845500Y-44159139D01*
X39845500Y-44340860D01*
X39873928Y-44520347D01*
X39873928Y-44520350D01*
X39930081Y-44693171D01*
X39930083Y-44693174D01*
X40012583Y-44855090D01*
X40119397Y-45002106D01*
X40247894Y-45130603D01*
X40309252Y-45175183D01*
X40351917Y-45230512D01*
X40357896Y-45300126D01*
X40325290Y-45361921D01*
X40264451Y-45396278D01*
X40236366Y-45399500D01*
X38579766Y-45399500D01*
X38512727Y-45379815D01*
X38510875Y-45378602D01*
X38379185Y-45290609D01*
X38379172Y-45290602D01*
X38233501Y-45230264D01*
X38233489Y-45230261D01*
X38078845Y-45199500D01*
X38078842Y-45199500D01*
X37921158Y-45199500D01*
X37921155Y-45199500D01*
X37766510Y-45230261D01*
X37766498Y-45230264D01*
X37620827Y-45290602D01*
X37620814Y-45290609D01*
X37489711Y-45378210D01*
X37489707Y-45378213D01*
X37378213Y-45489707D01*
X37378210Y-45489711D01*
X37290609Y-45620814D01*
X37290602Y-45620827D01*
X37230264Y-45766498D01*
X37230261Y-45766510D01*
X37199500Y-45921153D01*
X37199500Y-46078846D01*
X37230261Y-46233489D01*
X37230264Y-46233501D01*
X37290602Y-46379172D01*
X37290609Y-46379185D01*
X37325304Y-46431109D01*
X37346182Y-46497786D01*
X37327698Y-46565167D01*
X37325304Y-46568891D01*
X37290609Y-46620814D01*
X37290602Y-46620827D01*
X37230264Y-46766498D01*
X37230261Y-46766510D01*
X37199500Y-46921153D01*
X37199500Y-47078846D01*
X37230261Y-47233489D01*
X37230264Y-47233501D01*
X37290602Y-47379172D01*
X37290609Y-47379185D01*
X37378210Y-47510288D01*
X37378213Y-47510292D01*
X37489707Y-47621786D01*
X37489711Y-47621789D01*
X37620814Y-47709390D01*
X37620827Y-47709397D01*
X37758316Y-47766346D01*
X37766503Y-47769737D01*
X37921153Y-47800499D01*
X37921156Y-47800500D01*
X37921158Y-47800500D01*
X38078844Y-47800500D01*
X38078845Y-47800499D01*
X38233497Y-47769737D01*
X38379179Y-47709394D01*
X38387642Y-47703739D01*
X38510875Y-47621398D01*
X38577553Y-47600520D01*
X38579766Y-47600500D01*
X46373565Y-47600500D01*
X46440604Y-47620185D01*
X46486359Y-47672989D01*
X46496303Y-47742147D01*
X46495182Y-47748692D01*
X46473710Y-47856635D01*
X46473710Y-48014326D01*
X46504471Y-48168969D01*
X46504474Y-48168981D01*
X46564812Y-48314652D01*
X46564819Y-48314665D01*
X46652420Y-48445768D01*
X46652423Y-48445772D01*
X46763917Y-48557266D01*
X46763921Y-48557269D01*
X46895024Y-48644870D01*
X46895037Y-48644877D01*
X47031172Y-48701265D01*
X47040713Y-48705217D01*
X47105357Y-48718075D01*
X47196059Y-48736118D01*
X47257970Y-48768503D01*
X47259549Y-48770054D01*
X51654869Y-53165374D01*
X51654879Y-53165385D01*
X51659209Y-53169715D01*
X51659210Y-53169716D01*
X51771014Y-53281520D01*
X51771016Y-53281521D01*
X51771020Y-53281524D01*
X51873102Y-53340460D01*
X51907946Y-53360577D01*
X52019749Y-53390534D01*
X52060672Y-53401500D01*
X52060673Y-53401500D01*
X60695548Y-53401500D01*
X60695564Y-53401501D01*
X60703160Y-53401501D01*
X60861271Y-53401501D01*
X60861274Y-53401501D01*
X61014002Y-53360577D01*
X61064121Y-53331639D01*
X61150933Y-53281520D01*
X61262737Y-53169716D01*
X61262738Y-53169713D01*
X61305536Y-53126915D01*
X61366859Y-53093432D01*
X61369024Y-53092982D01*
X61443925Y-53078082D01*
X61524370Y-53062081D01*
X61670052Y-53001738D01*
X61801162Y-52914133D01*
X61912662Y-52802633D01*
X62000267Y-52671523D01*
X62060610Y-52525841D01*
X62091373Y-52371186D01*
X62091373Y-52213502D01*
X62091373Y-52213499D01*
X62064020Y-52075992D01*
X62063619Y-52073974D01*
X62069846Y-52004383D01*
X62112709Y-51949206D01*
X62178598Y-51925961D01*
X62246595Y-51942029D01*
X62272917Y-51962102D01*
X62302786Y-51991971D01*
X62457749Y-52104556D01*
X62468390Y-52112287D01*
X62563553Y-52160775D01*
X62650776Y-52205218D01*
X62650778Y-52205218D01*
X62650781Y-52205220D01*
X62737784Y-52233489D01*
X62845465Y-52268477D01*
X62946557Y-52284488D01*
X63047648Y-52300500D01*
X63047649Y-52300500D01*
X63252351Y-52300500D01*
X63252352Y-52300500D01*
X63454534Y-52268477D01*
X63649219Y-52205220D01*
X63797588Y-52129621D01*
X63866257Y-52116725D01*
X63930997Y-52143001D01*
X63964368Y-52183811D01*
X63989685Y-52233497D01*
X64016657Y-52286433D01*
X64155483Y-52477510D01*
X64322490Y-52644517D01*
X64513567Y-52783343D01*
X64547238Y-52800499D01*
X64724003Y-52890566D01*
X64724005Y-52890566D01*
X64724008Y-52890568D01*
X64844412Y-52929689D01*
X64948631Y-52963553D01*
X65181903Y-53000500D01*
X65181908Y-53000500D01*
X65418097Y-53000500D01*
X65651368Y-52963553D01*
X65875992Y-52890568D01*
X66086433Y-52783343D01*
X66277510Y-52644517D01*
X66444517Y-52477510D01*
X66583343Y-52286433D01*
X66690568Y-52075992D01*
X66763553Y-51851368D01*
X66785665Y-51711755D01*
X66815594Y-51648621D01*
X66874905Y-51611689D01*
X66944768Y-51612687D01*
X66951473Y-51614972D01*
X66962516Y-51619091D01*
X66969444Y-51619835D01*
X67022127Y-51625500D01*
X68817872Y-51625499D01*
X68877483Y-51619091D01*
X69012331Y-51568796D01*
X69127546Y-51482546D01*
X69213796Y-51367331D01*
X69264091Y-51232483D01*
X69270500Y-51172873D01*
X69270499Y-51148979D01*
X69273330Y-51135963D01*
X69283940Y-51116525D01*
X69290179Y-51095275D01*
X69306803Y-51074643D01*
X69306808Y-51074636D01*
X69306811Y-51074634D01*
X69306818Y-51074626D01*
X69977036Y-50404407D01*
X69994075Y-50467993D01*
X70059901Y-50582007D01*
X70152993Y-50675099D01*
X70267007Y-50740925D01*
X70330590Y-50757962D01*
X69698282Y-51390269D01*
X69698282Y-51390270D01*
X69752449Y-51429624D01*
X69941782Y-51526095D01*
X70143870Y-51591757D01*
X70353754Y-51625000D01*
X70566246Y-51625000D01*
X70776127Y-51591757D01*
X70776130Y-51591757D01*
X70978217Y-51526095D01*
X71167554Y-51429622D01*
X71221716Y-51390270D01*
X71221717Y-51390270D01*
X70589408Y-50757962D01*
X70652993Y-50740925D01*
X70767007Y-50675099D01*
X70860099Y-50582007D01*
X70925925Y-50467993D01*
X70942962Y-50404409D01*
X71575270Y-51036717D01*
X71575270Y-51036716D01*
X71614622Y-50982554D01*
X71619514Y-50972954D01*
X71667488Y-50922157D01*
X71735308Y-50905361D01*
X71801444Y-50927897D01*
X71840486Y-50972954D01*
X71845375Y-50982550D01*
X71884728Y-51036716D01*
X72517036Y-50404407D01*
X72534075Y-50467993D01*
X72599901Y-50582007D01*
X72692993Y-50675099D01*
X72807007Y-50740925D01*
X72870590Y-50757962D01*
X72238282Y-51390269D01*
X72238282Y-51390270D01*
X72292449Y-51429624D01*
X72481782Y-51526095D01*
X72683870Y-51591757D01*
X72893754Y-51625000D01*
X73106246Y-51625000D01*
X73316127Y-51591757D01*
X73316130Y-51591757D01*
X73518217Y-51526095D01*
X73707554Y-51429622D01*
X73761716Y-51390270D01*
X73761717Y-51390270D01*
X73129408Y-50757962D01*
X73192993Y-50740925D01*
X73307007Y-50675099D01*
X73400099Y-50582007D01*
X73465925Y-50467993D01*
X73482962Y-50404409D01*
X74115270Y-51036717D01*
X74115270Y-51036716D01*
X74154622Y-50982555D01*
X74159232Y-50973507D01*
X74207205Y-50922709D01*
X74275025Y-50905912D01*
X74341161Y-50928447D01*
X74380204Y-50973504D01*
X74384949Y-50982817D01*
X74509890Y-51154786D01*
X74660213Y-51305109D01*
X74832179Y-51430048D01*
X74832181Y-51430049D01*
X74832184Y-51430051D01*
X75021588Y-51526557D01*
X75223757Y-51592246D01*
X75433713Y-51625500D01*
X75433714Y-51625500D01*
X75646286Y-51625500D01*
X75646287Y-51625500D01*
X75856243Y-51592246D01*
X76058412Y-51526557D01*
X76247816Y-51430051D01*
X76317836Y-51379179D01*
X76419786Y-51305109D01*
X76419788Y-51305106D01*
X76419792Y-51305104D01*
X76570104Y-51154792D01*
X76570106Y-51154788D01*
X76570109Y-51154786D01*
X76695048Y-50982820D01*
X76695050Y-50982817D01*
X76695051Y-50982816D01*
X76699514Y-50974054D01*
X76747488Y-50923259D01*
X76815308Y-50906463D01*
X76881444Y-50928999D01*
X76920486Y-50974056D01*
X76924951Y-50982820D01*
X77049890Y-51154786D01*
X77200213Y-51305109D01*
X77372179Y-51430048D01*
X77372181Y-51430049D01*
X77372184Y-51430051D01*
X77561588Y-51526557D01*
X77763757Y-51592246D01*
X77973713Y-51625500D01*
X77973714Y-51625500D01*
X78186286Y-51625500D01*
X78186287Y-51625500D01*
X78396243Y-51592246D01*
X78598412Y-51526557D01*
X78787816Y-51430051D01*
X78857836Y-51379179D01*
X78959786Y-51305109D01*
X78959788Y-51305106D01*
X78959792Y-51305104D01*
X79110104Y-51154792D01*
X79110106Y-51154788D01*
X79110109Y-51154786D01*
X79235048Y-50982820D01*
X79235050Y-50982817D01*
X79235051Y-50982816D01*
X79265015Y-50924007D01*
X79312990Y-50873212D01*
X79380810Y-50856417D01*
X79446945Y-50878954D01*
X79490397Y-50933669D01*
X79499500Y-50980303D01*
X79499500Y-54997293D01*
X79499382Y-55002702D01*
X79482614Y-55386749D01*
X79481671Y-55397526D01*
X79468849Y-55494912D01*
X79440582Y-55558809D01*
X79433591Y-55566407D01*
X75566407Y-59433591D01*
X75505084Y-59467076D01*
X75494912Y-59468849D01*
X75397526Y-59481671D01*
X75386749Y-59482614D01*
X75002703Y-59499382D01*
X74997294Y-59499500D01*
X25002706Y-59499500D01*
X24997297Y-59499382D01*
X24613250Y-59482614D01*
X24602473Y-59481671D01*
X24505086Y-59468849D01*
X24441189Y-59440582D01*
X24433591Y-59433591D01*
X21916228Y-56916228D01*
X35012000Y-56916228D01*
X35012000Y-57083771D01*
X35044682Y-57248074D01*
X35044684Y-57248082D01*
X35108795Y-57402860D01*
X35201873Y-57542162D01*
X35320337Y-57660626D01*
X35412994Y-57722537D01*
X35459637Y-57753703D01*
X35614418Y-57817816D01*
X35671450Y-57829160D01*
X35733359Y-57861544D01*
X35734939Y-57863096D01*
X36116953Y-58245111D01*
X36116954Y-58245112D01*
X36231692Y-58321777D01*
X36359167Y-58374578D01*
X36359172Y-58374580D01*
X36359176Y-58374580D01*
X36359177Y-58374581D01*
X36494503Y-58401500D01*
X36494506Y-58401500D01*
X49367996Y-58401500D01*
X49459040Y-58383389D01*
X49503328Y-58374580D01*
X49567069Y-58348177D01*
X49630807Y-58321777D01*
X49630808Y-58321776D01*
X49630811Y-58321775D01*
X49745543Y-58245114D01*
X50127562Y-57863093D01*
X50188881Y-57829611D01*
X50190946Y-57829180D01*
X50248082Y-57817816D01*
X50402863Y-57753703D01*
X50542162Y-57660626D01*
X50660626Y-57542162D01*
X50753703Y-57402863D01*
X50817816Y-57248082D01*
X50850500Y-57083767D01*
X50850500Y-56916233D01*
X50817816Y-56751918D01*
X50753703Y-56597137D01*
X50722537Y-56550494D01*
X50660626Y-56457837D01*
X50542162Y-56339373D01*
X50402860Y-56246295D01*
X50248082Y-56182184D01*
X50248074Y-56182182D01*
X50083771Y-56149500D01*
X50083767Y-56149500D01*
X49916233Y-56149500D01*
X49916228Y-56149500D01*
X49751925Y-56182182D01*
X49751917Y-56182184D01*
X49597139Y-56246295D01*
X49457837Y-56339373D01*
X49339373Y-56457837D01*
X49246295Y-56597139D01*
X49182184Y-56751917D01*
X49182183Y-56751922D01*
X49170839Y-56808949D01*
X49162074Y-56825703D01*
X49158055Y-56844182D01*
X49139307Y-56869224D01*
X49138453Y-56870859D01*
X49136904Y-56872436D01*
X49045162Y-56964180D01*
X48983839Y-56997666D01*
X48957480Y-57000500D01*
X36905019Y-57000500D01*
X36837980Y-56980815D01*
X36817338Y-56964181D01*
X36725596Y-56872439D01*
X36692111Y-56811116D01*
X36691674Y-56809021D01*
X36680316Y-56751918D01*
X36616203Y-56597137D01*
X36585037Y-56550494D01*
X36523126Y-56457837D01*
X36404662Y-56339373D01*
X36265360Y-56246295D01*
X36110582Y-56182184D01*
X36110574Y-56182182D01*
X35946271Y-56149500D01*
X35946267Y-56149500D01*
X35778733Y-56149500D01*
X35778728Y-56149500D01*
X35614425Y-56182182D01*
X35614417Y-56182184D01*
X35459639Y-56246295D01*
X35320337Y-56339373D01*
X35201873Y-56457837D01*
X35108795Y-56597139D01*
X35044684Y-56751917D01*
X35044682Y-56751925D01*
X35012000Y-56916228D01*
X21916228Y-56916228D01*
X20566407Y-55566407D01*
X20532922Y-55505084D01*
X20531152Y-55494932D01*
X20518326Y-55397506D01*
X20517386Y-55386771D01*
X20500618Y-55002702D01*
X20500500Y-54997293D01*
X20500500Y-52882428D01*
X23160775Y-52882428D01*
X23160775Y-53040121D01*
X23191536Y-53194764D01*
X23191539Y-53194776D01*
X23251877Y-53340447D01*
X23251884Y-53340460D01*
X23339877Y-53472149D01*
X23360755Y-53538826D01*
X23360775Y-53541040D01*
X23360775Y-55478190D01*
X23341090Y-55545229D01*
X23339878Y-55547080D01*
X23290608Y-55620817D01*
X23290602Y-55620828D01*
X23230264Y-55766498D01*
X23230261Y-55766510D01*
X23199500Y-55921153D01*
X23199500Y-56078846D01*
X23230261Y-56233489D01*
X23230264Y-56233501D01*
X23290602Y-56379172D01*
X23290609Y-56379185D01*
X23378210Y-56510288D01*
X23378213Y-56510292D01*
X23489707Y-56621786D01*
X23489711Y-56621789D01*
X23620814Y-56709390D01*
X23620827Y-56709397D01*
X23766498Y-56769735D01*
X23766503Y-56769737D01*
X23921153Y-56800499D01*
X23921156Y-56800500D01*
X23921158Y-56800500D01*
X24078844Y-56800500D01*
X24139051Y-56788524D01*
X24139051Y-56788523D01*
X24233497Y-56769737D01*
X24379179Y-56709394D01*
X24510289Y-56621789D01*
X24621789Y-56510289D01*
X24709394Y-56379179D01*
X24769737Y-56233497D01*
X24800500Y-56078842D01*
X24800500Y-55921158D01*
X24800500Y-55921155D01*
X24800499Y-55921153D01*
X24769738Y-55766510D01*
X24769737Y-55766503D01*
X24769735Y-55766498D01*
X24709397Y-55620827D01*
X24709390Y-55620814D01*
X24621789Y-55489711D01*
X24621786Y-55489707D01*
X24598094Y-55466015D01*
X24564609Y-55404692D01*
X24561775Y-55378334D01*
X24561775Y-53541040D01*
X24581460Y-53474001D01*
X24582673Y-53472149D01*
X24670665Y-53340460D01*
X24670665Y-53340459D01*
X24670669Y-53340454D01*
X24731012Y-53194772D01*
X24761775Y-53040117D01*
X24761775Y-52882433D01*
X24761775Y-52882430D01*
X24761774Y-52882428D01*
X24745902Y-52802636D01*
X24731012Y-52727778D01*
X24731010Y-52727773D01*
X24670672Y-52582102D01*
X24670665Y-52582089D01*
X24583064Y-52450986D01*
X24583061Y-52450982D01*
X24471567Y-52339488D01*
X24471563Y-52339485D01*
X24340460Y-52251884D01*
X24340447Y-52251877D01*
X24194776Y-52191539D01*
X24194764Y-52191536D01*
X24040120Y-52160775D01*
X24040117Y-52160775D01*
X23882433Y-52160775D01*
X23882430Y-52160775D01*
X23727785Y-52191536D01*
X23727773Y-52191539D01*
X23582102Y-52251877D01*
X23582089Y-52251884D01*
X23450986Y-52339485D01*
X23450982Y-52339488D01*
X23339488Y-52450982D01*
X23339485Y-52450986D01*
X23251884Y-52582089D01*
X23251877Y-52582102D01*
X23191539Y-52727773D01*
X23191536Y-52727785D01*
X23160775Y-52882428D01*
X20500500Y-52882428D01*
X20500500Y-48671153D01*
X24799500Y-48671153D01*
X24799500Y-48828846D01*
X24830261Y-48983489D01*
X24830264Y-48983501D01*
X24890602Y-49129172D01*
X24890609Y-49129185D01*
X24978210Y-49260288D01*
X24978213Y-49260292D01*
X25089707Y-49371786D01*
X25089711Y-49371789D01*
X25220814Y-49459390D01*
X25220827Y-49459397D01*
X25366498Y-49519735D01*
X25366503Y-49519737D01*
X25431147Y-49532595D01*
X25521849Y-49550638D01*
X25583760Y-49583023D01*
X25585339Y-49584574D01*
X25951193Y-49950428D01*
X25984678Y-50011751D01*
X25979694Y-50081443D01*
X25937822Y-50137376D01*
X25887704Y-50159726D01*
X25727783Y-50191536D01*
X25727773Y-50191539D01*
X25582102Y-50251877D01*
X25582089Y-50251884D01*
X25450986Y-50339485D01*
X25450982Y-50339488D01*
X25339488Y-50450982D01*
X25339485Y-50450986D01*
X25251884Y-50582089D01*
X25251877Y-50582102D01*
X25191539Y-50727773D01*
X25191536Y-50727785D01*
X25160775Y-50882428D01*
X25160775Y-51040121D01*
X25191536Y-51194764D01*
X25191539Y-51194776D01*
X25251877Y-51340447D01*
X25251884Y-51340460D01*
X25339485Y-51471563D01*
X25339488Y-51471567D01*
X25450982Y-51583061D01*
X25450986Y-51583064D01*
X25582089Y-51670665D01*
X25582102Y-51670672D01*
X25727773Y-51731010D01*
X25727778Y-51731012D01*
X25792422Y-51743870D01*
X25883124Y-51761913D01*
X25945035Y-51794298D01*
X25946614Y-51795849D01*
X26165425Y-52014660D01*
X26198910Y-52075983D01*
X26199361Y-52078149D01*
X26230261Y-52233491D01*
X26230264Y-52233501D01*
X26290602Y-52379172D01*
X26290609Y-52379185D01*
X26378210Y-52510288D01*
X26378213Y-52510292D01*
X26489707Y-52621786D01*
X26489711Y-52621789D01*
X26620814Y-52709390D01*
X26620827Y-52709397D01*
X26766498Y-52769735D01*
X26766503Y-52769737D01*
X26921153Y-52800499D01*
X26921156Y-52800500D01*
X26921158Y-52800500D01*
X27078844Y-52800500D01*
X27078845Y-52800499D01*
X27233497Y-52769737D01*
X27379179Y-52709394D01*
X27510289Y-52621789D01*
X27621789Y-52510289D01*
X27709394Y-52379179D01*
X27769737Y-52233497D01*
X27800500Y-52078842D01*
X27800500Y-52078839D01*
X27801548Y-52073571D01*
X27806257Y-52064566D01*
X27806983Y-52054428D01*
X27822179Y-52034128D01*
X27833932Y-52011660D01*
X27842764Y-52006630D01*
X27848855Y-51998495D01*
X27872612Y-51989633D01*
X27894648Y-51977086D01*
X27904796Y-51977629D01*
X27914319Y-51974078D01*
X27939096Y-51979468D01*
X27964417Y-51980825D01*
X27974478Y-51987165D01*
X27982592Y-51988930D01*
X28010846Y-52010081D01*
X28028639Y-52027874D01*
X28028649Y-52027885D01*
X28032979Y-52032215D01*
X28032980Y-52032216D01*
X28144784Y-52144020D01*
X28202145Y-52177137D01*
X28281715Y-52223077D01*
X28434442Y-52264000D01*
X28434443Y-52264000D01*
X41249831Y-52264000D01*
X41249847Y-52264001D01*
X41257443Y-52264001D01*
X41415554Y-52264001D01*
X41415557Y-52264001D01*
X41568285Y-52223077D01*
X41647855Y-52177137D01*
X41705216Y-52144020D01*
X41817020Y-52032216D01*
X41817020Y-52032214D01*
X41827224Y-52022011D01*
X41827227Y-52022006D01*
X42014661Y-51834572D01*
X42075983Y-51801089D01*
X42078150Y-51800638D01*
X42136085Y-51789113D01*
X42233497Y-51769737D01*
X42379179Y-51709394D01*
X42510289Y-51621789D01*
X42621789Y-51510289D01*
X42709394Y-51379179D01*
X42769737Y-51233497D01*
X42800500Y-51078842D01*
X42800500Y-50921158D01*
X42800500Y-50921155D01*
X42800499Y-50921153D01*
X42786445Y-50850500D01*
X42769737Y-50766503D01*
X42747463Y-50712729D01*
X42709397Y-50620827D01*
X42709390Y-50620814D01*
X42621789Y-50489711D01*
X42621786Y-50489707D01*
X42510292Y-50378213D01*
X42510288Y-50378210D01*
X42379185Y-50290609D01*
X42379172Y-50290602D01*
X42233501Y-50230264D01*
X42233489Y-50230261D01*
X42078845Y-50199500D01*
X42078842Y-50199500D01*
X41921158Y-50199500D01*
X41921155Y-50199500D01*
X41766510Y-50230261D01*
X41766498Y-50230264D01*
X41620827Y-50290602D01*
X41620814Y-50290609D01*
X41489711Y-50378210D01*
X41489707Y-50378213D01*
X41378213Y-50489707D01*
X41378210Y-50489711D01*
X41290609Y-50620814D01*
X41290602Y-50620827D01*
X41230264Y-50766498D01*
X41230261Y-50766508D01*
X41199362Y-50921848D01*
X41190597Y-50938603D01*
X41186578Y-50957082D01*
X41167833Y-50982120D01*
X41166977Y-50983759D01*
X41165427Y-50985336D01*
X41124084Y-51026680D01*
X41062762Y-51060166D01*
X41036402Y-51063000D01*
X39918046Y-51063000D01*
X39851007Y-51043315D01*
X39805252Y-50990511D01*
X39796429Y-50963191D01*
X39778531Y-50873212D01*
X39769737Y-50829003D01*
X39754995Y-50793412D01*
X39709939Y-50684636D01*
X39700500Y-50637184D01*
X39700500Y-49425316D01*
X39709939Y-49377864D01*
X39769735Y-49233501D01*
X39769737Y-49233497D01*
X39800500Y-49078842D01*
X39800500Y-48921158D01*
X39800500Y-48921155D01*
X39800499Y-48921153D01*
X39799913Y-48918209D01*
X39769737Y-48766503D01*
X39764435Y-48753703D01*
X39709397Y-48620827D01*
X39709390Y-48620814D01*
X39621789Y-48489711D01*
X39621786Y-48489707D01*
X39510292Y-48378213D01*
X39510288Y-48378210D01*
X39379185Y-48290609D01*
X39379172Y-48290602D01*
X39233501Y-48230264D01*
X39233489Y-48230261D01*
X39078845Y-48199500D01*
X39078842Y-48199500D01*
X38921158Y-48199500D01*
X38921155Y-48199500D01*
X38766510Y-48230261D01*
X38766498Y-48230264D01*
X38620827Y-48290602D01*
X38620814Y-48290609D01*
X38489711Y-48378210D01*
X38489707Y-48378213D01*
X38378213Y-48489707D01*
X38378210Y-48489711D01*
X38290609Y-48620814D01*
X38290602Y-48620827D01*
X38230264Y-48766498D01*
X38230261Y-48766510D01*
X38199500Y-48921153D01*
X38199500Y-49078846D01*
X38230261Y-49233489D01*
X38230264Y-49233501D01*
X38290061Y-49377864D01*
X38299500Y-49425316D01*
X38299500Y-50637184D01*
X38290061Y-50684636D01*
X38230264Y-50828998D01*
X38230261Y-50829010D01*
X38203571Y-50963191D01*
X38171186Y-51025102D01*
X38110471Y-51059676D01*
X38081954Y-51063000D01*
X29924500Y-51063000D01*
X29857461Y-51043315D01*
X29811706Y-50990511D01*
X29800500Y-50939000D01*
X29800500Y-50921155D01*
X29800499Y-50921153D01*
X29786445Y-50850500D01*
X29769737Y-50766503D01*
X29747463Y-50712729D01*
X29709397Y-50620827D01*
X29709390Y-50620814D01*
X29621398Y-50489125D01*
X29600520Y-50422447D01*
X29600500Y-50420234D01*
X29600500Y-49070945D01*
X29600500Y-49070943D01*
X29559577Y-48918216D01*
X29520481Y-48850499D01*
X29480524Y-48781290D01*
X29480518Y-48781282D01*
X29434573Y-48735337D01*
X29401088Y-48674014D01*
X29400637Y-48671847D01*
X29374841Y-48542162D01*
X29369737Y-48516503D01*
X29369735Y-48516498D01*
X29309397Y-48370827D01*
X29309390Y-48370814D01*
X29221789Y-48239711D01*
X29221786Y-48239707D01*
X29110292Y-48128213D01*
X29110288Y-48128210D01*
X28979185Y-48040609D01*
X28979172Y-48040602D01*
X28833501Y-47980264D01*
X28833489Y-47980261D01*
X28678845Y-47949500D01*
X28678842Y-47949500D01*
X28521158Y-47949500D01*
X28521155Y-47949500D01*
X28366510Y-47980261D01*
X28366498Y-47980264D01*
X28220827Y-48040602D01*
X28220814Y-48040609D01*
X28089711Y-48128210D01*
X28089707Y-48128213D01*
X27978213Y-48239707D01*
X27978210Y-48239711D01*
X27890609Y-48370814D01*
X27890602Y-48370827D01*
X27830264Y-48516498D01*
X27830261Y-48516510D01*
X27799500Y-48671153D01*
X27799500Y-48828846D01*
X27830261Y-48983489D01*
X27830264Y-48983501D01*
X27890602Y-49129172D01*
X27890609Y-49129185D01*
X27978210Y-49260288D01*
X27978213Y-49260292D01*
X28089707Y-49371786D01*
X28089711Y-49371789D01*
X28220814Y-49459390D01*
X28220827Y-49459397D01*
X28322952Y-49501698D01*
X28377356Y-49545538D01*
X28399421Y-49611833D01*
X28399500Y-49616259D01*
X28399500Y-50400903D01*
X28379815Y-50467942D01*
X28327011Y-50513697D01*
X28257853Y-50523641D01*
X28194297Y-50494616D01*
X28187819Y-50488584D01*
X26434574Y-48735339D01*
X26401089Y-48674016D01*
X26400638Y-48671849D01*
X26374841Y-48542162D01*
X26369737Y-48516503D01*
X26369735Y-48516498D01*
X26309397Y-48370827D01*
X26309390Y-48370814D01*
X26221789Y-48239711D01*
X26221786Y-48239707D01*
X26110292Y-48128213D01*
X26110288Y-48128210D01*
X25979185Y-48040609D01*
X25979172Y-48040602D01*
X25833501Y-47980264D01*
X25833489Y-47980261D01*
X25678845Y-47949500D01*
X25678842Y-47949500D01*
X25521158Y-47949500D01*
X25521155Y-47949500D01*
X25366510Y-47980261D01*
X25366498Y-47980264D01*
X25220827Y-48040602D01*
X25220814Y-48040609D01*
X25089711Y-48128210D01*
X25089707Y-48128213D01*
X24978213Y-48239707D01*
X24978210Y-48239711D01*
X24890609Y-48370814D01*
X24890602Y-48370827D01*
X24830264Y-48516498D01*
X24830261Y-48516510D01*
X24799500Y-48671153D01*
X20500500Y-48671153D01*
X20500500Y-47608653D01*
X31199500Y-47608653D01*
X31199500Y-47766346D01*
X31230261Y-47920989D01*
X31230264Y-47921001D01*
X31290602Y-48066672D01*
X31290609Y-48066685D01*
X31378210Y-48197788D01*
X31378213Y-48197792D01*
X31489707Y-48309286D01*
X31489711Y-48309289D01*
X31620814Y-48396890D01*
X31620827Y-48396897D01*
X31766498Y-48457235D01*
X31766503Y-48457237D01*
X31917041Y-48487181D01*
X31921153Y-48487999D01*
X31921156Y-48488000D01*
X31921158Y-48488000D01*
X32078844Y-48488000D01*
X32078845Y-48487999D01*
X32233497Y-48457237D01*
X32346166Y-48410567D01*
X32379172Y-48396897D01*
X32379172Y-48396896D01*
X32379179Y-48396894D01*
X32510289Y-48309289D01*
X32621789Y-48197789D01*
X32709394Y-48066679D01*
X32769737Y-47920997D01*
X32793706Y-47800499D01*
X32800638Y-47765650D01*
X32833023Y-47703739D01*
X32834515Y-47702219D01*
X33480520Y-47056216D01*
X33559577Y-46919284D01*
X33600501Y-46766557D01*
X33600501Y-46608442D01*
X33600501Y-46600847D01*
X33600500Y-46600829D01*
X33600500Y-46579765D01*
X33620185Y-46512726D01*
X33621398Y-46510874D01*
X33674440Y-46431492D01*
X33709394Y-46379179D01*
X33711222Y-46374767D01*
X33723067Y-46346166D01*
X33769737Y-46233497D01*
X33800500Y-46078842D01*
X33800500Y-45921158D01*
X33800500Y-45921155D01*
X33800499Y-45921153D01*
X33788616Y-45861416D01*
X33769737Y-45766503D01*
X33709794Y-45621786D01*
X33709397Y-45620827D01*
X33709390Y-45620814D01*
X33621789Y-45489711D01*
X33621786Y-45489707D01*
X33510292Y-45378213D01*
X33510288Y-45378210D01*
X33379185Y-45290609D01*
X33379172Y-45290602D01*
X33233501Y-45230264D01*
X33233489Y-45230261D01*
X33078845Y-45199500D01*
X33078842Y-45199500D01*
X32921158Y-45199500D01*
X32921155Y-45199500D01*
X32766510Y-45230261D01*
X32766498Y-45230264D01*
X32620827Y-45290602D01*
X32620814Y-45290609D01*
X32489711Y-45378210D01*
X32489707Y-45378213D01*
X32378213Y-45489707D01*
X32378210Y-45489711D01*
X32290609Y-45620814D01*
X32290602Y-45620827D01*
X32230264Y-45766498D01*
X32230261Y-45766510D01*
X32199500Y-45921153D01*
X32199500Y-46078846D01*
X32230261Y-46233489D01*
X32230264Y-46233501D01*
X32290602Y-46379172D01*
X32290606Y-46379179D01*
X32294495Y-46385000D01*
X32301551Y-46395559D01*
X32322429Y-46462237D01*
X32303945Y-46529617D01*
X32286130Y-46552132D01*
X31985338Y-46852925D01*
X31924015Y-46886410D01*
X31921849Y-46886861D01*
X31766508Y-46917761D01*
X31766498Y-46917764D01*
X31620827Y-46978102D01*
X31620814Y-46978109D01*
X31489711Y-47065710D01*
X31489707Y-47065713D01*
X31378213Y-47177207D01*
X31378210Y-47177211D01*
X31290609Y-47308314D01*
X31290602Y-47308327D01*
X31230264Y-47453998D01*
X31230261Y-47454010D01*
X31199500Y-47608653D01*
X20500500Y-47608653D01*
X20500500Y-25002706D01*
X20500618Y-24997297D01*
X20507027Y-24850499D01*
X20517387Y-24613224D01*
X20518325Y-24602497D01*
X20531150Y-24505083D01*
X20559415Y-24441190D01*
X20566383Y-24433616D01*
X21271509Y-23728490D01*
X21332828Y-23695008D01*
X21402520Y-23699992D01*
X21458453Y-23741864D01*
X21469671Y-23759879D01*
X21539964Y-23897836D01*
X21579317Y-23952002D01*
X22211626Y-23319694D01*
X22228664Y-23383279D01*
X22294490Y-23497293D01*
X22387582Y-23590385D01*
X22501596Y-23656211D01*
X22565179Y-23673248D01*
X21932871Y-24305555D01*
X21932871Y-24305556D01*
X21987041Y-24344912D01*
X21987040Y-24344912D01*
X21996084Y-24349520D01*
X22046881Y-24397494D01*
X22063676Y-24465315D01*
X22041139Y-24531450D01*
X21996088Y-24570488D01*
X21986771Y-24575235D01*
X21814802Y-24700176D01*
X21664479Y-24850499D01*
X21539540Y-25022465D01*
X21443033Y-25211871D01*
X21377342Y-25414046D01*
X21367173Y-25478251D01*
X21344089Y-25623999D01*
X21344089Y-25836573D01*
X21345638Y-25846351D01*
X21377342Y-26046525D01*
X21377342Y-26046527D01*
X21377343Y-26046529D01*
X21438094Y-26233501D01*
X21443033Y-26248700D01*
X21539540Y-26438106D01*
X21664479Y-26610072D01*
X21778019Y-26723612D01*
X21811504Y-26784935D01*
X21806520Y-26854627D01*
X21764648Y-26910560D01*
X21733672Y-26927475D01*
X21602258Y-26976489D01*
X21602253Y-26976492D01*
X21487044Y-27062738D01*
X21487041Y-27062741D01*
X21400795Y-27177950D01*
X21400791Y-27177957D01*
X21350497Y-27312803D01*
X21346026Y-27354395D01*
X21344090Y-27372409D01*
X21344089Y-27372421D01*
X21344089Y-29168156D01*
X21344090Y-29168162D01*
X21350497Y-29227769D01*
X21400791Y-29362614D01*
X21400795Y-29362621D01*
X21487041Y-29477830D01*
X21487044Y-29477833D01*
X21602253Y-29564079D01*
X21602260Y-29564083D01*
X21737106Y-29614377D01*
X21737105Y-29614377D01*
X21744033Y-29615121D01*
X21796716Y-29620786D01*
X23592461Y-29620785D01*
X23652072Y-29614377D01*
X23786920Y-29564082D01*
X23902135Y-29477832D01*
X23988385Y-29362617D01*
X24038680Y-29227769D01*
X24045089Y-29168159D01*
X24045088Y-27372414D01*
X24038680Y-27312803D01*
X23988385Y-27177955D01*
X23988384Y-27177954D01*
X23988382Y-27177950D01*
X23913523Y-27077952D01*
X23913521Y-27077950D01*
X23907729Y-27070213D01*
X23902135Y-27062740D01*
X23902133Y-27062739D01*
X23902133Y-27062738D01*
X23786924Y-26976492D01*
X23786917Y-26976488D01*
X23655506Y-26927475D01*
X23599572Y-26885604D01*
X23575155Y-26820139D01*
X23590007Y-26751866D01*
X23611152Y-26723618D01*
X23724693Y-26610078D01*
X23758766Y-26563181D01*
X23849637Y-26438106D01*
X23849636Y-26438106D01*
X23849640Y-26438102D01*
X23946146Y-26248698D01*
X23976102Y-26156504D01*
X24515000Y-26156504D01*
X24515000Y-26555000D01*
X25215000Y-26555000D01*
X25215000Y-27055000D01*
X24515000Y-27055000D01*
X24515000Y-27453495D01*
X24553427Y-27646681D01*
X24553430Y-27646693D01*
X24628807Y-27828671D01*
X24628814Y-27828684D01*
X24738248Y-27992462D01*
X24738251Y-27992466D01*
X24877533Y-28131748D01*
X24877537Y-28131751D01*
X25041315Y-28241185D01*
X25041328Y-28241192D01*
X25223308Y-28316569D01*
X25265000Y-28324862D01*
X25265000Y-27521988D01*
X25274940Y-27539205D01*
X25330795Y-27595060D01*
X25399204Y-27634556D01*
X25475504Y-27655000D01*
X25554496Y-27655000D01*
X25630796Y-27634556D01*
X25699205Y-27595060D01*
X25755060Y-27539205D01*
X25765000Y-27521988D01*
X25765000Y-28324862D01*
X25806690Y-28316569D01*
X25806692Y-28316569D01*
X25988671Y-28241192D01*
X25988684Y-28241185D01*
X26152462Y-28131751D01*
X26152466Y-28131748D01*
X26291748Y-27992466D01*
X26291751Y-27992462D01*
X26401185Y-27828684D01*
X26401192Y-27828671D01*
X26476569Y-27646693D01*
X26476572Y-27646681D01*
X26514999Y-27453495D01*
X26515000Y-27453492D01*
X26515000Y-27055000D01*
X25815000Y-27055000D01*
X25815000Y-26555000D01*
X26353216Y-26555000D01*
X26420255Y-26574685D01*
X26460602Y-26616999D01*
X26484485Y-26658365D01*
X26591635Y-26765515D01*
X26722865Y-26841281D01*
X26869234Y-26880500D01*
X26869236Y-26880500D01*
X27020764Y-26880500D01*
X27020766Y-26880500D01*
X27167135Y-26841281D01*
X27298365Y-26765515D01*
X27405515Y-26658365D01*
X27481281Y-26527135D01*
X27520500Y-26380766D01*
X27520500Y-26229234D01*
X27481281Y-26082865D01*
X27405515Y-25951635D01*
X27298365Y-25844485D01*
X27228406Y-25804094D01*
X27167136Y-25768719D01*
X27093950Y-25749109D01*
X27020766Y-25729500D01*
X26869234Y-25729500D01*
X26722863Y-25768719D01*
X26631428Y-25821510D01*
X26591635Y-25844485D01*
X26591633Y-25844486D01*
X26584597Y-25848549D01*
X26583327Y-25846349D01*
X26529995Y-25866960D01*
X26461552Y-25852914D01*
X26411568Y-25804094D01*
X26405131Y-25790838D01*
X26401192Y-25781328D01*
X26401185Y-25781315D01*
X26291751Y-25617537D01*
X26291748Y-25617533D01*
X26152466Y-25478251D01*
X26152462Y-25478248D01*
X25988684Y-25368814D01*
X25988671Y-25368807D01*
X25806691Y-25293429D01*
X25806683Y-25293427D01*
X25765000Y-25285135D01*
X25765000Y-26088011D01*
X25755060Y-26070795D01*
X25699205Y-26014940D01*
X25630796Y-25975444D01*
X25554496Y-25955000D01*
X25475504Y-25955000D01*
X25399204Y-25975444D01*
X25330795Y-26014940D01*
X25274940Y-26070795D01*
X25265000Y-26088011D01*
X25265000Y-25285136D01*
X25264999Y-25285135D01*
X25223316Y-25293427D01*
X25223308Y-25293429D01*
X25041328Y-25368807D01*
X25041315Y-25368814D01*
X24877537Y-25478248D01*
X24877533Y-25478251D01*
X24738251Y-25617533D01*
X24738248Y-25617537D01*
X24628814Y-25781315D01*
X24628807Y-25781328D01*
X24553430Y-25963306D01*
X24553427Y-25963318D01*
X24515000Y-26156504D01*
X23976102Y-26156504D01*
X24011835Y-26046529D01*
X24045089Y-25836573D01*
X24045089Y-25623999D01*
X24011835Y-25414043D01*
X23946146Y-25211874D01*
X23849640Y-25022470D01*
X23849638Y-25022467D01*
X23849637Y-25022465D01*
X23724698Y-24850499D01*
X23574375Y-24700176D01*
X23402406Y-24575235D01*
X23393093Y-24570490D01*
X23342296Y-24522516D01*
X23325501Y-24454695D01*
X23348038Y-24388560D01*
X23393096Y-24349518D01*
X23402144Y-24344908D01*
X23456305Y-24305556D01*
X23456306Y-24305556D01*
X22823997Y-23673248D01*
X22887582Y-23656211D01*
X23001596Y-23590385D01*
X23094688Y-23497293D01*
X23160514Y-23383279D01*
X23177551Y-23319694D01*
X23809859Y-23952003D01*
X23809859Y-23952002D01*
X23849211Y-23897840D01*
X23945684Y-23708503D01*
X24011346Y-23506416D01*
X24011346Y-23506413D01*
X24044589Y-23296532D01*
X24044589Y-23084039D01*
X24011346Y-22874158D01*
X24011345Y-22874152D01*
X24007383Y-22861958D01*
X24007382Y-22861956D01*
X23945684Y-22672068D01*
X23849213Y-22482735D01*
X23809859Y-22428568D01*
X23809858Y-22428568D01*
X23177551Y-23060876D01*
X23160514Y-22997293D01*
X23094688Y-22883279D01*
X23001596Y-22790187D01*
X22887582Y-22724361D01*
X22823997Y-22707323D01*
X23404815Y-22126504D01*
X24515000Y-22126504D01*
X24515000Y-22375000D01*
X25215000Y-22375000D01*
X25215000Y-22875000D01*
X24515000Y-22875000D01*
X24515000Y-23123495D01*
X24553427Y-23316681D01*
X24553430Y-23316693D01*
X24628807Y-23498671D01*
X24628814Y-23498684D01*
X24738248Y-23662462D01*
X24738251Y-23662466D01*
X24877533Y-23801748D01*
X24877537Y-23801751D01*
X25041315Y-23911185D01*
X25041328Y-23911192D01*
X25223308Y-23986569D01*
X25265000Y-23994862D01*
X25265000Y-23191988D01*
X25274940Y-23209205D01*
X25330795Y-23265060D01*
X25399204Y-23304556D01*
X25475504Y-23325000D01*
X25554496Y-23325000D01*
X25630796Y-23304556D01*
X25699205Y-23265060D01*
X25755060Y-23209205D01*
X25765000Y-23191988D01*
X25765000Y-23994862D01*
X25806690Y-23986569D01*
X25806692Y-23986569D01*
X25988671Y-23911192D01*
X25988684Y-23911185D01*
X26152462Y-23801751D01*
X26152466Y-23801748D01*
X26291748Y-23662466D01*
X26291751Y-23662462D01*
X26401185Y-23498684D01*
X26401192Y-23498671D01*
X26476569Y-23316693D01*
X26476572Y-23316681D01*
X26514999Y-23123495D01*
X26515000Y-23123492D01*
X26515000Y-22875000D01*
X25815000Y-22875000D01*
X25815000Y-22375000D01*
X26515000Y-22375000D01*
X26515000Y-22126508D01*
X26514999Y-22126504D01*
X33155000Y-22126504D01*
X33155000Y-22375000D01*
X33855000Y-22375000D01*
X33855000Y-22875000D01*
X33155000Y-22875000D01*
X33155000Y-23123495D01*
X33193427Y-23316681D01*
X33193430Y-23316693D01*
X33268807Y-23498671D01*
X33268814Y-23498684D01*
X33378248Y-23662462D01*
X33378251Y-23662466D01*
X33517533Y-23801748D01*
X33517537Y-23801751D01*
X33681315Y-23911185D01*
X33681328Y-23911192D01*
X33863308Y-23986569D01*
X33905000Y-23994862D01*
X33905000Y-23191988D01*
X33914940Y-23209205D01*
X33970795Y-23265060D01*
X34039204Y-23304556D01*
X34115504Y-23325000D01*
X34194496Y-23325000D01*
X34270796Y-23304556D01*
X34339205Y-23265060D01*
X34395060Y-23209205D01*
X34405000Y-23191988D01*
X34405000Y-23994862D01*
X34446690Y-23986569D01*
X34446692Y-23986569D01*
X34628671Y-23911192D01*
X34628684Y-23911185D01*
X34792462Y-23801751D01*
X34792466Y-23801748D01*
X34931748Y-23662466D01*
X34931751Y-23662462D01*
X35041185Y-23498684D01*
X35041192Y-23498671D01*
X35116569Y-23316693D01*
X35116572Y-23316681D01*
X35154999Y-23123495D01*
X35155000Y-23123492D01*
X35155000Y-22875000D01*
X34455000Y-22875000D01*
X34455000Y-22375000D01*
X35155000Y-22375000D01*
X35155000Y-22126508D01*
X35154999Y-22126504D01*
X35116572Y-21933318D01*
X35116569Y-21933306D01*
X35041192Y-21751328D01*
X35041185Y-21751315D01*
X34931751Y-21587537D01*
X34931748Y-21587533D01*
X34792466Y-21448251D01*
X34792462Y-21448248D01*
X34628684Y-21338814D01*
X34628671Y-21338807D01*
X34446691Y-21263429D01*
X34446683Y-21263427D01*
X34405000Y-21255135D01*
X34405000Y-22058011D01*
X34395060Y-22040795D01*
X34339205Y-21984940D01*
X34270796Y-21945444D01*
X34194496Y-21925000D01*
X34115504Y-21925000D01*
X34039204Y-21945444D01*
X33970795Y-21984940D01*
X33914940Y-22040795D01*
X33905000Y-22058011D01*
X33905000Y-21255136D01*
X33904999Y-21255135D01*
X33863316Y-21263427D01*
X33863308Y-21263429D01*
X33681328Y-21338807D01*
X33681315Y-21338814D01*
X33517537Y-21448248D01*
X33517533Y-21448251D01*
X33378251Y-21587533D01*
X33378248Y-21587537D01*
X33268814Y-21751315D01*
X33268807Y-21751328D01*
X33193430Y-21933306D01*
X33193427Y-21933318D01*
X33155000Y-22126504D01*
X26514999Y-22126504D01*
X26476572Y-21933318D01*
X26476569Y-21933306D01*
X26401192Y-21751328D01*
X26401185Y-21751315D01*
X26291751Y-21587537D01*
X26291748Y-21587533D01*
X26152466Y-21448251D01*
X26152462Y-21448248D01*
X25988684Y-21338814D01*
X25988671Y-21338807D01*
X25806691Y-21263429D01*
X25806683Y-21263427D01*
X25765000Y-21255135D01*
X25765000Y-22058011D01*
X25755060Y-22040795D01*
X25699205Y-21984940D01*
X25630796Y-21945444D01*
X25554496Y-21925000D01*
X25475504Y-21925000D01*
X25399204Y-21945444D01*
X25330795Y-21984940D01*
X25274940Y-22040795D01*
X25265000Y-22058011D01*
X25265000Y-21255136D01*
X25264999Y-21255135D01*
X25223316Y-21263427D01*
X25223308Y-21263429D01*
X25041328Y-21338807D01*
X25041315Y-21338814D01*
X24877537Y-21448248D01*
X24877533Y-21448251D01*
X24738251Y-21587533D01*
X24738248Y-21587537D01*
X24628814Y-21751315D01*
X24628807Y-21751328D01*
X24553430Y-21933306D01*
X24553427Y-21933318D01*
X24515000Y-22126504D01*
X23404815Y-22126504D01*
X23456305Y-22075014D01*
X23402139Y-22035661D01*
X23264182Y-21965368D01*
X23213386Y-21917393D01*
X23196591Y-21849572D01*
X23219129Y-21783437D01*
X23232785Y-21767214D01*
X24433595Y-20566404D01*
X24453652Y-20555452D01*
X24471106Y-20540689D01*
X24490831Y-20535151D01*
X24494914Y-20532922D01*
X24505059Y-20531153D01*
X24602497Y-20518325D01*
X24613224Y-20517387D01*
X24997297Y-20500617D01*
X25002706Y-20500500D01*
X25065892Y-20500500D01*
X74934108Y-20500500D01*
X74997294Y-20500500D01*
X75002702Y-20500617D01*
G37*
%TD.AperFunction*%
%TA.AperFunction,Conductor*%
G36*
X60251912Y-45499837D02*
G01*
X60296259Y-45528338D01*
X60389707Y-45621786D01*
X60389711Y-45621789D01*
X60520814Y-45709390D01*
X60520827Y-45709397D01*
X60658683Y-45766498D01*
X60666503Y-45769737D01*
X60731147Y-45782595D01*
X60821849Y-45800638D01*
X60883760Y-45833023D01*
X60885339Y-45834574D01*
X64276687Y-49225923D01*
X64310172Y-49287246D01*
X64305188Y-49356938D01*
X64276688Y-49401285D01*
X64155482Y-49522491D01*
X64016655Y-49713569D01*
X63964367Y-49816189D01*
X63916393Y-49866984D01*
X63848571Y-49883779D01*
X63797588Y-49870378D01*
X63649223Y-49794781D01*
X63454534Y-49731522D01*
X63279995Y-49703878D01*
X63252352Y-49699500D01*
X63047648Y-49699500D01*
X63023329Y-49703351D01*
X62845465Y-49731522D01*
X62650776Y-49794781D01*
X62468386Y-49887715D01*
X62302786Y-50008028D01*
X62302782Y-50008032D01*
X62237681Y-50073134D01*
X62176358Y-50106619D01*
X62106666Y-50101635D01*
X62062319Y-50073134D01*
X61997213Y-50008028D01*
X61831613Y-49887715D01*
X61831612Y-49887714D01*
X61831610Y-49887713D01*
X61746227Y-49844208D01*
X61649223Y-49794781D01*
X61454534Y-49731522D01*
X61279995Y-49703878D01*
X61252352Y-49699500D01*
X61047648Y-49699500D01*
X61023329Y-49703351D01*
X60845465Y-49731522D01*
X60650776Y-49794781D01*
X60468386Y-49887715D01*
X60302786Y-50008028D01*
X60302782Y-50008032D01*
X60237681Y-50073134D01*
X60176358Y-50106619D01*
X60106666Y-50101635D01*
X60062319Y-50073134D01*
X59997213Y-50008028D01*
X59831613Y-49887715D01*
X59831612Y-49887714D01*
X59831610Y-49887713D01*
X59746227Y-49844208D01*
X59649223Y-49794781D01*
X59454534Y-49731522D01*
X59279995Y-49703878D01*
X59252352Y-49699500D01*
X59047648Y-49699500D01*
X59023329Y-49703351D01*
X58845465Y-49731522D01*
X58650776Y-49794781D01*
X58502411Y-49870378D01*
X58433742Y-49883274D01*
X58369001Y-49856998D01*
X58335631Y-49816188D01*
X58332007Y-49809075D01*
X58283343Y-49713567D01*
X58144517Y-49522490D01*
X57977510Y-49355483D01*
X57786433Y-49216657D01*
X57611414Y-49127480D01*
X57560618Y-49079505D01*
X57543823Y-49011684D01*
X57566361Y-48945549D01*
X57580015Y-48929328D01*
X57772526Y-48736816D01*
X57833849Y-48703334D01*
X57860206Y-48700500D01*
X59479898Y-48700500D01*
X59546937Y-48720185D01*
X59548789Y-48721398D01*
X59597137Y-48753703D01*
X59751918Y-48817816D01*
X59916228Y-48850499D01*
X59916232Y-48850500D01*
X59916233Y-48850500D01*
X60083768Y-48850500D01*
X60083769Y-48850499D01*
X60248082Y-48817816D01*
X60402863Y-48753703D01*
X60542162Y-48660626D01*
X60660626Y-48542162D01*
X60753703Y-48402863D01*
X60817816Y-48248082D01*
X60850500Y-48083767D01*
X60850500Y-47916233D01*
X60817816Y-47751918D01*
X60753703Y-47597137D01*
X60716866Y-47542007D01*
X60660626Y-47457837D01*
X60542162Y-47339373D01*
X60402860Y-47246295D01*
X60248082Y-47182184D01*
X60248074Y-47182182D01*
X60083771Y-47149500D01*
X60083767Y-47149500D01*
X59916233Y-47149500D01*
X59916228Y-47149500D01*
X59751925Y-47182182D01*
X59751917Y-47182184D01*
X59597140Y-47246295D01*
X59597131Y-47246300D01*
X59548789Y-47278602D01*
X59482112Y-47299480D01*
X59479898Y-47299500D01*
X58649097Y-47299500D01*
X58582058Y-47279815D01*
X58536303Y-47227011D01*
X58526359Y-47157853D01*
X58555384Y-47094297D01*
X58561416Y-47087819D01*
X60120897Y-45528338D01*
X60182220Y-45494853D01*
X60251912Y-45499837D01*
G37*
%TD.AperFunction*%
%TA.AperFunction,Conductor*%
G36*
X76881444Y-48388999D02*
G01*
X76920486Y-48434056D01*
X76924951Y-48442820D01*
X77049890Y-48614786D01*
X77200213Y-48765109D01*
X77372182Y-48890050D01*
X77380946Y-48894516D01*
X77431742Y-48942491D01*
X77448536Y-49010312D01*
X77425998Y-49076447D01*
X77380946Y-49115484D01*
X77372182Y-49119949D01*
X77200213Y-49244890D01*
X77049890Y-49395213D01*
X76924949Y-49567182D01*
X76920484Y-49575946D01*
X76872509Y-49626742D01*
X76804688Y-49643536D01*
X76738553Y-49620998D01*
X76699516Y-49575946D01*
X76695050Y-49567182D01*
X76570109Y-49395213D01*
X76419786Y-49244890D01*
X76247820Y-49119951D01*
X76247115Y-49119591D01*
X76239054Y-49115485D01*
X76188259Y-49067512D01*
X76171463Y-48999692D01*
X76193999Y-48933556D01*
X76239054Y-48894515D01*
X76247816Y-48890051D01*
X76332064Y-48828842D01*
X76419786Y-48765109D01*
X76419788Y-48765106D01*
X76419792Y-48765104D01*
X76570104Y-48614792D01*
X76570106Y-48614788D01*
X76570109Y-48614786D01*
X76692903Y-48445772D01*
X76695051Y-48442816D01*
X76699514Y-48434054D01*
X76747488Y-48383259D01*
X76815308Y-48366463D01*
X76881444Y-48388999D01*
G37*
%TD.AperFunction*%
%TA.AperFunction,Conductor*%
G36*
X51127176Y-34810950D02*
G01*
X51172931Y-34863754D01*
X51182875Y-34932912D01*
X51153850Y-34996468D01*
X51147830Y-35002933D01*
X51062471Y-35088292D01*
X50985338Y-35165426D01*
X50924015Y-35198910D01*
X50921849Y-35199361D01*
X50766508Y-35230261D01*
X50766498Y-35230264D01*
X50620827Y-35290602D01*
X50620814Y-35290609D01*
X50489711Y-35378210D01*
X50489707Y-35378213D01*
X50378213Y-35489707D01*
X50378210Y-35489711D01*
X50290609Y-35620814D01*
X50290602Y-35620827D01*
X50230264Y-35766498D01*
X50230261Y-35766510D01*
X50199500Y-35921153D01*
X50199500Y-36078846D01*
X50230261Y-36233489D01*
X50230264Y-36233501D01*
X50290602Y-36379172D01*
X50290609Y-36379185D01*
X50378210Y-36510288D01*
X50378213Y-36510292D01*
X50489707Y-36621786D01*
X50489711Y-36621789D01*
X50620814Y-36709390D01*
X50620827Y-36709397D01*
X50766498Y-36769735D01*
X50766503Y-36769737D01*
X50921153Y-36800499D01*
X50921156Y-36800500D01*
X50921158Y-36800500D01*
X51078844Y-36800500D01*
X51078845Y-36800499D01*
X51233497Y-36769737D01*
X51379179Y-36709394D01*
X51510289Y-36621789D01*
X51621789Y-36510289D01*
X51709394Y-36379179D01*
X51769737Y-36233497D01*
X51800071Y-36081000D01*
X51800638Y-36078150D01*
X51809403Y-36061393D01*
X51813424Y-36042912D01*
X51832166Y-36017876D01*
X51833023Y-36016239D01*
X51834520Y-36014714D01*
X51855918Y-35993317D01*
X51917242Y-35959833D01*
X51943597Y-35957000D01*
X57798000Y-35957000D01*
X57865039Y-35976685D01*
X57910794Y-36029489D01*
X57922000Y-36081000D01*
X57922000Y-37310370D01*
X57922001Y-37310376D01*
X57928408Y-37369983D01*
X57978702Y-37504828D01*
X57978706Y-37504835D01*
X58064952Y-37620044D01*
X58064955Y-37620047D01*
X58180164Y-37706293D01*
X58180171Y-37706297D01*
X58188464Y-37709390D01*
X58315017Y-37756591D01*
X58374627Y-37763000D01*
X58375374Y-37762999D01*
X58375539Y-37763048D01*
X58377953Y-37763178D01*
X58377922Y-37763747D01*
X58442415Y-37782667D01*
X58488183Y-37835460D01*
X58499019Y-37896728D01*
X58497287Y-37918734D01*
X59067013Y-38488460D01*
X59018498Y-38501460D01*
X58896503Y-38571894D01*
X58796894Y-38671503D01*
X58726460Y-38793498D01*
X58713460Y-38842013D01*
X58143734Y-38272287D01*
X58143733Y-38272287D01*
X58111003Y-38317338D01*
X58017927Y-38500008D01*
X57954570Y-38695002D01*
X57922500Y-38897486D01*
X57922500Y-39102513D01*
X57954570Y-39304997D01*
X58017927Y-39499991D01*
X58111003Y-39682661D01*
X58143733Y-39727711D01*
X58143734Y-39727711D01*
X58713459Y-39157985D01*
X58726460Y-39206502D01*
X58796894Y-39328497D01*
X58896503Y-39428106D01*
X59018498Y-39498540D01*
X59067012Y-39511539D01*
X58497287Y-40081264D01*
X58542347Y-40114001D01*
X58542346Y-40114001D01*
X58631122Y-40159234D01*
X58681919Y-40207208D01*
X58698714Y-40275029D01*
X58676177Y-40341164D01*
X58631124Y-40380203D01*
X58542077Y-40425575D01*
X58376159Y-40546121D01*
X58376154Y-40546125D01*
X58231125Y-40691154D01*
X58231121Y-40691159D01*
X58110577Y-40857075D01*
X58017464Y-41039817D01*
X57985773Y-41137351D01*
X57954084Y-41234880D01*
X57954083Y-41234883D01*
X57954083Y-41234885D01*
X57922000Y-41437446D01*
X57922000Y-41642553D01*
X57941632Y-41766503D01*
X57954084Y-41845120D01*
X58002258Y-41993384D01*
X58017464Y-42040182D01*
X58110577Y-42222924D01*
X58231121Y-42388840D01*
X58231125Y-42388845D01*
X58376154Y-42533874D01*
X58376159Y-42533878D01*
X58497155Y-42621786D01*
X58542079Y-42654425D01*
X58649954Y-42709390D01*
X58724817Y-42747535D01*
X58724819Y-42747535D01*
X58724822Y-42747537D01*
X58919880Y-42810916D01*
X59021166Y-42826958D01*
X59122447Y-42843000D01*
X59122452Y-42843000D01*
X59327553Y-42843000D01*
X59419626Y-42828416D01*
X59530120Y-42810916D01*
X59725178Y-42747537D01*
X59907921Y-42654425D01*
X60073847Y-42533873D01*
X60218873Y-42388847D01*
X60339425Y-42222921D01*
X60432537Y-42040178D01*
X60495916Y-41845120D01*
X60513416Y-41734626D01*
X60528000Y-41642553D01*
X60528000Y-41437446D01*
X60510499Y-41326958D01*
X60495916Y-41234880D01*
X60432537Y-41039822D01*
X60432535Y-41039819D01*
X60432535Y-41039817D01*
X60398755Y-40973522D01*
X60339425Y-40857079D01*
X60324023Y-40835880D01*
X60218878Y-40691159D01*
X60218874Y-40691154D01*
X60073845Y-40546125D01*
X60073840Y-40546121D01*
X59907924Y-40425577D01*
X59907923Y-40425576D01*
X59907921Y-40425575D01*
X59860204Y-40401262D01*
X59818876Y-40380204D01*
X59768080Y-40332229D01*
X59751285Y-40264408D01*
X59773823Y-40198273D01*
X59818877Y-40159234D01*
X59907657Y-40113999D01*
X59952711Y-40081264D01*
X59952712Y-40081264D01*
X59382987Y-39511539D01*
X59431502Y-39498540D01*
X59553497Y-39428106D01*
X59653106Y-39328497D01*
X59723540Y-39206502D01*
X59736539Y-39157987D01*
X60306264Y-39727712D01*
X60306264Y-39727711D01*
X60338997Y-39682659D01*
X60432072Y-39499991D01*
X60495429Y-39304997D01*
X60527500Y-39102513D01*
X60527500Y-38897486D01*
X60495429Y-38695002D01*
X60432072Y-38500008D01*
X60338999Y-38317344D01*
X60306264Y-38272287D01*
X59736539Y-38842012D01*
X59723540Y-38793498D01*
X59653106Y-38671503D01*
X59553497Y-38571894D01*
X59431502Y-38501460D01*
X59382985Y-38488459D01*
X59952711Y-37918734D01*
X59950980Y-37896728D01*
X59965344Y-37828351D01*
X60014396Y-37778594D01*
X60072089Y-37763648D01*
X60072076Y-37763400D01*
X60072071Y-37763354D01*
X60072073Y-37763353D01*
X60072064Y-37763176D01*
X60074396Y-37763051D01*
X60074597Y-37762999D01*
X60075372Y-37762999D01*
X60134983Y-37756591D01*
X60269831Y-37706296D01*
X60385046Y-37620046D01*
X60471296Y-37504831D01*
X60521591Y-37369983D01*
X60528000Y-37310373D01*
X60527999Y-36080999D01*
X60547684Y-36013961D01*
X60600487Y-35968206D01*
X60651999Y-35957000D01*
X65401403Y-35957000D01*
X65468442Y-35976685D01*
X65489084Y-35993319D01*
X75668583Y-46172819D01*
X75702068Y-46234142D01*
X75697084Y-46303834D01*
X75655212Y-46359767D01*
X75589748Y-46384184D01*
X75580902Y-46384500D01*
X75433713Y-46384500D01*
X75385042Y-46392208D01*
X75223760Y-46417753D01*
X75021585Y-46483444D01*
X74832179Y-46579951D01*
X74660213Y-46704890D01*
X74509890Y-46855213D01*
X74384949Y-47027182D01*
X74380484Y-47035946D01*
X74332509Y-47086742D01*
X74264688Y-47103536D01*
X74198553Y-47080998D01*
X74159516Y-47035946D01*
X74155050Y-47027182D01*
X74030109Y-46855213D01*
X73879786Y-46704890D01*
X73707820Y-46579951D01*
X73518414Y-46483444D01*
X73518413Y-46483443D01*
X73518412Y-46483443D01*
X73316243Y-46417754D01*
X73316241Y-46417753D01*
X73316240Y-46417753D01*
X73154957Y-46392208D01*
X73106287Y-46384500D01*
X72893713Y-46384500D01*
X72865006Y-46389046D01*
X72683757Y-46417753D01*
X72641473Y-46431492D01*
X72571632Y-46433486D01*
X72515476Y-46401241D01*
X69752590Y-43638355D01*
X69745521Y-43631286D01*
X69745520Y-43631284D01*
X69666352Y-43552116D01*
X69666351Y-43552114D01*
X69650933Y-43533327D01*
X69621792Y-43489715D01*
X69621786Y-43489707D01*
X69510292Y-43378213D01*
X69510288Y-43378210D01*
X69379185Y-43290609D01*
X69379172Y-43290602D01*
X69233501Y-43230264D01*
X69233489Y-43230261D01*
X69078845Y-43199500D01*
X69078842Y-43199500D01*
X68921158Y-43199500D01*
X68921155Y-43199500D01*
X68766510Y-43230261D01*
X68766498Y-43230264D01*
X68620827Y-43290602D01*
X68620814Y-43290609D01*
X68489711Y-43378210D01*
X68489707Y-43378213D01*
X68378213Y-43489707D01*
X68378210Y-43489711D01*
X68290609Y-43620814D01*
X68290602Y-43620827D01*
X68230264Y-43766498D01*
X68230261Y-43766510D01*
X68199500Y-43921153D01*
X68199500Y-44078846D01*
X68230261Y-44233489D01*
X68230264Y-44233501D01*
X68290602Y-44379172D01*
X68290609Y-44379185D01*
X68378210Y-44510288D01*
X68378213Y-44510292D01*
X68489707Y-44621786D01*
X68489711Y-44621789D01*
X68620814Y-44709390D01*
X68620827Y-44709397D01*
X68758695Y-44766503D01*
X68766503Y-44769737D01*
X68921153Y-44800499D01*
X68921156Y-44800500D01*
X68921158Y-44800500D01*
X69078843Y-44800500D01*
X69090990Y-44798083D01*
X69128458Y-44790630D01*
X69198047Y-44796856D01*
X69240331Y-44824566D01*
X70589084Y-46173319D01*
X70622569Y-46234642D01*
X70617585Y-46304334D01*
X70575713Y-46360267D01*
X70510249Y-46384684D01*
X70501403Y-46385000D01*
X70353754Y-46385000D01*
X70143872Y-46418242D01*
X70143869Y-46418242D01*
X69941782Y-46483904D01*
X69752439Y-46580380D01*
X69698282Y-46619727D01*
X69698282Y-46619728D01*
X70330591Y-47252037D01*
X70267007Y-47269075D01*
X70152993Y-47334901D01*
X70059901Y-47427993D01*
X69994075Y-47542007D01*
X69977037Y-47605591D01*
X69344728Y-46973282D01*
X69344727Y-46973282D01*
X69305380Y-47027440D01*
X69305376Y-47027446D01*
X69300760Y-47036505D01*
X69252781Y-47087297D01*
X69184959Y-47104087D01*
X69118826Y-47081543D01*
X69079794Y-47036493D01*
X69075051Y-47027184D01*
X69075049Y-47027181D01*
X69075048Y-47027179D01*
X68950109Y-46855213D01*
X68799786Y-46704890D01*
X68627820Y-46579951D01*
X68438414Y-46483444D01*
X68438413Y-46483443D01*
X68438412Y-46483443D01*
X68236243Y-46417754D01*
X68236241Y-46417753D01*
X68236240Y-46417753D01*
X68074957Y-46392208D01*
X68026287Y-46384500D01*
X67813713Y-46384500D01*
X67765042Y-46392208D01*
X67603760Y-46417753D01*
X67401585Y-46483444D01*
X67212179Y-46579951D01*
X67040213Y-46704890D01*
X66889890Y-46855213D01*
X66764951Y-47027179D01*
X66668444Y-47216585D01*
X66602753Y-47418760D01*
X66569500Y-47628713D01*
X66569500Y-47841286D01*
X66601069Y-48040609D01*
X66602754Y-48051243D01*
X66666711Y-48248082D01*
X66668444Y-48253414D01*
X66714195Y-48343205D01*
X66727091Y-48411874D01*
X66700815Y-48476615D01*
X66643709Y-48516872D01*
X66603710Y-48523500D01*
X65324098Y-48523500D01*
X65257059Y-48503815D01*
X65236417Y-48487181D01*
X61734573Y-44985337D01*
X61725510Y-44968740D01*
X61712378Y-44955130D01*
X61701971Y-44925632D01*
X61701088Y-44924014D01*
X61700636Y-44921846D01*
X61700500Y-44921162D01*
X61700500Y-44921158D01*
X61690431Y-44870538D01*
X61696660Y-44800949D01*
X61739523Y-44745772D01*
X61805413Y-44722528D01*
X61873410Y-44738596D01*
X61880940Y-44743248D01*
X61920814Y-44769891D01*
X61920827Y-44769898D01*
X62052809Y-44824566D01*
X62066503Y-44830238D01*
X62191442Y-44855090D01*
X62221153Y-44861000D01*
X62221156Y-44861001D01*
X62221158Y-44861001D01*
X62378844Y-44861001D01*
X62378845Y-44861000D01*
X62533497Y-44830238D01*
X62679179Y-44769895D01*
X62810289Y-44682290D01*
X62921789Y-44570790D01*
X63009394Y-44439680D01*
X63069737Y-44293998D01*
X63100500Y-44139343D01*
X63100500Y-43981659D01*
X63100500Y-43981656D01*
X63100499Y-43981654D01*
X63088603Y-43921850D01*
X63069737Y-43827004D01*
X63044675Y-43766498D01*
X63009397Y-43681328D01*
X63009390Y-43681315D01*
X62921789Y-43550212D01*
X62921786Y-43550208D01*
X62810292Y-43438714D01*
X62810288Y-43438711D01*
X62679185Y-43351110D01*
X62679172Y-43351103D01*
X62533501Y-43290765D01*
X62533489Y-43290762D01*
X62378845Y-43260001D01*
X62378842Y-43260001D01*
X62221158Y-43260001D01*
X62221155Y-43260001D01*
X62066510Y-43290762D01*
X62066498Y-43290765D01*
X61920827Y-43351103D01*
X61920814Y-43351110D01*
X61789125Y-43439103D01*
X61771078Y-43444753D01*
X61755169Y-43454978D01*
X61724207Y-43459429D01*
X61722447Y-43459981D01*
X61720234Y-43460001D01*
X61688596Y-43460001D01*
X61621557Y-43440316D01*
X61575802Y-43387512D01*
X61565858Y-43318354D01*
X61594883Y-43254798D01*
X61600915Y-43248320D01*
X61778468Y-43070767D01*
X62014662Y-42834572D01*
X62075983Y-42801089D01*
X62078150Y-42800638D01*
X62136085Y-42789113D01*
X62233497Y-42769737D01*
X62379179Y-42709394D01*
X62510289Y-42621789D01*
X62621789Y-42510289D01*
X62709394Y-42379179D01*
X62769737Y-42233497D01*
X62800500Y-42078842D01*
X62800500Y-41921158D01*
X62800500Y-41921155D01*
X62800499Y-41921153D01*
X62769738Y-41766510D01*
X62769738Y-41766508D01*
X62769737Y-41766503D01*
X62718394Y-41642548D01*
X62709397Y-41620827D01*
X62709390Y-41620814D01*
X62621789Y-41489711D01*
X62621786Y-41489707D01*
X62510292Y-41378213D01*
X62510288Y-41378210D01*
X62379185Y-41290609D01*
X62379172Y-41290602D01*
X62233501Y-41230264D01*
X62233489Y-41230261D01*
X62078845Y-41199500D01*
X62078842Y-41199500D01*
X61921158Y-41199500D01*
X61921155Y-41199500D01*
X61766510Y-41230261D01*
X61766498Y-41230264D01*
X61620827Y-41290602D01*
X61620814Y-41290609D01*
X61489711Y-41378210D01*
X61489707Y-41378213D01*
X61378213Y-41489707D01*
X61378210Y-41489711D01*
X61290609Y-41620814D01*
X61290602Y-41620827D01*
X61230264Y-41766498D01*
X61230261Y-41766508D01*
X61199361Y-41921850D01*
X61166976Y-41983761D01*
X61165425Y-41985339D01*
X59012181Y-44138584D01*
X58950858Y-44172069D01*
X58881166Y-44167085D01*
X58825233Y-44125213D01*
X58800816Y-44059749D01*
X58800500Y-44050903D01*
X58800500Y-43921155D01*
X58800499Y-43921153D01*
X58777758Y-43806826D01*
X58769737Y-43766503D01*
X58734454Y-43681322D01*
X58709397Y-43620827D01*
X58709390Y-43620814D01*
X58621789Y-43489711D01*
X58621786Y-43489707D01*
X58510292Y-43378213D01*
X58510288Y-43378210D01*
X58379185Y-43290609D01*
X58379172Y-43290602D01*
X58233501Y-43230264D01*
X58233489Y-43230261D01*
X58078845Y-43199500D01*
X58078842Y-43199500D01*
X57921158Y-43199500D01*
X57921155Y-43199500D01*
X57766510Y-43230261D01*
X57766498Y-43230264D01*
X57620827Y-43290602D01*
X57620814Y-43290609D01*
X57489711Y-43378210D01*
X57489707Y-43378213D01*
X57378213Y-43489707D01*
X57378210Y-43489711D01*
X57290609Y-43620814D01*
X57290602Y-43620827D01*
X57230264Y-43766498D01*
X57230261Y-43766508D01*
X57199361Y-43921850D01*
X57166976Y-43983761D01*
X57165425Y-43985339D01*
X55787584Y-45363181D01*
X55726261Y-45396666D01*
X55699903Y-45399500D01*
X45300097Y-45399500D01*
X45233058Y-45379815D01*
X45212416Y-45363181D01*
X37508374Y-37659139D01*
X39845500Y-37659139D01*
X39845500Y-37840860D01*
X39873928Y-38020347D01*
X39873928Y-38020350D01*
X39930081Y-38193171D01*
X39930083Y-38193174D01*
X40012583Y-38355090D01*
X40119397Y-38502106D01*
X40247894Y-38630603D01*
X40394910Y-38737417D01*
X40556826Y-38819917D01*
X40556828Y-38819918D01*
X40718029Y-38872294D01*
X40729654Y-38876072D01*
X40909139Y-38904500D01*
X40909140Y-38904500D01*
X41090860Y-38904500D01*
X41090861Y-38904500D01*
X41270346Y-38876072D01*
X41270349Y-38876071D01*
X41270350Y-38876071D01*
X41443171Y-38819918D01*
X41443171Y-38819917D01*
X41443174Y-38819917D01*
X41605090Y-38737417D01*
X41752106Y-38630603D01*
X41880603Y-38502106D01*
X41987417Y-38355090D01*
X42069917Y-38193174D01*
X42126072Y-38020346D01*
X42154500Y-37840861D01*
X42154500Y-37659139D01*
X42126072Y-37479654D01*
X42126071Y-37479650D01*
X42126071Y-37479649D01*
X42069918Y-37306828D01*
X42069916Y-37306825D01*
X41987416Y-37144909D01*
X41939418Y-37078846D01*
X41880603Y-36997894D01*
X41752106Y-36869397D01*
X41605090Y-36762583D01*
X41443174Y-36680083D01*
X41443171Y-36680081D01*
X41270348Y-36623928D01*
X41124424Y-36600816D01*
X41090861Y-36595500D01*
X40909139Y-36595500D01*
X40875576Y-36600816D01*
X40729652Y-36623928D01*
X40729649Y-36623928D01*
X40556828Y-36680081D01*
X40556825Y-36680083D01*
X40394909Y-36762583D01*
X40315628Y-36820185D01*
X40247894Y-36869397D01*
X40247892Y-36869399D01*
X40247891Y-36869399D01*
X40119399Y-36997891D01*
X40119399Y-36997892D01*
X40119397Y-36997894D01*
X40073525Y-37061030D01*
X40012583Y-37144909D01*
X39930083Y-37306825D01*
X39930081Y-37306828D01*
X39873928Y-37479649D01*
X39873928Y-37479652D01*
X39845500Y-37659139D01*
X37508374Y-37659139D01*
X36661416Y-36812181D01*
X36627931Y-36750858D01*
X36632915Y-36681166D01*
X36674787Y-36625233D01*
X36740251Y-36600816D01*
X36749097Y-36600500D01*
X39859147Y-36600500D01*
X39859163Y-36600501D01*
X39866759Y-36600501D01*
X40024870Y-36600501D01*
X40024873Y-36600501D01*
X40177601Y-36559577D01*
X40247049Y-36519481D01*
X40314532Y-36480520D01*
X40426336Y-36368716D01*
X40426336Y-36368714D01*
X40436540Y-36358511D01*
X40436543Y-36358506D01*
X41967468Y-34827584D01*
X42028791Y-34794099D01*
X42055149Y-34791265D01*
X51060137Y-34791265D01*
X51127176Y-34810950D01*
G37*
%TD.AperFunction*%
%TA.AperFunction,Conductor*%
G36*
X40292877Y-29620185D02*
G01*
X40313519Y-29636819D01*
X44055284Y-33378584D01*
X44088769Y-33439907D01*
X44083785Y-33509599D01*
X44041913Y-33565532D01*
X43976449Y-33589949D01*
X43967603Y-33590265D01*
X42413651Y-33590265D01*
X42346612Y-33570580D01*
X42300857Y-33517776D01*
X42292034Y-33490457D01*
X42267085Y-33365034D01*
X42267084Y-33365033D01*
X42267084Y-33365029D01*
X42263453Y-33356263D01*
X42206744Y-33219353D01*
X42206737Y-33219340D01*
X42119136Y-33088237D01*
X42119133Y-33088233D01*
X42007639Y-32976739D01*
X42007635Y-32976736D01*
X41876532Y-32889135D01*
X41876519Y-32889128D01*
X41730848Y-32828790D01*
X41730838Y-32828787D01*
X41575496Y-32797887D01*
X41513585Y-32765502D01*
X41512007Y-32763951D01*
X38560237Y-29812181D01*
X38526752Y-29750858D01*
X38531736Y-29681166D01*
X38573608Y-29625233D01*
X38639072Y-29600816D01*
X38647918Y-29600500D01*
X40225838Y-29600500D01*
X40292877Y-29620185D01*
G37*
%TD.AperFunction*%
%TD*%
M02*
